<svg xmlns="http://www.w3.org/2000/svg" width="71" height="70" viewBox="0 0 71 70" fill="none"><rect x="33.583" y="25.375" width="8.75" height="5.25" rx="2" transform="rotate(90 33.583 25.375)" fill="url(#paint0_linear_9351_2424)"></rect><rect x="44.958" y="25.375" width="8.75" height="5.25" rx="2" transform="rotate(90 44.958 25.375)" fill="url(#paint1_linear_9351_2424)"></rect><path d="M64.2981 21.8584C63.9686 14.0421 57.5361 7.875 49.7128 7.875C41.7464 7.875 35.251 14.2618 35.1167 22.2271L34.6087 52.3525C34.5262 57.242 38.4672 61.25 43.3574 61.25H56.832C61.8091 61.25 65.7839 57.1042 65.5743 52.1315L64.2981 21.8584Z" fill="url(#paint2_linear_9351_2424)"></path><path d="M6.37465 21.7501C6.70186 13.9943 13.0847 7.875 20.8475 7.875C28.8477 7.875 35.3332 14.3605 35.3332 22.3607L35.3332 52.5C35.3332 57.3325 31.4157 61.25 26.5832 61.25H13.8351C8.85792 61.25 4.8831 57.104 5.0929 52.1312L6.37465 21.7501Z" fill="url(#paint3_linear_9351_2424)"></path><path fill-rule="evenodd" clip-rule="evenodd" d="M2.03062 31.1359C2.71506 30.1404 4.07695 29.8882 5.07249 30.5726C8.50377 32.9316 19.7934 38.0627 35.7423 38.0627C51.6928 38.0627 62.4051 32.9319 65.5316 30.6171C66.5025 29.8982 67.8724 30.1026 68.5913 31.0735C69.3102 32.0445 69.1058 33.4144 68.1349 34.1333C64.1704 37.0685 52.5191 42.4377 35.7423 42.4377C18.9639 42.4377 6.79901 37.0688 2.59393 34.1778C1.59839 33.4934 1.34618 32.1315 2.03062 31.1359Z" fill="url(#paint4_linear_9351_2424)"></path><path fill-rule="evenodd" clip-rule="evenodd" d="M68.6357 31.1359C67.9513 30.1404 66.5894 29.8882 65.5939 30.5726C62.1626 32.9316 50.873 38.0627 34.9241 38.0627C18.9736 38.0627 8.26127 32.9319 5.1348 30.6171C4.16384 29.8982 2.79395 30.1026 2.07507 31.0735C1.35618 32.0445 1.56053 33.4144 2.53149 34.1333C6.49594 37.0685 18.1473 42.4377 34.9241 42.4377C51.7024 42.4377 63.8673 37.0688 68.0724 34.1778C69.068 33.4934 69.3202 32.1315 68.6357 31.1359Z" fill="url(#paint5_radial_9351_2424)" fill-opacity="0.3"></path><path fill-rule="evenodd" clip-rule="evenodd" d="M68.6357 31.1359C67.9513 30.1404 66.5894 29.8882 65.5939 30.5726C62.1626 32.9316 50.873 38.0627 34.9241 38.0627C18.9736 38.0627 8.26127 32.9319 5.1348 30.6171C4.16384 29.8982 2.79395 30.1026 2.07507 31.0735C1.35618 32.0445 1.56053 33.4144 2.53149 34.1333C6.49594 37.0685 18.1473 42.4377 34.9241 42.4377C51.7024 42.4377 63.8673 37.0688 68.0724 34.1778C69.068 33.4934 69.3202 32.1315 68.6357 31.1359Z" fill="url(#paint6_radial_9351_2424)" fill-opacity="0.3"></path><path d="M11.9722 33.268C11.8519 32.0644 13.0511 31.1623 14.1741 31.6115C18.208 33.225 22.7079 33.225 26.7418 31.6115C27.8648 31.1623 29.064 32.0644 28.9436 33.268L28.7498 35.2062C28.4726 37.9785 28.4726 40.7716 28.7498 43.5439L28.9436 45.4821C29.064 46.6856 27.8648 47.5878 26.7418 47.1386C22.7079 45.525 18.208 45.525 14.1741 47.1386C13.0511 47.5878 11.8519 46.6856 11.9722 45.4821L12.1661 43.5439C12.4433 40.7716 12.4433 37.9785 12.1661 35.2062L11.9722 33.268Z" fill="#B4A9FC"></path><g filter="url(#filter0_d_9351_2424)"><path d="M15.208 38.5C15.208 36.567 16.775 35 18.708 35H22.208C24.141 35 25.708 36.567 25.708 38.5V40.25C25.708 42.183 24.141 43.75 22.208 43.75H18.708C16.775 43.75 15.208 42.183 15.208 40.25V38.5Z" fill="url(#paint7_linear_9351_2424)"></path><path d="M16.208 38.5C16.208 37.1193 17.3273 36 18.708 36H22.208C23.5887 36 24.708 37.1193 24.708 38.5V40.25C24.708 41.6307 23.5887 42.75 22.208 42.75H18.708C17.3273 42.75 16.208 41.6307 16.208 40.25V38.5Z" stroke="url(#paint8_radial_9351_2424)" stroke-width="2"></path></g><g filter="url(#filter1_d_9351_2424)"><path d="M22.208 33.6875C22.208 32.4794 23.1874 31.5 24.3955 31.5C25.6036 31.5 26.583 32.4794 26.583 33.6875V36.3125C26.583 37.5206 25.6036 38.5 24.3955 38.5C23.1874 38.5 22.208 37.5206 22.208 36.3125V33.6875Z" fill="url(#paint9_linear_9351_2424)"></path></g><g filter="url(#filter2_d_9351_2424)"><path d="M22.208 42.4375C22.208 41.2294 23.1874 40.25 24.3955 40.25C25.6036 40.25 26.583 41.2294 26.583 42.4375V45.0625C26.583 46.2706 25.6036 47.25 24.3955 47.25C23.1874 47.25 22.208 46.2706 22.208 45.0625V42.4375Z" fill="url(#paint10_linear_9351_2424)"></path></g><g filter="url(#filter3_d_9351_2424)"><path d="M14.333 42.4375C14.333 41.2294 15.3124 40.25 16.5205 40.25C17.7286 40.25 18.708 41.2294 18.708 42.4375V45.0625C18.708 46.2706 17.7286 47.25 16.5205 47.25C15.3124 47.25 14.333 46.2706 14.333 45.0625V42.4375Z" fill="url(#paint11_linear_9351_2424)"></path></g><g filter="url(#filter4_d_9351_2424)"><path d="M14.333 33.6875C14.333 32.4794 15.3124 31.5 16.5205 31.5C17.7286 31.5 18.708 32.4794 18.708 33.6875V36.3125C18.708 37.5206 17.7286 38.5 16.5205 38.5C15.3124 38.5 14.333 37.5206 14.333 36.3125V33.6875Z" fill="url(#paint12_linear_9351_2424)"></path></g><path d="M41.7222 33.268C41.6019 32.0644 42.8011 31.1623 43.9241 31.6115C47.958 33.225 52.4579 33.225 56.4918 31.6115C57.6148 31.1623 58.814 32.0644 58.6936 33.268L58.4998 35.2062C58.2226 37.9785 58.2226 40.7716 58.4998 43.5439L58.6936 45.4821C58.814 46.6856 57.6148 47.5878 56.4918 47.1386C52.4579 45.525 47.958 45.525 43.9241 47.1386C42.8011 47.5878 41.6019 46.6856 41.7222 45.4821L41.9161 43.5439C42.1933 40.7716 42.1933 37.9785 41.9161 35.2062L41.7222 33.268Z" fill="#B4A9FC"></path><g filter="url(#filter5_d_9351_2424)"><rect x="44.958" y="35" width="10.5" height="8.75" rx="4" fill="url(#paint13_linear_9351_2424)"></rect><rect x="45.958" y="36" width="8.5" height="6.75" rx="3" stroke="url(#paint14_radial_9351_2424)" stroke-width="2"></rect></g><g filter="url(#filter6_d_9351_2424)"><path d="M51.958 33.6875C51.958 32.4794 52.9374 31.5 54.1455 31.5C55.3536 31.5 56.333 32.4794 56.333 33.6875V36.3125C56.333 37.5206 55.3536 38.5 54.1455 38.5C52.9374 38.5 51.958 37.5206 51.958 36.3125V33.6875Z" fill="url(#paint15_linear_9351_2424)"></path></g><g filter="url(#filter7_d_9351_2424)"><path d="M51.958 42.4375C51.958 41.2294 52.9374 40.25 54.1455 40.25C55.3536 40.25 56.333 41.2294 56.333 42.4375V45.0625C56.333 46.2706 55.3536 47.25 54.1455 47.25C52.9374 47.25 51.958 46.2706 51.958 45.0625V42.4375Z" fill="url(#paint16_linear_9351_2424)"></path></g><g filter="url(#filter8_d_9351_2424)"><path d="M44.083 42.4375C44.083 41.2294 45.0624 40.25 46.2705 40.25C47.4786 40.25 48.458 41.2294 48.458 42.4375V45.0625C48.458 46.2706 47.4786 47.25 46.2705 47.25C45.0624 47.25 44.083 46.2706 44.083 45.0625V42.4375Z" fill="url(#paint17_linear_9351_2424)"></path></g><g filter="url(#filter9_d_9351_2424)"><path d="M44.083 33.6875C44.083 32.4794 45.0624 31.5 46.2705 31.5C47.4786 31.5 48.458 32.4794 48.458 33.6875V36.3125C48.458 37.5206 47.4786 38.5 46.2705 38.5C45.0624 38.5 44.083 37.5206 44.083 36.3125V33.6875Z" fill="url(#paint18_linear_9351_2424)"></path></g><defs><filter id="filter0_d_9351_2424" x="7.20801" y="31" width="26.5" height="24.75" color-interpolation-filters="sRGB"><feGaussianBlur stdDeviation="4"></feGaussianBlur></filter><filter id="filter1_d_9351_2424" x="14.208" y="27.5" width="20.375" height="23" color-interpolation-filters="sRGB"><feGaussianBlur stdDeviation="4"></feGaussianBlur></filter><filter id="filter2_d_9351_2424" x="14.208" y="36.25" width="20.375" height="23" color-interpolation-filters="sRGB"><feGaussianBlur stdDeviation="4"></feGaussianBlur></filter><filter id="filter3_d_9351_2424" x="6.33301" y="36.25" width="20.375" height="23" color-interpolation-filters="sRGB"><feGaussianBlur stdDeviation="4"></feGaussianBlur></filter><filter id="filter4_d_9351_2424" x="6.33301" y="27.5" width="20.375" height="23" color-interpolation-filters="sRGB"><feGaussianBlur stdDeviation="4"></feGaussianBlur></filter><filter id="filter5_d_9351_2424" x="36.958" y="31" width="26.5" height="24.75" color-interpolation-filters="sRGB"><feGaussianBlur stdDeviation="4"></feGaussianBlur></filter><filter id="filter6_d_9351_2424" x="43.958" y="27.5" width="20.375" height="23" color-interpolation-filters="sRGB"><feGaussianBlur stdDeviation="4"></feGaussianBlur></filter><filter id="filter7_d_9351_2424" x="43.958" y="36.25" width="20.375" height="23" color-interpolation-filters="sRGB"><feGaussianBlur stdDeviation="4"></feGaussianBlur></filter><filter id="filter8_d_9351_2424" x="36.083" y="36.25" width="20.375" height="23" color-interpolation-filters="sRGB"><feGaussianBlur stdDeviation="4"></feGaussianBlur></filter><filter id="filter9_d_9351_2424" x="36.083" y="27.5" width="20.375" height="23" color-interpolation-filters="sRGB"><feGaussianBlur stdDeviation="4"></feGaussianBlur></filter><linearGradient id="paint0_linear_9351_2424" x1="36.4008" y1="25.375" x2="38.3025" y2="25.5029" gradientUnits="userSpaceOnUse"><stop stop-color="#E2E6F3"></stop><stop offset="1" stop-color="#D5DAF0"></stop></linearGradient><linearGradient id="paint1_linear_9351_2424" x1="47.7758" y1="25.375" x2="49.6775" y2="25.5029" gradientUnits="userSpaceOnUse"><stop stop-color="#E2E6F3"></stop><stop offset="1" stop-color="#D5DAF0"></stop></linearGradient><linearGradient id="paint2_linear_9351_2424" x1="34.4587" y1="24.9375" x2="53.8992" y2="42.5755" gradientUnits="userSpaceOnUse"><stop stop-color="#F0F6F9"></stop><stop offset="1" stop-color="#CDDFF2"></stop></linearGradient><linearGradient id="paint3_linear_9351_2424" x1="2.95818" y1="22.3125" x2="28.221" y2="51.0057" gradientUnits="userSpaceOnUse"><stop stop-color="#F0F6F9"></stop><stop offset="1" stop-color="#CDDFF2"></stop></linearGradient><linearGradient id="paint4_linear_9351_2424" x1="35.3332" y1="32.3752" x2="34.8957" y2="43.7502" gradientUnits="userSpaceOnUse"><stop stop-color="#E3E7F6"></stop><stop offset="1" stop-color="#C7CCDF"></stop></linearGradient><radialGradient id="paint5_radial_9351_2424" cx="0" cy="0" r="1" gradientUnits="userSpaceOnUse" gradientTransform="translate(49.3331 39.3752) rotate(177.879) scale(11.8206 65.0125)"><stop stop-color="#ADB6DA"></stop><stop offset="1" stop-color="#626D97" stop-opacity="0"></stop></radialGradient><radialGradient id="paint6_radial_9351_2424" cx="0" cy="0" r="1" gradientUnits="userSpaceOnUse" gradientTransform="translate(49.3331 39.3752) rotate(177.879) scale(11.8206 65.0125)"><stop stop-color="#ADB6DA"></stop><stop offset="1" stop-color="#626D97" stop-opacity="0"></stop></radialGradient><linearGradient id="paint7_linear_9351_2424" x1="19.4263" y1="34.9757" x2="22.259" y2="44.2024" gradientUnits="userSpaceOnUse"><stop stop-color="#F2F5FF"></stop><stop offset="1" stop-color="#D6DBF1"></stop></linearGradient><radialGradient id="paint8_radial_9351_2424" cx="0" cy="0" r="1" gradientUnits="userSpaceOnUse" gradientTransform="translate(23.9179 28.8933) rotate(131.532) scale(13.1254 13.6348)"><stop stop-color="white"></stop><stop offset="1" stop-color="white" stop-opacity="0"></stop></radialGradient><linearGradient id="paint9_linear_9351_2424" x1="23.9656" y1="31.4806" x2="27.499" y2="37.4748" gradientUnits="userSpaceOnUse"><stop stop-color="#F2F5FF"></stop><stop offset="0.151042" stop-color="#F8F9FE"></stop><stop offset="1" stop-color="#D6DBF1"></stop></linearGradient><linearGradient id="paint10_linear_9351_2424" x1="23.9656" y1="40.2306" x2="27.499" y2="46.2248" gradientUnits="userSpaceOnUse"><stop stop-color="#F2F5FF"></stop><stop offset="0.151042" stop-color="#F8F9FE"></stop><stop offset="1" stop-color="#D6DBF1"></stop></linearGradient><linearGradient id="paint11_linear_9351_2424" x1="16.0906" y1="40.2306" x2="19.624" y2="46.2248" gradientUnits="userSpaceOnUse"><stop stop-color="#F2F5FF"></stop><stop offset="0.151042" stop-color="#F8F9FE"></stop><stop offset="1" stop-color="#D6DBF1"></stop></linearGradient><linearGradient id="paint12_linear_9351_2424" x1="16.0906" y1="31.4806" x2="19.624" y2="37.4748" gradientUnits="userSpaceOnUse"><stop stop-color="#F2F5FF"></stop><stop offset="0.151042" stop-color="#F8F9FE"></stop><stop offset="1" stop-color="#D6DBF1"></stop></linearGradient><linearGradient id="paint13_linear_9351_2424" x1="49.1763" y1="34.9758" x2="52.009" y2="44.2024" gradientUnits="userSpaceOnUse"><stop stop-color="#F2F5FF"></stop><stop offset="1" stop-color="#D6DBF1"></stop></linearGradient><radialGradient id="paint14_radial_9351_2424" cx="0" cy="0" r="1" gradientUnits="userSpaceOnUse" gradientTransform="translate(53.6679 28.8933) rotate(131.532) scale(13.1254 13.6348)"><stop stop-color="white"></stop><stop offset="1" stop-color="white" stop-opacity="0"></stop></radialGradient><linearGradient id="paint15_linear_9351_2424" x1="53.7156" y1="31.4806" x2="57.249" y2="37.4748" gradientUnits="userSpaceOnUse"><stop stop-color="#F2F5FF"></stop><stop offset="0.151042" stop-color="#F8F9FE"></stop><stop offset="1" stop-color="#D6DBF1"></stop></linearGradient><linearGradient id="paint16_linear_9351_2424" x1="53.7156" y1="40.2306" x2="57.249" y2="46.2248" gradientUnits="userSpaceOnUse"><stop stop-color="#F2F5FF"></stop><stop offset="0.151042" stop-color="#F8F9FE"></stop><stop offset="1" stop-color="#D6DBF1"></stop></linearGradient><linearGradient id="paint17_linear_9351_2424" x1="45.8406" y1="40.2306" x2="49.374" y2="46.2248" gradientUnits="userSpaceOnUse"><stop stop-color="#F2F5FF"></stop><stop offset="0.151042" stop-color="#F8F9FE"></stop><stop offset="1" stop-color="#D6DBF1"></stop></linearGradient><linearGradient id="paint18_linear_9351_2424" x1="45.8406" y1="31.4806" x2="49.374" y2="37.4748" gradientUnits="userSpaceOnUse"><stop stop-color="#F2F5FF"></stop><stop offset="0.151042" stop-color="#F8F9FE"></stop><stop offset="1" stop-color="#D6DBF1"></stop></linearGradient></defs></svg>