<svg xmlns="http://www.w3.org/2000/svg" width="71" height="70" viewBox="0 0 71 70" fill="none"><path d="M9.50417 13.125C7.03978 13.125 5.04199 15.1228 5.04199 17.5872L5.04199 25.5293C5.04199 30.3383 8.95062 34.2314 13.7596 34.2122L35.0643 34.1274C35.4609 34.1258 35.8528 34.2141 36.2104 34.3857L60.948 46.2562C62.1647 46.84 63.6226 46.5193 64.4821 45.4789C65.4911 44.2574 65.349 42.4556 64.161 41.4073L43.1461 22.8641C41.2028 21.1493 38.5401 20.5005 36.0258 21.1291L15.8739 26.167C13.8366 26.6763 11.8125 25.2894 11.5521 23.2056L10.3897 13.9067C10.3339 13.4601 9.95424 13.125 9.50417 13.125Z" fill="url(#paint0_linear_9351_2422)"></path><mask id="mask0_9351_2422" style="mask-type:alpha" maskUnits="userSpaceOnUse" x="5" y="13" width="61" height="34"><path d="M9.50417 13.125C7.03978 13.125 5.04199 15.1228 5.04199 17.5872L5.04199 25.5293C5.04199 30.3383 8.95062 34.2314 13.7596 34.2122L35.0643 34.1274C35.4609 34.1258 35.8528 34.2141 36.2104 34.3857L60.948 46.2562C62.1647 46.84 63.6226 46.5193 64.4821 45.4789C65.4911 44.2574 65.349 42.4556 64.161 41.4073L43.1461 22.8641C41.2028 21.1493 38.5401 20.5005 36.0258 21.1291L15.8739 26.167C13.8366 26.6763 11.8125 25.2894 11.5521 23.2056L10.3897 13.9067C10.3339 13.4601 9.95424 13.125 9.50417 13.125Z" fill="url(#paint1_linear_9351_2422)"></path></mask><g mask="url(#mask0_9351_2422)"><rect x="30.417" y="20.125" width="13.125" height="17.5" fill="url(#paint2_linear_9351_2422)"></rect><rect x="33.042" y="20.125" width="4.375" height="17.5" fill="url(#paint3_linear_9351_2422)"></rect><rect x="21.0781" y="37.8931" width="4.375" height="17.5" transform="rotate(-165 21.0781 37.8931)" fill="url(#paint4_linear_9351_2422)"></rect></g><path d="M12.917 8.83717C12.917 6.37278 14.9148 4.375 17.3792 4.375H25.3213C30.1303 4.375 34.0234 8.28363 34.0042 13.0926L33.9194 34.3973C33.9178 34.7939 34.0061 35.1858 34.1777 35.5434L46.0482 60.281C46.632 61.4977 46.3113 62.9556 45.2709 63.8151C44.0494 64.8241 42.2476 64.682 41.1993 63.494L22.6561 42.4791C20.9413 40.5358 20.2925 37.8731 20.921 35.3588L25.959 15.2069C26.4683 13.1696 25.0814 11.1456 22.9976 10.8851L13.6987 9.72272C13.2521 9.66689 12.917 9.28725 12.917 8.83717Z" fill="url(#paint5_linear_9351_2422)"></path><mask id="mask1_9351_2422" style="mask-type:alpha" maskUnits="userSpaceOnUse" x="12" y="4" width="35" height="61"><path d="M12.917 8.83717C12.917 6.37278 14.9148 4.375 17.3792 4.375H25.3213C30.1303 4.375 34.0234 8.28363 34.0042 13.0926L33.9194 34.3973C33.9178 34.7939 34.0061 35.1858 34.1777 35.5434L46.0482 60.281C46.632 61.4977 46.3113 62.9556 45.2709 63.8151C44.0494 64.8241 42.2476 64.682 41.1993 63.494L22.6561 42.4791C20.9413 40.5358 20.2925 37.8731 20.921 35.3588L25.959 15.2069C26.4683 13.1696 25.0814 11.1456 22.9976 10.8851L13.6987 9.72272C13.2521 9.66689 12.917 9.28725 12.917 8.83717Z" fill="url(#paint6_linear_9351_2422)"></path></mask><g mask="url(#mask1_9351_2422)"><path d="M20.4857 13.125L26.0417 13.125L31.7292 52.9375L18.8772 47.1989L20.4857 13.125Z" fill="url(#paint7_linear_9351_2422)"></path></g><g filter="url(#filter0_d_9351_2422)"><path d="M30.5784 30.7397C31.6035 29.7146 31.6035 28.0525 30.5784 27.0274L29.9585 26.4075C28.9334 25.3824 27.2713 25.3824 26.2462 26.4075L25.3245 27.3292C24.2994 28.3543 24.2994 30.0164 25.3245 31.0415L25.9444 31.6614C26.9695 32.6865 28.6316 32.6865 29.6567 31.6614L30.5784 30.7397Z" fill="url(#paint8_linear_9351_2422)"></path></g><path d="M29.5821 29.5774C29.9238 29.2357 29.9238 28.6817 29.5821 28.34L28.6454 27.4033C28.3037 27.0615 27.7497 27.0615 27.4079 27.4033L26.3198 28.4914C25.978 28.8331 25.978 29.3872 26.3198 29.7289L27.2565 30.6656C27.5982 31.0073 28.1522 31.0073 28.4939 30.6656L29.5821 29.5774Z" fill="url(#paint9_linear_9351_2422)"></path><defs><filter id="filter0_d_9351_2422" x="21.5557" y="23.6387" width="14.792" height="14.7915" color-interpolation-filters="sRGB"><feGaussianBlur stdDeviation="2"></feGaussianBlur></filter><linearGradient id="paint0_linear_9351_2422" x1="5.04199" y1="19.25" x2="66.292" y2="36.75" gradientUnits="userSpaceOnUse"><stop stop-color="#DFE3F3"></stop><stop offset="1" stop-color="#CCD0E3"></stop></linearGradient><linearGradient id="paint1_linear_9351_2422" x1="5.04199" y1="19.25" x2="66.292" y2="36.75" gradientUnits="userSpaceOnUse"><stop stop-color="#DFE3F3"></stop><stop offset="1" stop-color="#CCD0E3"></stop></linearGradient><linearGradient id="paint2_linear_9351_2422" x1="26.667" y1="27.125" x2="36.9795" y2="27.125" gradientUnits="userSpaceOnUse"><stop stop-color="#9099C4"></stop><stop offset="1" stop-color="#9099C4" stop-opacity="0"></stop></linearGradient><linearGradient id="paint3_linear_9351_2422" x1="31.792" y1="27.125" x2="35.2295" y2="27.125" gradientUnits="userSpaceOnUse"><stop stop-color="#9099C4"></stop><stop offset="1" stop-color="#9099C4" stop-opacity="0"></stop></linearGradient><linearGradient id="paint4_linear_9351_2422" x1="19.8281" y1="44.8931" x2="23.2656" y2="44.8931" gradientUnits="userSpaceOnUse"><stop stop-color="#9099C4"></stop><stop offset="1" stop-color="#9099C4" stop-opacity="0"></stop></linearGradient><linearGradient id="paint5_linear_9351_2422" x1="21.2295" y1="3.0625" x2="36.542" y2="64.75" gradientUnits="userSpaceOnUse"><stop stop-color="#E9ECF7"></stop><stop offset="1" stop-color="#CCD0E3"></stop></linearGradient><linearGradient id="paint6_linear_9351_2422" x1="21.2295" y1="3.0625" x2="36.542" y2="64.75" gradientUnits="userSpaceOnUse"><stop stop-color="#E9ECF7"></stop><stop offset="1" stop-color="#CCD0E3"></stop></linearGradient><linearGradient id="paint7_linear_9351_2422" x1="13.7917" y1="28.875" x2="25.6042" y2="29.75" gradientUnits="userSpaceOnUse"><stop stop-color="white"></stop><stop offset="1" stop-color="white" stop-opacity="0"></stop></linearGradient><linearGradient id="paint8_linear_9351_2422" x1="26.1351" y1="26.6781" x2="29.9147" y2="31.5377" gradientUnits="userSpaceOnUse"><stop stop-color="#F7F7FB"></stop><stop offset="1" stop-color="#DEE1F0"></stop></linearGradient><linearGradient id="paint9_linear_9351_2422" x1="16.4167" y1="14.8752" x2="28.9362" y2="30.2907" gradientUnits="userSpaceOnUse"><stop stop-color="#C5CAE2"></stop><stop offset="1" stop-color="#D1D5E7"></stop></linearGradient></defs></svg>