<svg xmlns="http://www.w3.org/2000/svg" width="70" height="70" viewBox="0 0 70 70" fill="none"><rect x="23.625" y="36.75" width="2.625" height="8.75" fill="url(#paint0_linear_9351_2419)"></rect><circle cx="24.9375" cy="20.5625" r="17.0625" fill="url(#paint1_linear_9351_2419)"></circle><circle cx="24.9375" cy="20.5625" r="14.4375" fill="url(#paint2_linear_9351_2419)"></circle><ellipse opacity="0.55" cx="28.5819" cy="26.2217" rx="9.7077" ry="6.98069" transform="rotate(-35.8938 28.5819 26.2217)" fill="url(#paint3_linear_9351_2419)"></ellipse><g opacity="0.3" filter="url(#filter0_f_9351_2419)"><ellipse cx="21.5107" cy="17.5108" rx="11.1852" ry="6.50778" transform="rotate(135 21.5107 17.5108)" fill="url(#paint4_linear_9351_2419)"></ellipse></g><g filter="url(#filter1_f_9351_2419)"><path d="M17.9208 7.9877L17.7409 7.12945C17.6422 6.65826 17.2266 6.3208 16.7452 6.3208C16.2503 6.3208 15.8272 6.677 15.7428 7.16468L15.639 7.76467C15.2091 10.2492 13.293 12.2122 10.8196 12.7021L9.50582 12.9623C9.05932 13.0507 8.73758 13.4424 8.73758 13.8976C8.73758 14.3671 9.07929 14.7667 9.54304 14.8395L10.5609 14.9995C13.1663 15.409 15.2161 17.4421 15.6467 20.0441L15.7491 20.6623C15.8297 21.1494 16.2509 21.5066 16.7446 21.5066C17.2254 21.5066 17.6395 21.1673 17.734 20.6959L17.9576 19.5805C18.4273 17.2375 20.3009 15.4315 22.6596 15.0482L23.9173 14.8438C24.3816 14.7684 24.7227 14.3674 24.7227 13.8971C24.7227 13.4415 24.4022 13.0488 23.9559 12.9574L22.6434 12.6886C20.2728 12.2032 18.4172 10.356 17.9208 7.9877Z" fill="url(#paint5_linear_9351_2419)"></path></g><path d="M17.5594 9.70066L17.1793 6.71094C17.151 6.48794 16.9613 6.3208 16.7365 6.3208C16.5063 6.3208 16.3138 6.49581 16.292 6.72495L16.0095 9.69391C15.8433 11.441 14.4804 12.8353 12.7376 13.0413L9.1273 13.468C8.90504 13.4943 8.73758 13.6827 8.73758 13.9065C8.73758 14.1364 8.91395 14.3278 9.14305 14.3466L12.5483 14.6257C14.3847 14.7763 15.8471 16.225 16.0151 18.0598L16.2935 21.1026C16.3145 21.3314 16.5064 21.5066 16.7362 21.5066C16.9609 21.5066 17.1502 21.339 17.1775 21.116L17.5517 18.0551C17.7775 16.2089 19.267 14.774 21.1204 14.6175L24.3171 14.3476C24.5464 14.3282 24.7227 14.1364 24.7227 13.9063C24.7227 13.6824 24.5556 13.4937 24.3333 13.4667L20.9287 13.0522C19.1707 12.8381 17.7827 11.4575 17.5594 9.70066Z" fill="url(#paint6_linear_9351_2419)"></path><path d="M49 35.8424C49 33.5754 49.6291 31.3529 50.8172 29.4222L57.6974 18.2418C58.7921 16.4629 58.7282 14.2043 57.5346 12.4901L53.8993 7.26981C53.7934 7.11774 53.8228 6.90973 53.9666 6.79288C54.1217 6.66689 54.3502 6.69414 54.4713 6.85307L59.1279 12.9648C60.4128 14.6513 60.5572 16.9452 59.4939 18.7795L53.2769 29.5041C52.1949 31.3707 51.625 33.4901 51.625 35.6477V45.5001H49V35.8424Z" fill="url(#paint7_linear_9351_2419)"></path><path d="M49 35.8424C49 33.5754 49.6291 31.3529 50.8172 29.4222L57.6974 18.2418C58.7921 16.4629 58.7282 14.2043 57.5346 12.4901L53.8993 7.26981C53.7934 7.11774 53.8228 6.90973 53.9666 6.79288C54.1217 6.66689 54.3502 6.69414 54.4713 6.85307L59.1279 12.9648C60.4128 14.6513 60.5572 16.9452 59.4939 18.7795L53.2769 29.5041C52.1949 31.3707 51.625 33.4901 51.625 35.6477V45.5001H49V35.8424Z" fill="url(#paint8_linear_9351_2419)" fill-opacity="0.2"></path><path d="M47.3761 44.5505C47.4148 44.0978 47.7936 43.75 48.2479 43.75H52.3773C52.8316 43.75 53.2104 44.0978 53.2491 44.5505L54.7153 61.705C54.9357 64.2844 52.9015 66.5 50.3126 66.5C47.7237 66.5 45.6895 64.2844 45.9099 61.705L47.3761 44.5505Z" fill="url(#paint9_linear_9351_2419)"></path><path d="M47.3761 44.5505C47.4148 44.0978 47.7936 43.75 48.2479 43.75H52.3773C52.8316 43.75 53.2104 44.0978 53.2491 44.5505L54.7153 61.705C54.9357 64.2844 52.9015 66.5 50.3126 66.5C47.7237 66.5 45.6895 64.2844 45.9099 61.705L47.3761 44.5505Z" fill="url(#paint10_linear_9351_2419)" fill-opacity="0.6"></path><path d="M47.3761 44.5505C47.4148 44.0978 47.7936 43.75 48.2479 43.75H52.3773C52.8316 43.75 53.2104 44.0978 53.2491 44.5505L54.7153 61.705C54.9357 64.2844 52.9015 66.5 50.3126 66.5C47.7237 66.5 45.6895 64.2844 45.9099 61.705L47.3761 44.5505Z" fill="url(#paint11_linear_9351_2419)" fill-opacity="0.5"></path><path d="M22.0011 44.5505C22.0398 44.0978 22.4186 43.75 22.8729 43.75H27.0022C27.4566 43.75 27.8354 44.0978 27.8741 44.5505L29.3403 61.705C29.5607 64.2844 27.5265 66.5 24.9376 66.5C22.3487 66.5 20.3145 64.2844 20.5349 61.705L22.0011 44.5505Z" fill="url(#paint12_linear_9351_2419)"></path><path d="M22.0011 44.5505C22.0398 44.0978 22.4186 43.75 22.8729 43.75H27.0022C27.4566 43.75 27.8354 44.0978 27.8741 44.5505L29.3403 61.705C29.5607 64.2844 27.5265 66.5 24.9376 66.5C22.3487 66.5 20.3145 64.2844 20.5349 61.705L22.0011 44.5505Z" fill="url(#paint13_linear_9351_2419)" fill-opacity="0.6"></path><path d="M22.0011 44.5505C22.0398 44.0978 22.4186 43.75 22.8729 43.75H27.0022C27.4566 43.75 27.8354 44.0978 27.8741 44.5505L29.3403 61.705C29.5607 64.2844 27.5265 66.5 24.9376 66.5C22.3487 66.5 20.3145 64.2844 20.5349 61.705L22.0011 44.5505Z" fill="url(#paint14_linear_9351_2419)" fill-opacity="0.5"></path><defs><filter id="filter0_f_9351_2419" x="8.3584" y="4.35889" width="26.3037" height="26.3037" color-interpolation-filters="sRGB"><feGaussianBlur stdDeviation="2"></feGaussianBlur></filter><filter id="filter1_f_9351_2419" x="4.7373" y="2.3208" width="23.9854" height="23.1858" color-interpolation-filters="sRGB"><feGaussianBlur stdDeviation="2"></feGaussianBlur></filter><linearGradient id="paint0_linear_9351_2419" x1="25.8125" y1="37.1146" x2="23.8709" y2="41.7743" gradientUnits="userSpaceOnUse"><stop stop-color="#B9BED9"></stop><stop offset="1" stop-color="#D3D7E8"></stop></linearGradient><linearGradient id="paint1_linear_9351_2419" x1="24.9375" y1="3.5" x2="24.9375" y2="37.625" gradientUnits="userSpaceOnUse"><stop stop-color="#E9ECF7"></stop><stop offset="1" stop-color="#CDD1E4"></stop></linearGradient><linearGradient id="paint2_linear_9351_2419" x1="24.9375" y1="6.125" x2="24.9375" y2="35" gradientUnits="userSpaceOnUse"><stop stop-color="white"></stop><stop offset="1" stop-color="#E4E6ED"></stop></linearGradient><linearGradient id="paint3_linear_9351_2419" x1="28.082" y1="16.1351" x2="28.251" y2="38.4963" gradientUnits="userSpaceOnUse"><stop stop-color="white" stop-opacity="0"></stop><stop offset="1" stop-color="white"></stop></linearGradient><linearGradient id="paint4_linear_9351_2419" x1="17.5293" y1="14.8765" x2="17.859" y2="28.2501" gradientUnits="userSpaceOnUse"><stop stop-color="white" stop-opacity="0"></stop><stop offset="1" stop-color="white"></stop></linearGradient><linearGradient id="paint5_linear_9351_2419" x1="16.7301" y1="6.3208" x2="16.7301" y2="21.5066" gradientUnits="userSpaceOnUse"><stop stop-color="white"></stop><stop offset="1" stop-color="white"></stop></linearGradient><linearGradient id="paint6_linear_9351_2419" x1="16.7301" y1="6.3208" x2="16.7301" y2="21.5066" gradientUnits="userSpaceOnUse"><stop stop-color="white"></stop><stop offset="1" stop-color="white"></stop></linearGradient><linearGradient id="paint7_linear_9351_2419" x1="58.8942" y1="48.7867" x2="49.0645" y2="10.7395" gradientUnits="userSpaceOnUse"><stop stop-color="#B9BED9"></stop><stop offset="1" stop-color="#D3D7E8"></stop></linearGradient><linearGradient id="paint8_linear_9351_2419" x1="49.9423" y1="29.5367" x2="51.3527" y2="30.4803" gradientUnits="userSpaceOnUse"><stop stop-color="white"></stop><stop offset="1" stop-color="white" stop-opacity="0"></stop></linearGradient><linearGradient id="paint9_linear_9351_2419" x1="45.5001" y1="55.6667" x2="54.2554" y2="56.1032" gradientUnits="userSpaceOnUse"><stop stop-color="#C7C0FA"></stop><stop offset="0.3125" stop-color="#D6D0FB"></stop><stop offset="1" stop-color="#8574F1"></stop></linearGradient><linearGradient id="paint10_linear_9351_2419" x1="49.8751" y1="65.625" x2="49.8751" y2="55.125" gradientUnits="userSpaceOnUse"><stop stop-color="#9080F3"></stop><stop offset="0.648933" stop-color="#9080F3" stop-opacity="0"></stop></linearGradient><linearGradient id="paint11_linear_9351_2419" x1="50.3126" y1="43.75" x2="50.3126" y2="45.0625" gradientUnits="userSpaceOnUse"><stop stop-color="white"></stop><stop offset="1" stop-color="white" stop-opacity="0"></stop></linearGradient><linearGradient id="paint12_linear_9351_2419" x1="20.1251" y1="55.6667" x2="28.8804" y2="56.1032" gradientUnits="userSpaceOnUse"><stop stop-color="#C7C0FA"></stop><stop offset="0.3125" stop-color="#D6D0FB"></stop><stop offset="1" stop-color="#8574F1"></stop></linearGradient><linearGradient id="paint13_linear_9351_2419" x1="24.5001" y1="65.625" x2="24.5001" y2="55.125" gradientUnits="userSpaceOnUse"><stop stop-color="#9080F3"></stop><stop offset="0.648933" stop-color="#9080F3" stop-opacity="0"></stop></linearGradient><linearGradient id="paint14_linear_9351_2419" x1="24.9376" y1="43.75" x2="24.9376" y2="45.0625" gradientUnits="userSpaceOnUse"><stop stop-color="white"></stop><stop offset="1" stop-color="white" stop-opacity="0"></stop></linearGradient></defs></svg>