<svg xmlns="http://www.w3.org/2000/svg" width="71" height="70" viewBox="0 0 71 70" fill="none"><path fill-rule="evenodd" clip-rule="evenodd" d="M42.9398 5.57589C38.5799 7.44383 32.2873 7.44382 27.9274 5.57587C24.385 4.05819 20.4226 3.91745 16.7665 5.50778C9.05103 8.86385 5.59047 18.6714 8.94857 27.5186C8.94932 27.5206 8.94928 27.5227 8.94847 27.5247V27.5247L9.99641 29.8034C13.5388 37.5061 16.209 45.5807 17.9571 53.8768L19.62 61.7686C20.1955 64.0373 22.2291 65.625 24.5594 65.625C27.0622 65.625 29.1948 63.7995 29.5921 61.3169L31.9365 46.6692C32.2126 44.9441 33.6945 43.6755 35.4337 43.6755C37.1729 43.6755 38.6548 44.9441 38.9309 46.6692L41.2752 61.3169C41.6725 63.7995 43.8051 65.625 46.3079 65.625C48.6382 65.625 50.6718 64.0373 51.2473 61.7686L52.9102 53.8768C54.6584 45.5807 57.3285 37.5061 60.8709 29.8034L61.9189 27.5247V27.5247C61.918 27.5227 61.918 27.5206 61.9187 27.5186C65.2768 18.6714 61.8163 8.86385 54.1008 5.50778C50.4447 3.91743 46.4822 4.05818 42.9398 5.57589Z" fill="url(#paint0_linear_9351_2421)"></path><path d="M8.1138 24.7107C10.8811 31.3772 15.3897 38.454 22.4921 44.5599C25.2447 46.9264 28.2229 48.8964 31.3188 50.5285L31.9365 46.6692C32.2126 44.9441 33.6945 43.6755 35.4337 43.6755C37.1729 43.6755 38.6548 44.9441 38.9309 46.6692L40.1428 54.2415C44.2234 55.5789 48.3324 56.4608 52.2509 57.006L52.9102 53.8768C54.6584 45.5807 57.3285 37.5061 60.8709 29.8034L61.9189 27.5247C61.918 27.5227 61.918 27.5206 61.9187 27.5186C65.2768 18.6714 61.8163 8.86385 54.1008 5.50778C50.4447 3.91743 46.4822 4.05818 42.9398 5.57589C38.5798 7.44383 32.2873 7.44382 27.9274 5.57587C24.385 4.05819 20.4226 3.91745 16.7665 5.50778C9.86053 8.51173 6.36347 16.6844 8.1138 24.7107Z" fill="url(#paint1_linear_9351_2421)"></path><path d="M8.1138 24.7107C10.8811 31.3772 15.3897 38.454 22.4921 44.5599C25.2447 46.9264 28.2229 48.8964 31.3188 50.5285L31.9365 46.6692C32.2126 44.9441 33.6945 43.6755 35.4337 43.6755C37.1729 43.6755 38.6548 44.9441 38.9309 46.6692L40.1428 54.2415C44.2234 55.5789 48.3324 56.4608 52.2509 57.006L52.9102 53.8768C54.6584 45.5807 57.3285 37.5061 60.8709 29.8034L61.9189 27.5247C61.918 27.5227 61.918 27.5206 61.9187 27.5186C65.2768 18.6714 61.8163 8.86385 54.1008 5.50778C50.4447 3.91743 46.4822 4.05818 42.9398 5.57589C38.5798 7.44383 32.2873 7.44382 27.9274 5.57587C24.385 4.05819 20.4226 3.91745 16.7665 5.50778C9.86053 8.51173 6.36347 16.6844 8.1138 24.7107Z" fill="url(#paint2_linear_9351_2421)" fill-opacity="0.1"></path><path d="M8.1138 24.7107C10.8811 31.3772 15.3897 38.454 22.4921 44.5599C25.2447 46.9264 28.2229 48.8964 31.3188 50.5285L31.9365 46.6692C32.2126 44.9441 33.6945 43.6755 35.4337 43.6755C37.1729 43.6755 38.6548 44.9441 38.9309 46.6692L40.1428 54.2415C44.2234 55.5789 48.3324 56.4608 52.2509 57.006L52.9102 53.8768C54.6584 45.5807 57.3285 37.5061 60.8709 29.8034L61.9189 27.5247C61.918 27.5227 61.918 27.5206 61.9187 27.5186C65.2768 18.6714 61.8163 8.86385 54.1008 5.50778C50.4447 3.91743 46.4822 4.05818 42.9398 5.57589C38.5798 7.44383 32.2873 7.44382 27.9274 5.57587C24.385 4.05819 20.4226 3.91745 16.7665 5.50778C9.86053 8.51173 6.36347 16.6844 8.1138 24.7107Z" fill="url(#paint3_linear_9351_2421)" fill-opacity="0.1"></path><path d="M27.0004 47.969C25.9825 47.2929 24.9847 46.5735 24.0112 45.8085C23.5412 41.7652 22.4849 37.8029 20.8684 34.0483L17.0551 25.1917C14.4711 19.1903 19.8986 12.834 26.2308 14.4459L30.4751 15.5263C33.3079 16.2473 36.2761 16.2473 39.1089 15.5263L43.8054 14.3308C50.0544 12.7401 55.4619 18.9233 53.0527 24.9046L49.2084 34.449C47.1995 39.4367 46.167 44.7637 46.167 50.1407V55.9004C45.5211 55.7543 44.8732 55.5981 44.2241 55.4313L43.1464 44.9241C42.8489 42.0237 41.0539 39.491 38.4157 38.2495C36.3977 37.2998 34.0613 37.2998 32.0434 38.2495C29.4052 39.491 27.6101 42.0237 27.3127 44.9241L27.0004 47.969Z" fill="url(#paint4_radial_9351_2421)"></path><defs><linearGradient id="paint0_linear_9351_2421" x1="15.017" y1="4.375" x2="48.5003" y2="63.175" gradientUnits="userSpaceOnUse"><stop stop-color="#F0F6F9"></stop><stop offset="1" stop-color="#CDDFF2"></stop></linearGradient><linearGradient id="paint1_linear_9351_2421" x1="54.0418" y1="2.625" x2="34.7918" y2="42.4375" gradientUnits="userSpaceOnUse"><stop stop-color="#E0EDF6"></stop><stop offset="1" stop-color="#A5CAE8"></stop></linearGradient><linearGradient id="paint2_linear_9351_2421" x1="13.3543" y1="42.4375" x2="19.0418" y2="35" gradientUnits="userSpaceOnUse"><stop stop-color="#043A70"></stop><stop offset="1" stop-color="#065099" stop-opacity="0"></stop></linearGradient><linearGradient id="paint3_linear_9351_2421" x1="52.2918" y1="56.875" x2="53.6043" y2="50.75" gradientUnits="userSpaceOnUse"><stop stop-color="#002C57"></stop><stop offset="1" stop-color="#065099" stop-opacity="0"></stop></linearGradient><radialGradient id="paint4_radial_9351_2421" cx="0" cy="0" r="1" gradientUnits="userSpaceOnUse" gradientTransform="translate(35.0173 38.0291) rotate(-70.7665) scale(25.5054 22.5767)"><stop stop-color="#F8BAB9"></stop><stop offset="1" stop-color="#C9706F"></stop></radialGradient></defs></svg>