<svg xmlns="http://www.w3.org/2000/svg" width="70" height="70" viewBox="0 0 70 70" fill="none"><path d="M12.25 31.5002C17.9829 34.5752 24.3875 36.1844 30.893 36.1844H38.58C45.19 36.1844 51.6859 34.4611 57.4267 31.1846L52.6471 60.3752H15.1108L12.25 31.5002Z" fill="url(#paint0_linear_9351_2420)"></path><path d="M6.43207 35.0071C6.26627 32.6381 8.14336 30.625 10.5182 30.625C12.3706 30.625 13.9924 31.8682 14.4737 33.657L20.0299 54.3106C20.7292 56.9097 22.9572 58.8097 25.6342 59.0896C28.0467 59.3418 30.3991 58.2305 31.7365 56.2068L31.7849 56.1337C32.2225 55.4714 32.4904 54.7116 32.5649 53.9213L33.2612 46.529C33.3516 45.5696 34.6998 45.4396 34.9718 46.3641L37.3237 54.3583C37.4733 54.8666 37.6978 55.3497 37.9899 55.7917L38.2642 56.2068C39.6016 58.2305 41.954 59.3418 44.3665 59.0896C47.0435 58.8097 49.2716 56.9098 49.9708 54.3106L55.5271 33.657C56.0083 31.8682 57.6302 30.625 59.4826 30.625C61.8574 30.625 63.7345 32.6381 63.5687 35.0071L62.0481 56.7331C61.6631 62.2341 57.0882 66.5 51.5737 66.5H18.427C12.9125 66.5 8.33768 62.2341 7.95266 56.7331L6.43207 35.0071Z" fill="#F7A6A5"></path><path fill-rule="evenodd" clip-rule="evenodd" d="M34.6774 6.01477C31.4964 8.02744 26.5637 8.82831 22.9093 7.92545C19.9401 7.19188 16.8161 7.58635 14.1516 9.29279C8.52872 12.8939 7.05869 20.9883 10.8121 27.4654C10.8129 27.4668 10.8132 27.4685 10.8128 27.4701V27.4701L11.923 29.1151C15.6759 34.6755 18.7921 40.6372 21.2137 46.8891L23.5172 52.8363C24.2558 54.5336 26.0511 55.5139 27.8779 55.2173C29.8398 54.8987 31.2802 53.2027 31.2771 51.2147L31.2588 39.485C31.2567 38.1035 32.2576 36.925 33.621 36.7036C34.9843 36.4822 36.3067 37.2836 36.7418 38.5948L40.4354 49.7277C41.0615 51.6146 42.9645 52.7678 44.9264 52.4493C46.7531 52.1527 48.1461 50.6548 48.3098 48.811L48.6134 42.4405C48.9325 35.7436 50.0025 29.1022 51.8034 22.6401L52.3362 20.7284V20.7284C52.3353 20.727 52.335 20.7253 52.3353 20.7236C53.8467 13.3917 49.8913 6.17825 43.4179 4.54111C40.3503 3.76531 37.262 4.37947 34.6774 6.01477Z" fill="url(#paint1_linear_9351_2420)"></path><defs><linearGradient id="paint0_linear_9351_2420" x1="37.625" y1="31.5002" x2="37.2137" y2="59.0631" gradientUnits="userSpaceOnUse"><stop stop-color="#C15D5D"></stop><stop offset="0.828884" stop-color="#D7908E"></stop></linearGradient><linearGradient id="paint1_linear_9351_2420" x1="12.6366" y1="8.63143" x2="46.1747" y2="50.3867" gradientUnits="userSpaceOnUse"><stop stop-color="#F0F6F9"></stop><stop offset="1" stop-color="#CDDFF2"></stop></linearGradient></defs></svg>