<svg xmlns="http://www.w3.org/2000/svg" width="71" height="70" viewBox="0 0 71 70" fill="none"><path fill-rule="evenodd" clip-rule="evenodd" d="M42.6058 5.57589C38.2459 7.44383 31.9534 7.44382 27.5934 5.57587C24.051 4.05819 20.0887 3.91745 16.4326 5.50778C8.71553 8.8645 5.25513 18.6752 8.61656 27.5238L8.61448 27.5247L14.1177 41.3937L19.286 61.7686C19.8615 64.0373 21.8951 65.625 24.2255 65.625C26.7283 65.625 28.8608 63.7995 29.2581 61.3169L31.6025 46.6692C31.8786 44.9441 33.3605 43.6755 35.0997 43.6755C36.8389 43.6755 38.3208 44.9441 38.5969 46.6692L40.9412 61.3169C41.3386 63.7995 43.4711 65.625 45.9739 65.625C48.3042 65.625 50.3378 64.0373 50.9133 61.7686L56.0817 41.3937L61.5849 27.5247L61.5828 27.5238C64.9442 18.6752 61.4838 8.8645 53.7668 5.50778C50.1107 3.91743 46.1483 4.05818 42.6058 5.57589Z" fill="url(#paint0_linear_9351_2423)"></path><mask id="mask0_9351_2423" style="mask-type:alpha" maskUnits="userSpaceOnUse" x="8" y="10" width="55" height="56"><path fill-rule="evenodd" clip-rule="evenodd" d="M8.7207 27.7938L14.1171 41.3937L19.2854 61.7686C19.8609 64.0372 21.8945 65.625 24.2249 65.625C26.7277 65.625 28.8602 63.7995 29.2575 61.3169L31.6019 46.6692C31.878 44.9441 33.3599 43.6755 35.0991 43.6755C36.8383 43.6755 38.3202 44.9441 38.5963 46.6692L40.9406 61.3169C41.338 63.7995 43.4705 65.625 45.9733 65.625C48.3036 65.625 50.3372 64.0373 50.9127 61.7686L56.081 41.3937L61.5843 27.5247L61.5822 27.5238C63.7928 21.7045 63.053 15.4691 60.0924 10.927L8.7207 27.7938Z" fill="url(#paint1_linear_9351_2423)"></path></mask><g mask="url(#mask0_9351_2423)"><rect x="0.333008" y="10.927" width="67.8343" height="59.073" fill="url(#paint2_linear_9351_2423)"></rect><g filter="url(#filter0_f_9351_2423)"><path d="M43.2442 34.6396C46.3855 35.7334 49.8255 34.1203 50.9935 31.0059L54.9035 20.579L59.035 11.375L11.0986 27.103C15.8443 26.3546 20.7014 26.7897 25.2386 28.3697L43.2442 34.6396Z" fill="url(#paint3_linear_9351_2423)" fill-opacity="0.17"></path></g><g filter="url(#filter1_f_9351_2423)"><path d="M32.6966 31.3036C43.5848 35.3503 55.3634 28.0303 56.5558 16.4758C56.632 15.738 56.8781 15.0278 57.2747 14.4011L60.2028 9.77466L59.035 11.3749L11.0986 27.1029L11.5302 27.0348C15.9866 26.3321 20.5488 26.7886 24.7776 28.3603L32.6966 31.3036Z" fill="url(#paint4_linear_9351_2423)" fill-opacity="0.17"></path></g><g filter="url(#filter2_f_9351_2423)"><path d="M42.0643 34.7852C48.1396 37.0432 54.6844 32.8478 55.1692 26.3846C55.3848 23.5114 56.0259 20.6862 57.0717 18.0015L59.0086 13.0291C59.5267 11.6992 58.0992 10.4489 56.8491 11.1377L11.0986 27.1029L14.8181 26.5164C17.1189 26.1536 19.4743 26.3892 21.6576 27.2007L42.0643 34.7852Z" fill="url(#paint5_linear_9351_2423)" fill-opacity="0.17"></path></g><path d="M52.4251 23.5221C50.3788 28.1467 45.3267 30.6557 40.4054 29.4913L30.3046 27.1013C23.2564 25.7498 15.9979 25.9547 9.03711 27.7016L60.1367 10.9102C58.5492 11.4318 57.2572 12.6018 56.581 14.1299L52.4251 23.5221Z" fill="url(#paint6_linear_9351_2423)"></path></g><defs><filter id="filter0_f_9351_2423" x="10.0986" y="10.375" width="49.9365" height="25.6067" color-interpolation-filters="sRGB"><feGaussianBlur stdDeviation="0.5"></feGaussianBlur></filter><filter id="filter1_f_9351_2423" x="6.09863" y="4.77466" width="59.1045" height="32.6536" color-interpolation-filters="sRGB"><feGaussianBlur stdDeviation="2.5"></feGaussianBlur></filter><filter id="filter2_f_9351_2423" x="6.09863" y="5.94214" width="58.0195" height="34.4602" color-interpolation-filters="sRGB"><feGaussianBlur stdDeviation="2.5"></feGaussianBlur></filter><linearGradient id="paint0_linear_9351_2423" x1="7.33259" y1="-10.9375" x2="35.3326" y2="41.5625" gradientUnits="userSpaceOnUse"><stop stop-color="#F6F1E8"></stop><stop offset="1" stop-color="#D8B682"></stop></linearGradient><linearGradient id="paint1_linear_9351_2423" x1="14.8067" y1="4.37498" x2="48.0028" y2="63.6513" gradientUnits="userSpaceOnUse"><stop stop-color="#F1F7FA"></stop><stop offset="1" stop-color="#CFE0F3"></stop></linearGradient><linearGradient id="paint2_linear_9351_2423" x1="23.5438" y1="20.4413" x2="44.0141" y2="64.4615" gradientUnits="userSpaceOnUse"><stop stop-color="#F0F6FA"></stop><stop offset="1" stop-color="#CEE0F3"></stop></linearGradient><linearGradient id="paint3_linear_9351_2423" x1="42.9976" y1="18.295" x2="47.2231" y2="38.718" gradientUnits="userSpaceOnUse"><stop stop-color="#134980"></stop><stop offset="1" stop-color="#236BB4" stop-opacity="0"></stop></linearGradient><linearGradient id="paint4_linear_9351_2423" x1="42.9976" y1="18.2949" x2="47.2231" y2="38.7179" gradientUnits="userSpaceOnUse"><stop stop-color="#134980"></stop><stop offset="1" stop-color="#236BB4" stop-opacity="0"></stop></linearGradient><linearGradient id="paint5_linear_9351_2423" x1="42.9976" y1="18.2949" x2="47.2231" y2="38.7179" gradientUnits="userSpaceOnUse"><stop stop-color="#134980"></stop><stop offset="1" stop-color="#236BB4" stop-opacity="0"></stop></linearGradient><linearGradient id="paint6_linear_9351_2423" x1="40.1542" y1="29.8202" x2="36.1613" y2="18.7807" gradientUnits="userSpaceOnUse"><stop stop-color="#F4F8FB"></stop><stop offset="0.651561" stop-color="white"></stop><stop offset="1" stop-color="#F9F6F2"></stop></linearGradient></defs></svg>