<svg xmlns="http://www.w3.org/2000/svg" width="295" height="38" viewBox="0 0 295 38" fill="none"><path d="M16.748 17.5034C16.851 17.4688 16.9529 17.4326 17.0537 17.3948C16.8887 17.486 16.3353 17.69 15.3306 17.8672C15.7847 17.7837 16.2213 17.6743 16.6404 17.5389C16.6764 17.5272 16.7123 17.5154 16.748 17.5034Z" fill="#F7E4E7"></path><path d="M23.4738 33.2934C23.4794 33.2851 23.4851 33.2768 23.4907 33.2684C23.4477 33.2635 23.4048 33.2585 23.3619 33.2536C22.7892 33.188 22.2262 33.1235 21.6148 32.9158C22.0714 33.0833 22.6891 33.2336 23.4738 33.2934Z" fill="#F7E4E7"></path><path d="M24.0114 33.3189C23.8612 33.3076 23.684 33.2908 23.4907 33.2684L23.4738 33.2934C23.645 33.3065 23.8242 33.3152 24.0114 33.3189Z" fill="#F7E4E7"></path><path fill-rule="evenodd" clip-rule="evenodd" d="M14.2701 5.25864C13.4396 6.7053 13.0244 8.25383 13.0244 9.90425C13.0244 11.9627 13.5579 13.7897 14.625 15.3855C15.8676 15.2743 17.0267 14.6621 17.451 14.3698C16.6113 13.1607 16.0747 11.7107 16.0747 9.90425C16.0747 8.27634 16.5821 6.83523 17.3715 5.69234C16.4395 5.05596 15.0587 4.89938 14.4847 4.90064C14.4103 5.01802 14.3387 5.13736 14.2701 5.25864Z" fill="#F7E4E7"></path><path d="M20.7132 32.4266C20.7897 32.5279 20.9785 32.653 21.0855 32.703L21.098 32.6872C20.9176 32.5905 20.7898 32.499 20.7132 32.4266Z" fill="#F7E4E7"></path><path d="M21.6148 32.9158C21.4104 32.8408 21.2383 32.7624 21.098 32.6872L21.0855 32.703C21.2667 32.7874 21.4426 32.8573 21.6148 32.9158Z" fill="#F7E4E7"></path><path d="M37.5366 0.463415V37.5366H24.989C24.085 37.5366 23.2365 37.4931 22.4432 37.4061L22.3955 37.4008C22.3584 37.3967 22.3215 37.3924 22.2846 37.3881L22.265 37.3857C22.1429 37.3712 22.0222 37.3556 21.9029 37.339C20.9899 37.2116 20.1552 37.0228 19.3987 36.7725L19.3304 36.7488L19.3229 36.7462C19.2138 36.708 19.1061 36.6688 19 36.6287C18.1476 36.3067 17.3915 35.9245 16.7319 35.4821L16.7168 35.4719C16.6278 35.412 16.5406 35.351 16.4551 35.2888C16.1712 35.0824 15.9068 34.8638 15.6618 34.6331C15.3914 34.3727 15.1424 34.1008 14.9145 33.8175L14.9024 33.8024C14.8491 33.7357 14.7969 33.6685 14.7459 33.6005C14.2532 32.9444 13.8699 32.2291 13.5958 31.4545C13.1502 30.2524 12.9274 28.9789 12.9274 27.6341C12.9274 26.3912 13.2515 25.1381 13.8996 23.8748C14.1735 23.3411 14.498 22.8382 14.8731 22.3663C14.6944 22.3466 14.5101 22.332 14.3213 22.3237C14.0062 22.7473 13.7281 23.1939 13.4873 23.6633C12.8104 24.9826 12.464 26.3078 12.464 27.6341C12.464 29.03 12.6953 30.3571 13.1601 31.6124C13.4498 32.43 13.8551 33.1859 14.3753 33.8788C14.6627 34.2615 14.9845 34.6242 15.3403 34.9668L15.3441 34.9704C15.6039 35.2152 15.8835 35.4462 16.1826 35.6636C16.9434 36.2169 17.8296 36.682 18.8362 37.0622C18.9713 37.1132 19.1085 37.1627 19.2479 37.2107L19.2531 37.2125C20.0399 37.4728 20.9024 37.6673 21.8389 37.7979C22.8081 37.9331 23.8585 38 24.989 38H38V0H24.9282C24.2233 0 23.5494 0.0334836 22.9068 0.100911L21.9451 0.231126C22.1078 0.334671 22.2867 0.467675 22.4739 0.619653C22.6321 0.598147 22.7925 0.578861 22.9552 0.561795C23.5802 0.496208 24.2379 0.463415 24.9282 0.463415H37.5366Z" fill="#F7E4E7"></path><path d="M37.5366 37.5366V0.463415H24.9282C24.2379 0.463415 23.5802 0.496208 22.9552 0.561795C22.7925 0.578861 22.6321 0.598147 22.4739 0.619653C23.2909 1.2832 24.2639 2.30848 24.7206 2.82309C24.7894 2.8222 24.8586 2.82175 24.9282 2.82175H34.8249V17.6044H24.989L24.9301 17.6043C24.8232 17.6039 24.7171 17.6022 24.6119 17.5994C24.5788 17.5985 24.5457 17.5975 24.5127 17.5964L24.0673 18.0383L23.2305 18.8686L24.4899 19.9369L24.4856 19.9369L25.0244 20.3956H34.8249V35.1171H24.9282C24.6475 35.1171 24.3738 35.1122 24.1071 35.1024C23.2006 35.0689 22.3766 34.9789 21.6336 34.834C20.6953 34.651 19.8905 34.3814 19.213 34.0308C18.6519 33.7405 18.1779 33.3947 17.7862 32.9955C17.7235 32.9306 17.6623 32.8652 17.6025 32.799C16.3381 31.4 15.6999 29.6783 15.6999 27.6035C15.6999 26.0931 16.075 24.8099 16.809 23.7336C16.9744 23.491 17.1589 23.2578 17.3627 23.0339L16.9086 22.8473C16.9102 22.8454 16.9118 22.8435 16.9135 22.8416C16.4393 22.6649 15.7192 22.4595 14.8731 22.3663C14.498 22.8382 14.1735 23.3411 13.8996 23.8748C13.2515 25.1381 12.9274 26.3912 12.9274 27.6341C12.9274 28.9789 13.1502 30.2524 13.5958 31.4545C13.8699 32.2291 14.2532 32.9444 14.7459 33.6005C14.7969 33.6685 14.8491 33.7357 14.9024 33.8024L14.9145 33.8175C15.1424 34.1008 15.3914 34.3727 15.6618 34.6331C15.9068 34.8638 16.1712 35.0824 16.4551 35.2888C16.5406 35.351 16.6278 35.412 16.7168 35.4719L16.7319 35.4821C17.3915 35.9245 18.1476 36.3067 19 36.6287C19.1061 36.6688 19.2138 36.708 19.3229 36.7462L19.3304 36.7488L19.3987 36.7725C20.1552 37.0228 20.9899 37.2116 21.9029 37.339C22.0222 37.3556 22.1429 37.3712 22.265 37.3857L22.2846 37.3881C22.3215 37.3924 22.3584 37.3967 22.3955 37.4008L22.4432 37.4061C23.2365 37.4931 24.085 37.5366 24.989 37.5366H37.5366Z" fill="#F7E4E7"></path><path d="M21.3542 2.54418C21.3854 2.56737 21.4203 2.59402 21.4583 2.62389C20.7901 2.07119 20.0766 1.63635 19.3672 1.29442L21.3542 2.54418Z" fill="#F7E4E7"></path><path fill-rule="evenodd" clip-rule="evenodd" d="M20.2835 17.816L20.2597 17.8295L20.2682 17.8247L20.2835 17.816ZM15.8536 37.8382C15.6169 37.719 15.3885 37.5862 15.17 37.4447C14.2645 36.858 13.5288 36.1209 13.0736 35.5805C12.9213 35.3997 12.8003 35.2409 12.7149 35.1171H3.17508V20.3956H13.0718C13.3633 20.3956 13.6478 20.4018 13.9254 20.4141C14.1024 20.422 14.2765 20.4324 14.4479 20.4453C15.2725 20.5072 16.0306 20.6268 16.7235 20.8024L16.758 20.8112L16.7596 20.8116L16.7978 20.8215L16.7993 20.8219L16.8267 20.8291L16.8282 20.8295L16.8657 20.8395C16.988 20.8723 17.1083 20.9069 17.2264 20.9432C17.4395 21.0088 17.6458 21.0801 17.8453 21.1571C18.1752 21.2844 18.4866 21.4273 18.78 21.5856C19.2038 21.8141 19.5904 22.075 19.9408 22.3678L19.9503 22.3757L19.9515 22.3767L19.9729 22.3947C20.1301 22.5279 20.279 22.6649 20.4197 22.8057C20.7117 23.0981 20.9685 23.4074 21.191 23.7336C21.925 24.8099 22.3002 26.0931 22.3002 27.6035C22.3002 29.4978 21.7681 31.0978 20.7132 32.4266C20.7898 32.499 20.9176 32.5905 21.098 32.6872C21.2383 32.7624 21.4104 32.8408 21.6148 32.9158C22.2262 33.1235 22.7892 33.188 23.3619 33.2536L23.4907 33.2684C23.684 33.2908 23.8612 33.3076 24.0114 33.3189C24.3502 32.7839 24.6265 32.2148 24.8399 31.6123C25.3047 30.3571 25.536 29.0299 25.536 27.6341C25.536 26.3078 25.1896 24.9826 24.5127 23.6633C24.2161 23.0853 23.8631 22.5418 23.4539 22.0332C23.3551 21.9104 23.2531 21.7897 23.1479 21.6711C22.7637 21.238 22.3368 20.8328 21.8678 20.4555C21.6687 20.2888 21.4635 20.1302 21.2721 20.0067C21.0283 19.8373 20.7762 19.6819 20.5158 19.5404C20.0811 19.3041 19.624 19.1071 19.1452 18.9491C19.1035 18.9354 19.0617 18.9219 19.0197 18.9088C19.069 18.8906 19.118 18.8721 19.1667 18.8533C19.6109 18.6821 20.0297 18.4877 20.4225 18.2696L20.4244 18.2685L20.497 18.2277C20.7467 18.0859 20.9857 17.9344 21.2138 17.7731C21.8627 17.3143 22.4213 16.7777 22.8872 16.1634C22.9322 16.104 22.9763 16.0439 23.0196 15.9832C24.254 14.249 24.8676 12.2485 24.8676 9.99914C24.8676 8.26733 24.431 6.63978 23.5611 5.12405C23.3834 4.81016 23.1871 4.50855 22.9724 4.21932C22.5251 3.53818 21.8372 2.92156 21.4583 2.62389C21.4203 2.59402 21.3854 2.56737 21.3542 2.54418L19.3672 1.29442C17.7111 0.496099 16.0773 0.20417 15.0932 0.100911C14.4506 0.0334836 13.7767 0 13.0718 0H0V38H13.011C14.023 38 14.9708 37.9464 15.8536 37.8382ZM22.8012 21.9786C22.7439 21.9139 22.6855 21.8499 22.626 21.7865L22.6124 21.7719C22.2952 21.4348 21.949 21.1154 21.5737 20.8137C22.0548 21.2168 22.5536 21.7154 22.8012 21.9786ZM14.7695 17.9558C14.9591 17.9306 15.1467 17.9009 15.3306 17.8672C16.3353 17.69 16.8887 17.486 17.0537 17.3948C16.9529 17.4326 16.851 17.4688 16.748 17.5034L16.6894 17.5229L16.6404 17.5389C16.2213 17.6743 15.7847 17.7837 15.3306 17.8672C15.2431 17.8826 15.1512 17.898 15.0568 17.9129C14.9643 17.9275 14.8685 17.9419 14.7695 17.9558ZM18.9084 15.8718C19.0139 15.794 19.1176 15.7136 19.2196 15.6306C19.5483 15.3622 19.8422 15.0706 20.102 14.7559C20.2051 14.631 20.303 14.5023 20.3956 14.3698C20.416 14.3407 20.4361 14.3114 20.4559 14.282C21.2301 13.1321 21.6318 11.6833 21.6318 9.90745C21.6318 9.33412 21.5832 8.7983 21.4877 8.29897L21.484 8.27927L21.479 8.25418C21.2657 7.17499 20.8303 6.26058 20.1778 5.49913L20.1726 5.4931L20.1677 5.4869C19.9702 5.23982 19.4009 4.64154 18.7725 4.28734L18.7602 4.28045L18.7484 4.27284C18.1581 3.89125 17.5048 3.58385 16.7868 3.35184C16.7276 3.33271 16.6669 3.31224 16.6037 3.29095C16.1627 3.14233 15.603 2.95369 14.6181 2.90109L14.606 2.90045L14.5939 2.89916C14.1088 2.84768 13.6015 2.82175 13.0718 2.82175H3.17508V17.6044H13.011L13.0699 17.6043C13.3519 17.6031 13.6278 17.5938 13.8976 17.5762C14.1737 17.5582 14.4433 17.5317 14.7067 17.4967C14.9003 17.4694 15.0807 17.4406 15.2474 17.4113C15.6824 17.3313 16.0991 17.2268 16.4979 17.0979C16.5322 17.0868 16.5663 17.0756 16.6003 17.0642C16.6983 17.0312 16.7952 16.9968 16.891 16.9608C16.9421 16.9417 16.9928 16.9221 17.0433 16.9022C17.1918 16.8433 17.3377 16.7808 17.4809 16.7146C17.9232 16.5103 18.3411 16.2708 18.7349 15.9962C18.7933 15.9555 18.8511 15.914 18.9084 15.8718Z" fill="#F7E4E7"></path><path d="M64.6472 6.8857H62.9675V18.4916H65.5049C67.8278 18.4916 70.0435 17.8604 70.0435 12.4958C70.0435 7.37658 67.0773 6.8857 64.6472 6.8857ZM75.0111 24.9081C75.0111 30.9741 70.5439 31.1844 64.3613 31.1844H58V30.8689C59.5367 30.8689 60.0728 29.6767 60.0728 27.2924V10.2868C60.0728 8.1129 59.5725 6.81557 58 6.81557V6.5H64.3613C69.3288 6.5 73.3314 7.02595 73.3314 12.5309C73.3314 18.0708 68.2924 18.5266 67.5777 18.5266C69.9006 18.5266 75.0111 19.0175 75.0111 24.9081ZM71.6517 24.7679C71.6517 19.0175 68.2924 18.8773 65.5049 18.8773H62.9675V30.7987H64.6472C68.2209 30.7987 71.6517 30.8689 71.6517 24.7679Z" fill="white"></path><path d="M94.2582 24.0666H94.6513V31.1844H77.7832V30.7987C79.2842 30.7987 79.6058 29.817 79.6058 27.4327V9.69074C79.6058 7.51683 79.3557 6.8857 77.7832 6.8857V6.5H94.1867V12.636H93.7936C93.6149 6.95582 89.1835 6.8857 84.8235 6.8857H82.5363V18.5266H85.3953C86.8248 18.5266 89.8268 18.4916 89.934 15.0554H90.3271V22.4187H89.934C89.8268 18.9474 86.7533 18.9123 85.3953 18.9123H82.5363V30.7987H84.3589C89.1478 30.7987 93.9008 31.0442 94.2582 24.0666Z" fill="white"></path><path d="M115.276 23.5757H115.634V31.1844H99.0515V30.7987C100.588 30.7987 100.731 29.5715 100.731 27.1872V9.76087C100.731 7.62202 100.302 6.85063 98.7656 6.85063V6.5H105.842V6.85063C104.305 6.85063 103.554 7.4467 103.554 9.97125V30.7987H104.841C110.595 30.8338 114.955 30.7987 115.276 23.5757Z" fill="white"></path><path d="M134.639 23.5757H134.996V31.1844H118.414V30.7987C119.951 30.7987 120.094 29.5715 120.094 27.1872V9.76087C120.094 7.62202 119.665 6.85063 118.128 6.85063V6.5H125.204V6.85063C123.667 6.85063 122.917 7.4467 122.917 9.97125V30.7987H124.203C129.957 30.8338 134.317 30.7987 134.639 23.5757Z" fill="white"></path><path d="M142.315 23.0147H151.714L146.854 10.7076L142.315 23.0147ZM159.648 30.7987V31.1844H152.536V30.7987C154.037 30.7987 154.43 29.6767 153.144 26.7314L151.857 23.4004H142.208C140.707 27.608 139.492 30.8689 144.138 30.7987V31.1844H136.561V30.7987C138.134 30.7987 139.027 30.413 141.922 22.4537L147.819 6.5H148.069C150.249 11.6543 156.753 27.7833 156.753 27.7833C157.897 30.5884 158.611 30.7286 159.648 30.7987Z" fill="white"></path><path d="M176.767 6.8857H175.087V18.4916H177.624C179.947 18.4916 182.163 17.8604 182.163 12.4958C182.163 7.37658 179.197 6.8857 176.767 6.8857ZM187.13 24.9081C187.13 30.9741 182.663 31.1844 176.481 31.1844H170.119V30.8689C171.656 30.8689 172.192 29.6767 172.192 27.2924V10.2868C172.192 8.1129 171.692 6.81557 170.119 6.81557V6.5H176.481C181.448 6.5 185.451 7.02595 185.451 12.5309C185.451 18.0708 180.412 18.5266 179.697 18.5266C182.02 18.5266 187.13 19.0175 187.13 24.9081ZM183.771 24.7679C183.771 19.0175 180.412 18.8773 177.624 18.8773H175.087V30.7987H176.767C180.34 30.7987 183.771 30.8689 183.771 24.7679Z" fill="white"></path><path d="M206.378 24.0666H206.771V31.1844H189.903V30.7987C191.404 30.7987 191.725 29.817 191.725 27.4327V9.69074C191.725 7.51683 191.475 6.8857 189.903 6.8857V6.5H206.306V12.636H205.913C205.734 6.95582 201.303 6.8857 196.943 6.8857H194.656V18.5266H197.515C198.944 18.5266 201.946 18.4916 202.053 15.0554H202.447V22.4187H202.053C201.946 18.9474 198.873 18.9123 197.515 18.9123H194.656V30.7987H196.478C201.267 30.7987 206.02 31.0442 206.378 24.0666Z" fill="white"></path><path d="M214.816 23.0147H224.215L219.355 10.7076L214.816 23.0147ZM232.149 30.7987V31.1844H225.037V30.7987C226.538 30.7987 226.931 29.6767 225.645 26.7314L224.358 23.4004H214.709C213.208 27.608 211.993 30.8689 216.639 30.7987V31.1844H209.062V30.7987C210.635 30.7987 211.528 30.413 214.423 22.4537L220.32 6.5H220.57C222.75 11.6543 229.254 27.7833 229.254 27.7833C230.398 30.5884 231.112 30.7286 232.149 30.7987Z" fill="white"></path><path d="M241.696 31.5C237.193 31.5 233.691 28.5898 233.691 22.8745V9.90112C233.691 7.41164 232.904 6.8857 231.332 6.8857V6.5H239.015V6.8857C237.479 6.8857 236.407 7.09607 236.407 9.97125V23.19C236.407 27.6781 239.051 30.2027 243.197 30.2027C247.307 30.2027 249.915 27.5379 249.915 22.9797V13.8983C249.915 8.91935 249.772 6.8857 245.984 6.8857V6.5H254.49V6.8857C250.166 6.8857 250.309 8.91935 250.309 13.8983V22.9797C250.344 28.6599 246.735 31.5 241.696 31.5Z" fill="white"></path><path d="M250.237 6.5H271.486V12.2504H271.093C271.022 6.8857 265.876 6.85063 265.125 6.85063H262.302V28.2041C262.302 30.4832 263.16 30.7987 264.661 30.7987V31.1844H257.227V30.7987C258.728 30.7987 259.586 30.4832 259.586 28.2041V6.85063H256.763C255.119 6.85063 250.382 6.86967 250.31 12.2343L250.006 12.3036L250.237 6.5Z" fill="white"></path><path d="M286.566 6.5H295V6.8857C293.142 6.8857 292.105 6.85063 288.174 14.5645L285.208 20.4201V27.3976C285.208 30.4832 286.28 30.7987 287.781 30.7987V31.1844H280.312V30.7987C281.813 30.7987 282.813 30.4832 282.813 27.3976V20.8759C277.56 11.7595 276.202 9.58555 276.202 9.58555C274.594 6.8857 273.808 6.95582 272.521 6.85063V6.5H280.562V6.85063C279.454 6.85063 277.31 6.78051 279.74 10.8128L285.101 19.859L287.995 14.0736C289.818 10.4621 291.248 6.8857 286.566 6.8857V6.5Z" fill="white"></path></svg>