<svg xmlns="http://www.w3.org/2000/svg" xmlns:xlink="http://www.w3.org/1999/xlink" id="Camada_1" x="0px" y="0px" viewBox="0 0 253.5 38" style="enable-background:new 0 0 253.5 38;" xml:space="preserve"><style type="text/css">	.st0{fill:#8D4D5E;}	.st1{enable-background:new    ;}</style><g>	<path class="st0" d="M1.4,22.6c0.2-0.7,0.6-1.3,1.1-1.8c0.2-0.2,0.4-0.5,0.4-0.9c0-0.1-0.1-0.3-0.1-0.4c-0.1-0.1-0.2-0.2-0.2-0.3  c-0.4-0.5-0.4-0.8,0.2-1.2c0.2-0.1,0.5-0.2,0.7-0.4C3.3,17.4,3.2,17.2,3,17c-0.1-0.1-0.1-0.3,0-0.4c0.3-0.5,0.6-0.9,0.9-1.4  c0.3-0.5,0.3-1-0.2-1.4c-0.3-0.4-0.5-0.8-0.8-1.2C2.6,12.3,2.6,12.1,3,12c0.4-0.2,0.8-0.3,1.1-0.4c0.7-0.2,1.3-0.5,1.9-1  c0.4-0.4,0.8-0.9,1.2-1.4C7.4,9,7.5,8.7,7.7,8.5s0.2-0.4,0.1-0.7c-0.2-0.5-0.5-1-0.7-1.6C7,5.9,6.9,5.7,6.9,5.6c0,0,0,0,0.1,0  c0.4,0.6,0.8,1.2,1.3,1.8c1.1-2.7,2.4-5.2,4.5-7.2c-0.1,0.3-0.1,0.5-0.2,0.8c-0.2,1-0.4,2-0.6,3c-0.1,0.5-0.1,1-0.2,1.6  c-0.1,0.9-0.1,1.9-0.1,2.8c0,1.5,0.2,2.9,0.7,4.3c0.3,1.1,0.9,2.1,1.5,3c0.8,1.3,1.7,2.5,2.5,3.9c1.2,2.1,2.2,4.3,2.6,6.7  c0.1,0.6,0.2,1.3,0.2,2c0,0.4,0.1,0.9,0,1.3c-0.1,2.4-0.8,4.5-2.4,6.2c-0.4,0.5-0.8,0.9-1.3,1.2c-0.5,0.4-1.1,0.6-1.6,0.9  c-0.1,0.1-0.3-0.1-0.3-0.3c0.1-0.3,0.1-0.7,0.2-1c0.3-1.1,0.6-2.2,0.5-3.4c-0.1-1.7-0.6-3.2-1.6-4.5s-2.4-2.1-4-2.6  C6.9,25.5,5,25,3.2,24.4c-0.5-0.1-0.9-0.3-1.2-0.7c-0.2-0.2-0.3-0.5-0.5-0.7C1.4,22.8,1.4,22.7,1.4,22.6z"></path>	<path class="st0" d="M16.8,37.5c0.2-0.2,0.5-0.3,0.7-0.5c1.1-0.8,2.2-1.5,3.2-2.4c1.4-1.3,2.5-2.7,3-4.5c0.2-0.9,0.3-1.8,0.1-2.7  c-0.2-1.4-0.8-2.7-1.4-3.9c-1.1-2-2.3-3.9-3.4-5.9c-1.1-1.9-2.1-3.9-2.8-6c-0.3-0.9-0.5-1.8-0.6-2.7c-0.2-1-0.2-1.9-0.2-2.9  c0-0.5,0.1-1.1,0.2-1.6c0.1-0.3,0.1-0.7,0.3-1C16,3.7,16,4,16,4.3c0,0.4,0,0.9,0.1,1.3c0.1,1.1,0.3,2.1,0.6,3.2  c0.4,1.3,0.9,2.6,1.6,3.7c1.5,2.5,3.1,5.1,4.6,7.6c0.7,1.1,1.4,2.2,2,3.4c0.5,1.1,1,2.2,1.4,3.4c0.2,0.5,0.3,1.1,0.3,1.6  c0.1,1.2-0.1,2.4-0.7,3.5c-0.5,0.9-1.2,1.6-2,2.2c-1.4,1.1-2.9,1.9-4.5,2.4c-0.8,0.3-1.6,0.5-2.4,0.8  C16.9,37.5,16.8,37.5,16.8,37.5L16.8,37.5z"></path>	<path class="st0" d="M31.3,1.2c-0.5,0.6-0.7,1.2-0.8,1.9c-0.1,0.3-0.1,0.7-0.1,1c0,0.5,0,1-0.1,1.5c-0.2,1.1-0.9,1.9-1.9,2.3  c-0.7,0.3-1.4,0.6-2.1,0.7c-0.5,0.1-1,0.2-1.6,0.3c0.2-0.4,0.4-0.8,0.5-1.1c0.1-0.3,0.4-0.7,0.5-1.1c-0.4,0.4-0.8,0.7-1.2,1.1  c0,0,0,0-0.1,0c0-0.2,0-0.3,0.1-0.4c0.3-1.6,1.1-2.8,2.3-3.9c1.1-1,2.4-1.7,3.9-2C30.8,1.3,31,1.3,31.3,1.2z"></path>	<path class="st0" d="M23.4,9c-0.4-0.1-0.7-0.2-1-0.3c-0.2-0.1-0.5-0.2-0.7-0.3c-0.7-0.3-1.4-0.7-2-1c-0.9-0.5-1.3-1.2-1.4-2.2  c0-0.5,0-1.1,0-1.6c0-0.7-0.2-1.4-0.3-2.1c0-0.2-0.1-0.5-0.1-0.8c0.3,0.1,0.5,0.1,0.8,0.2c1,0.4,1.9,0.9,2.6,1.6  c1,0.9,1.8,2,2.2,3.3c0.2,0.7,0.3,1.3,0.3,2.1c-0.5-0.7-0.9-1.3-1.3-1.9h-0.1C22.6,7.1,23,8,23.4,9z"></path>	<path class="st0" d="M25.8,19.6c-0.7-0.9-1.4-1.8-1.9-2.8c-0.4-0.8-0.6-1.6-0.7-2.4c-0.1-1.1,0-2.1,0.4-3.1  c0.1-0.2,0.2-0.5,0.3-0.8c0.2,0.7,0.2,1.4,0.3,2.1h0.1c0.1-1.1,0.2-2.1,0.4-3.2c0,0,0,0,0.1,0c0.6,0.6,1.2,1.2,1.8,1.9  c0.4,0.4,0.7,0.9,1,1.4c0.2,0.3,0.2,0.7,0.3,1.1c0,0.9-0.2,1.7-0.7,2.4c-0.4,0.7-0.8,1.4-1,2.2C26,18.8,25.9,19.2,25.8,19.6z"></path>	<path class="st0" d="M26.2,9.8c0.9-0.4,1.7-1,2.8-1.1c0.7-0.1,1.3,0.1,1.8,0.5c0.8,0.7,1.6,1.4,2.4,2.1c-0.1,0.1-0.1,0.1-0.2,0.1  c-0.7,0.3-1.5,0.5-2.3,0.6c-1,0.1-1.9-0.1-2.8-0.6c-0.5-0.2-0.9-0.5-1.4-0.7c0.1-0.3,0.1-0.3,0.4-0.2c0.3,0,0.5,0.1,0.8,0.1  c0,0,0,0,0-0.1C27.2,10.3,26.8,10,26.2,9.8z"></path>	<path class="st0" d="M24.7,5.3c-0.4-0.2-0.1-0.5-0.3-0.7c-0.1,0.3-0.2,0.6-0.3,0.9c-1-0.6-1.5-1.5-1-2.5c0.3-0.6,0.6-1.2,1-1.9  c0.4,0.4,0.6,0.8,0.8,1.3c0.3,0.7,0.2,1.3,0.1,2C24.8,4.7,24.8,5,24.7,5.3z"></path></g><g class="st1">	<path d="M56.7,11.9h-0.3c-0.2-1.2-0.7-2.2-1.6-3.1c-0.9-0.9-2-1.3-3.5-1.3c-0.9,0-1.8,0.2-2.5,0.7c-0.7,0.4-1.3,1-1.7,1.8  s-0.6,1.6-0.6,2.6c0,0.8,0.1,1.4,0.4,2c0.2,0.6,0.6,1.1,1.1,1.6c0.5,0.5,1,0.9,1.6,1.3c0.6,0.4,1.5,0.9,2.6,1.5  c1.8,1,3.2,2,4.2,2.9c1,1,1.5,2.3,1.5,4c0,1-0.3,2-0.8,3c-0.5,1-1.3,1.8-2.4,2.4c-1.1,0.6-2.4,0.9-4,0.9c-1,0-1.9-0.1-2.7-0.3  c-0.8-0.2-1.6-0.5-2.4-0.9c-0.3-0.1-0.6-0.2-0.7-0.2c-0.2,0-0.4,0.1-0.5,0.2c-0.1,0.2-0.2,0.5-0.3,1.1h-0.3V26h0.3  c0.4,1.8,1.2,3.1,2.3,4.1c1.2,0.9,2.6,1.4,4.2,1.4c1.2,0,2.2-0.2,3-0.7s1.3-1,1.6-1.7c0.3-0.7,0.4-1.3,0.4-2c0-1.4-0.4-2.5-1.3-3.4  c-0.8-0.9-2.1-1.8-3.8-2.7c-1.2-0.6-2-1.1-2.6-1.5s-1.1-0.8-1.7-1.4s-1-1.2-1.4-2c-0.3-0.8-0.5-1.7-0.5-2.6c0-1.2,0.3-2.3,0.9-3.3  c0.6-1.1,1.5-1.9,2.6-2.5c1.1-0.6,2.4-1,3.8-1c1.1,0,2.2,0.2,3.3,0.5c0.2,0.1,0.4,0.1,0.7,0.1c0.4,0,0.6-0.2,0.7-0.7h0.3V11.9z"></path>	<path d="M87.5,19.4c0,2.3-0.6,4.4-1.7,6.4c-1.1,2-2.7,3.5-4.6,4.7c-2,1.2-4.1,1.8-6.5,1.8c-2.4,0-4.6-0.6-6.6-1.8  c-2-1.2-3.6-2.7-4.7-4.7s-1.7-4.1-1.7-6.5c0-1.8,0.3-3.5,1-5.1c0.7-1.6,1.6-3,2.9-4.1c1.2-1.2,2.6-2.1,4.2-2.7c1.6-0.6,3.2-1,4.9-1  c1.7,0,3.3,0.3,4.8,0.9C81,8,82.3,8.9,83.6,10c1.2,1.2,2.2,2.5,2.9,4.1S87.5,17.5,87.5,19.4z M84.6,19.5c0-3.3-0.6-5.8-1.7-7.6  c-1.2-1.8-2.5-3.1-4-3.7c-1.5-0.6-2.9-0.9-4.2-0.9c-1,0-2.1,0.2-3.2,0.5c-1.1,0.3-2.2,1-3.2,1.9s-1.9,2.2-2.6,3.8  c-0.7,1.6-1,3.6-1,6c0,2.1,0.3,3.9,0.8,5.5c0.6,1.6,1.3,2.8,2.3,3.8c1,1,2.1,1.7,3.2,2.1c1.2,0.4,2.4,0.7,3.7,0.7  c1.1,0,2.3-0.2,3.5-0.6c1.2-0.4,2.2-1.1,3.2-2c1-0.9,1.8-2.2,2.4-3.7C84.3,23.7,84.6,21.7,84.6,19.5z"></path>	<path d="M115.7,31.6h-5.1v-4.1l-0.1-0.1c-0.7,1.6-1.8,2.9-3.2,3.6s-2.9,1.1-4.4,1.1c-1.7,0-3.3-0.4-4.7-1.2  c-1.4-0.8-2.4-1.9-3.1-3.1c-0.5-0.9-0.8-1.8-0.9-2.7c-0.1-0.9-0.2-1.9-0.2-2.9V10.2c0-0.7-0.1-1.3-0.4-1.8c-0.3-0.5-1-0.8-2.1-0.9  V7.2h7.7v0.3c-1.1,0.1-1.8,0.5-2.2,1c-0.3,0.5-0.5,1.1-0.5,1.7v12c0,2.4,0.2,4.2,0.7,5.4c0.5,1.2,1.3,2.2,2.4,2.9s2.3,1,3.6,1  c0.6,0,1.2-0.1,2-0.3c0.8-0.2,1.5-0.5,2.2-1c2-1.4,3-3.6,3-6.7V10.2c0-0.7-0.2-1.3-0.5-1.8c-0.3-0.5-1-0.8-2.2-0.9V7.2h7.8v0.3  c-1.1,0.1-1.9,0.4-2.2,0.9c-0.3,0.6-0.5,1.2-0.5,1.7v18.5c0,0.6,0.1,1.1,0.3,1.5c0.2,0.4,0.5,0.6,0.9,0.8s0.8,0.3,1.4,0.4V31.6z"></path>	<path d="M119.1,31.4h0.3c0.6,0,1.1-0.2,1.6-0.7c0.5-0.5,0.7-1.1,0.7-2V10.2c0-1-0.3-1.7-0.8-2.1c-0.5-0.4-1.1-0.6-1.8-0.6V7.2h7.8  v0.3c-0.7,0-1.3,0.2-1.8,0.6c-0.5,0.4-0.8,1.1-0.8,2.1v17.8c0,1.1,0.3,1.8,0.8,2.2s1.4,0.6,2.6,0.6h2.1c0.9,0,1.7-0.1,2.2-0.3  s1-0.6,1.3-1c0.3-0.5,0.6-1.1,1-1.9h0.3l-0.9,4h-14.5V31.4z"></path>	<path d="M175.3,7.2v0.3c-0.5,0.1-0.8,0.1-1,0.1c-0.2,0-0.4,0.2-0.7,0.3c-0.4,0.3-0.6,0.6-0.7,0.8c-0.1,0.3-0.2,0.7-0.2,1.3  c0,0.1,0,0.2,0,0.3l0.8,18.2c0,0.8,0.2,1.4,0.5,2s1.1,0.8,2.2,0.8v0.3h-7.9v-0.3c1-0.1,1.7-0.4,2.1-0.9c0.4-0.5,0.5-1.3,0.5-2.3  l-0.8-18.8h-0.1l-8.6,22.3l-8.2-21.4h-0.1l-0.9,17.3c0,1,0,1.7,0.2,2.2c0.2,0.5,0.4,0.9,0.8,1.1c0.4,0.2,0.9,0.4,1.6,0.5v0.3h-6.2  v-0.3c0.8,0,1.4-0.2,1.8-0.6s0.7-0.8,0.8-1.4c0.1-0.5,0.2-1.3,0.3-2.2l1-17.9c0-0.1-0.1-0.2-0.2-0.4c-0.1-0.2-0.3-0.3-0.5-0.5  c-0.2-0.2-0.4-0.3-0.6-0.4c-0.4-0.2-0.7-0.4-1-0.4c-0.3,0-0.7-0.1-1.2-0.1V7.2h5.7l7.6,20l7.7-20H175.3z"></path>	<path d="M203.5,31.6h-5.1v-4.1l-0.1-0.1c-0.7,1.6-1.8,2.9-3.2,3.6s-2.9,1.1-4.4,1.1c-1.7,0-3.3-0.4-4.7-1.2s-2.4-1.9-3.1-3.1  c-0.5-0.9-0.8-1.8-0.9-2.7c-0.1-0.9-0.2-1.9-0.2-2.9V10.2c0-0.7-0.1-1.3-0.4-1.8s-1-0.8-2.1-0.9V7.2h7.7v0.3  c-1.1,0.1-1.8,0.5-2.2,1c-0.3,0.5-0.5,1.1-0.5,1.7v12c0,2.4,0.2,4.2,0.7,5.4c0.5,1.2,1.3,2.2,2.4,2.9s2.3,1,3.6,1  c0.6,0,1.2-0.1,2-0.3c0.8-0.2,1.5-0.5,2.2-1c2-1.4,3-3.6,3-6.7V10.2c0-0.7-0.2-1.3-0.5-1.8c-0.3-0.5-1-0.8-2.2-0.9V7.2h7.8v0.3  c-1.1,0.1-1.9,0.4-2.2,0.9c-0.3,0.6-0.5,1.2-0.5,1.7v18.5c0,0.6,0.1,1.1,0.3,1.5c0.2,0.4,0.5,0.6,0.9,0.8s0.8,0.3,1.4,0.4V31.6z"></path>	<path d="M219.5,11.9h-0.3c-0.2-1.2-0.7-2.2-1.6-3.1c-0.9-0.9-2-1.3-3.5-1.3c-0.9,0-1.8,0.2-2.5,0.7c-0.7,0.4-1.3,1-1.7,1.8  s-0.6,1.6-0.6,2.6c0,0.8,0.1,1.4,0.4,2c0.2,0.6,0.6,1.1,1.1,1.6c0.5,0.5,1,0.9,1.6,1.3c0.6,0.4,1.5,0.9,2.6,1.5  c1.8,1,3.2,2,4.2,2.9c1,1,1.5,2.3,1.5,4c0,1-0.3,2-0.8,3c-0.5,1-1.3,1.8-2.4,2.4s-2.4,0.9-4,0.9c-1,0-1.9-0.1-2.7-0.3  c-0.8-0.2-1.6-0.5-2.4-0.9c-0.3-0.1-0.6-0.2-0.7-0.2c-0.2,0-0.4,0.1-0.5,0.2c-0.1,0.2-0.2,0.5-0.3,1.1h-0.3V26h0.3  c0.4,1.8,1.2,3.1,2.3,4.1s2.6,1.4,4.2,1.4c1.2,0,2.2-0.2,3-0.7s1.3-1,1.6-1.7s0.4-1.3,0.4-2c0-1.4-0.4-2.5-1.3-3.4  c-0.8-0.9-2.1-1.8-3.8-2.7c-1.2-0.6-2-1.1-2.6-1.5s-1.1-0.8-1.7-1.4s-1-1.2-1.4-2c-0.3-0.8-0.5-1.7-0.5-2.6c0-1.2,0.3-2.3,0.9-3.3  s1.5-1.9,2.6-2.5c1.1-0.6,2.4-1,3.8-1c1.1,0,2.2,0.2,3.3,0.5c0.2,0.1,0.4,0.1,0.7,0.1c0.4,0,0.6-0.2,0.7-0.7h0.3V11.9z"></path>	<path d="M235,6.9l7.3,21c0.4,1.1,0.8,1.9,1.1,2.4s0.7,0.8,1,0.9c0.3,0.1,0.7,0.2,1.2,0.3v0.3h-8v-0.3c0.8,0,1.5-0.1,1.9-0.2  s0.7-0.6,0.7-1.3c0-0.4-0.1-0.9-0.3-1.5c0-0.1-0.1-0.2-0.1-0.2l-2.2-6.5h-8.5l-1.9,6c-0.3,0.8-0.4,1.5-0.4,2c0,0.7,0.2,1.1,0.5,1.4  c0.3,0.2,0.8,0.3,1.5,0.3v0.3H223v-0.3c0.8-0.1,1.5-0.4,2-0.9c0.5-0.5,0.9-1.4,1.3-2.5l6.9-21.1H235z M229.4,20.8h7.8l-4-11.6h-0.1  L229.4,20.8z"></path></g></svg>