<svg xmlns="http://www.w3.org/2000/svg" id="Camada_2" data-name="Camada 2" viewBox="0 0 244.62 39.01"><defs><style>      .cls-1 {        fill: #8d4d5e;        stroke-width: 0px;      }      .cls-2 {        font-family: PerpetuaTitlingMT-Light, 'Perpetua Titling MT';        font-size: 34px;        font-weight: 300;        isolation: isolate;        letter-spacing: .03em;      }    </style></defs><g id="Camada_1-2" data-name="Camada 1"><g><g><path class="cls-1" d="M0,22.4c.2-.7.6-1.3,1.1-1.8.2-.2.4-.5.4-.9,0-.1-.1-.3-.1-.4-.1-.1-.2-.2-.2-.3-.4-.5-.4-.8.2-1.2.2-.1.5-.2.7-.4-.2-.2-.3-.4-.5-.6-.1-.1-.1-.3,0-.4.3-.5.6-.9.9-1.4.3-.5.3-1-.2-1.4-.3-.4-.5-.8-.8-1.2-.3-.3-.3-.5.1-.6.4-.2.8-.3,1.1-.4.7-.2,1.3-.5,1.9-1,.4-.4.8-.9,1.2-1.4.2-.2.3-.5.5-.7s.2-.4.1-.7c-.2-.5-.5-1-.7-1.6-.1-.3-.2-.5-.2-.6h.1c.4.6.8,1.2,1.3,1.8,1.1-2.7,2.4-5.2,4.5-7.2-.1.3-.1.5-.2.8-.2,1-.4,2-.6,3-.1.5-.1,1-.2,1.6-.1.9-.1,1.9-.1,2.8,0,1.5.2,2.9.7,4.3.3,1.1.9,2.1,1.5,3,.8,1.3,1.7,2.5,2.5,3.9,1.2,2.1,2.2,4.3,2.6,6.7.1.6.2,1.3.2,2,0,.4.1.9,0,1.3-.1,2.4-.8,4.5-2.4,6.2-.4.5-.8.9-1.3,1.2-.5.4-1.1.6-1.6.9-.1.1-.3-.1-.3-.3.1-.3.1-.7.2-1,.3-1.1.6-2.2.5-3.4-.1-1.7-.6-3.2-1.6-4.5s-2.4-2.1-4-2.6c-1.8-.6-3.7-1.1-5.5-1.7-.5-.1-.9-.3-1.2-.7-.2-.2-.3-.5-.5-.7-.1-.2-.1-.3-.1-.4Z"></path><path class="cls-1" d="M15.4,37.3c.2-.2.5-.3.7-.5,1.1-.8,2.2-1.5,3.2-2.4,1.4-1.3,2.5-2.7,3-4.5.2-.9.3-1.8.1-2.7-.2-1.4-.8-2.7-1.4-3.9-1.1-2-2.3-3.9-3.4-5.9-1.1-1.9-2.1-3.9-2.8-6-.3-.9-.5-1.8-.6-2.7-.2-1-.2-1.9-.2-2.9,0-.5.1-1.1.2-1.6.1-.3.1-.7.3-1,.1.3.1.6.1.9,0,.4,0,.9.1,1.3.1,1.1.3,2.1.6,3.2.4,1.3.9,2.6,1.6,3.7,1.5,2.5,3.1,5.1,4.6,7.6.7,1.1,1.4,2.2,2,3.4.5,1.1,1,2.2,1.4,3.4.2.5.3,1.1.3,1.6.1,1.2-.1,2.4-.7,3.5-.5.9-1.2,1.6-2,2.2-1.4,1.1-2.9,1.9-4.5,2.4-.8.3-1.6.5-2.4.8-.1.1-.2.1-.2.1h0Z"></path><path class="cls-1" d="M29.9,1c-.5.6-.7,1.2-.8,1.9-.1.3-.1.7-.1,1,0,.5,0,1-.1,1.5-.2,1.1-.9,1.9-1.9,2.3-.7.3-1.4.6-2.1.7-.5.1-1,.2-1.6.3.2-.4.4-.8.5-1.1.1-.3.4-.7.5-1.1-.4.4-.8.7-1.2,1.1h-.1c0-.2,0-.3.1-.4.3-1.6,1.1-2.8,2.3-3.9,1.1-1,2.4-1.7,3.9-2,.1-.2.3-.2.6-.3Z"></path><path class="cls-1" d="M22,8.8c-.4-.1-.7-.2-1-.3-.2-.1-.5-.2-.7-.3-.7-.3-1.4-.7-2-1-.9-.5-1.3-1.2-1.4-2.2v-1.6c0-.7-.2-1.4-.3-2.1,0-.2-.1-.5-.1-.8.3.1.5.1.8.2,1,.4,1.9.9,2.6,1.6,1,.9,1.8,2,2.2,3.3.2.7.3,1.3.3,2.1-.5-.7-.9-1.3-1.3-1.9h-.1c.2,1.1.6,2,1,3Z"></path><path class="cls-1" d="M24.4,19.4c-.7-.9-1.4-1.8-1.9-2.8-.4-.8-.6-1.6-.7-2.4-.1-1.1,0-2.1.4-3.1.1-.2.2-.5.3-.8.2.7.2,1.4.3,2.1h.1c.1-1.1.2-2.1.4-3.2h.1c.6.6,1.2,1.2,1.8,1.9.4.4.7.9,1,1.4.2.3.2.7.3,1.1,0,.9-.2,1.7-.7,2.4-.4.7-.8,1.4-1,2.2-.2.4-.3.8-.4,1.2Z"></path><path class="cls-1" d="M24.8,9.6c.9-.4,1.7-1,2.8-1.1.7-.1,1.3.1,1.8.5.8.7,1.6,1.4,2.4,2.1q-.1.1-.2.1c-.7.3-1.5.5-2.3.6-1,.1-1.9-.1-2.8-.6-.5-.2-.9-.5-1.4-.7q.1-.3.4-.2c.3,0,.5.1.8.1v-.1c-.5-.2-.9-.5-1.5-.7Z"></path><path class="cls-1" d="M23.3,5.1c-.4-.2-.1-.5-.3-.7-.1.3-.2.6-.3.9-1-.6-1.5-1.5-1-2.5.3-.6.6-1.2,1-1.9.4.4.6.8.8,1.3.3.7.2,1.3.1,2-.2.3-.2.6-.3.9Z"></path></g><text class="cls-2" transform="translate(41.55 31.43)"><tspan x="0" y="0">SOUL MUSA</tspan></text></g></g></svg>