<svg xmlns="http://www.w3.org/2000/svg" xmlns:xlink="http://www.w3.org/1999/xlink" id="Camada_1" x="0px" y="0px" viewBox="0 0 243.4 38.8" style="enable-background:new 0 0 243.4 38.8;" xml:space="preserve"><style type="text/css">	.st0{fill:#8D4D5E;}	.st1{font-family:'PerpetuaTitlingMT-Light';}	.st2{font-size:33.7873px;}	.st3{letter-spacing:1;}</style><g>	<g id="Camada_1-2_00000119088144188032989370000012536592336291058845_">		<path class="st0" d="M0,22.3c0.2-0.7,0.6-1.3,1.1-1.8c0.2-0.2,0.4-0.5,0.4-0.9c0-0.1-0.1-0.3-0.1-0.4c-0.1-0.1-0.2-0.2-0.2-0.3   c-0.4-0.5-0.4-0.8,0.2-1.2c0.2-0.1,0.5-0.2,0.7-0.4c-0.2-0.2-0.3-0.4-0.5-0.6c-0.1-0.1-0.1-0.3,0-0.4c0.3-0.5,0.6-0.9,0.9-1.4   c0.3-0.5,0.3-1-0.2-1.4c-0.3-0.4-0.5-0.8-0.8-1.2c-0.3-0.3-0.3-0.5,0.1-0.6c0.4-0.2,0.8-0.3,1.1-0.4c0.7-0.2,1.3-0.5,1.9-1   C5,9.9,5.4,9.4,5.8,8.9C6,8.7,6.1,8.4,6.3,8.2C6.5,8,6.5,7.9,6.4,7.6C6.2,7.1,5.9,6.6,5.7,6C5.6,5.7,5.5,5.5,5.5,5.4h0.1   C6,6,6.4,6.6,6.9,7.2C7.9,4.5,9.2,2,11.3,0c-0.1,0.3-0.1,0.5-0.2,0.8c-0.2,1-0.4,2-0.6,3c-0.1,0.5-0.1,1-0.2,1.6   c-0.1,0.9-0.1,1.9-0.1,2.8c0,1.5,0.2,2.9,0.7,4.3c0.3,1.1,0.9,2.1,1.5,3c0.8,1.3,1.7,2.5,2.5,3.9c1.2,2.1,2.2,4.3,2.6,6.7   c0.1,0.6,0.2,1.3,0.2,2c0,0.4,0.1,0.9,0,1.3c-0.1,2.4-0.8,4.5-2.4,6.2c-0.4,0.5-0.8,0.9-1.3,1.2c-0.5,0.4-1.1,0.6-1.6,0.9   c-0.1,0.1-0.3-0.1-0.3-0.3c0.1-0.3,0.1-0.7,0.2-1c0.3-1.1,0.6-2.2,0.5-3.4c-0.1-1.7-0.6-3.2-1.6-4.5c-1-1.3-2.4-2.1-4-2.6   c-1.8-0.6-3.7-1.1-5.5-1.7c-0.5-0.1-0.9-0.3-1.2-0.7c-0.2-0.2-0.3-0.5-0.5-0.7C0,22.5,0,22.4,0,22.3z"></path>		<path class="st0" d="M15.3,37.1c0.2-0.2,0.5-0.3,0.7-0.5c1.1-0.8,2.2-1.5,3.2-2.4c1.4-1.3,2.5-2.7,3-4.5c0.2-0.9,0.3-1.8,0.1-2.7   c-0.2-1.4-0.8-2.7-1.4-3.9c-1.1-2-2.3-3.9-3.4-5.9c-1.1-1.9-2.1-3.9-2.8-6c-0.3-0.9-0.5-1.8-0.6-2.7c-0.2-1-0.2-1.9-0.2-2.9   c0-0.5,0.1-1.1,0.2-1.6c0.1-0.3,0.1-0.7,0.3-1c0.1,0.3,0.1,0.6,0.1,0.9c0,0.4,0,0.9,0.1,1.3c0.1,1.1,0.3,2.1,0.6,3.2   c0.4,1.3,0.9,2.6,1.6,3.7c1.5,2.5,3.1,5.1,4.6,7.6c0.7,1.1,1.4,2.2,2,3.4c0.5,1.1,1,2.2,1.4,3.4c0.2,0.5,0.3,1.1,0.3,1.6   c0.1,1.2-0.1,2.4-0.7,3.5c-0.5,0.9-1.2,1.6-2,2.2c-1.4,1.1-2.9,1.9-4.5,2.4c-0.8,0.3-1.6,0.5-2.4,0.8   C15.4,37.1,15.3,37.1,15.3,37.1C15.3,37.1,15.3,37.1,15.3,37.1z"></path>		<path class="st0" d="M29.7,1c-0.5,0.6-0.7,1.2-0.8,1.9c-0.1,0.3-0.1,0.7-0.1,1c0,0.5,0,1-0.1,1.5c-0.2,1.1-0.9,1.9-1.9,2.3   c-0.7,0.3-1.4,0.6-2.1,0.7c-0.5,0.1-1,0.2-1.6,0.3c0.2-0.4,0.4-0.8,0.5-1.1c0.1-0.3,0.4-0.7,0.5-1.1c-0.4,0.4-0.8,0.7-1.2,1.1   h-0.1c0-0.2,0-0.3,0.1-0.4c0.3-1.6,1.1-2.8,2.3-3.9c1.1-1,2.4-1.7,3.9-2C29.2,1.1,29.4,1.1,29.7,1z"></path>		<path class="st0" d="M21.9,8.7c-0.4-0.1-0.7-0.2-1-0.3c-0.2-0.1-0.5-0.2-0.7-0.3c-0.7-0.3-1.4-0.7-2-1C17.3,6.7,16.9,6,16.8,5V3.4   c0-0.7-0.2-1.4-0.3-2.1c0-0.2-0.1-0.5-0.1-0.8c0.3,0.1,0.5,0.1,0.8,0.2c1,0.4,1.9,0.9,2.6,1.6c1,0.9,1.8,2,2.2,3.3   c0.2,0.7,0.3,1.3,0.3,2.1C21.8,7,21.4,6.4,21,5.8h-0.1C21.1,6.9,21.5,7.8,21.9,8.7z"></path>		<path class="st0" d="M24.2,19.3c-0.7-0.9-1.4-1.8-1.9-2.8c-0.4-0.8-0.6-1.6-0.7-2.4c-0.1-1.1,0-2.1,0.4-3.1   c0.1-0.2,0.2-0.5,0.3-0.8c0.2,0.7,0.2,1.4,0.3,2.1h0.1c0.1-1.1,0.2-2.1,0.4-3.2h0.1c0.6,0.6,1.2,1.2,1.8,1.9   c0.4,0.4,0.7,0.9,1,1.4c0.2,0.3,0.2,0.7,0.3,1.1c0,0.9-0.2,1.7-0.7,2.4c-0.4,0.7-0.8,1.4-1,2.2C24.4,18.5,24.3,18.9,24.2,19.3z"></path>		<path class="st0" d="M24.6,9.5c0.9-0.4,1.7-1,2.8-1.1c0.7-0.1,1.3,0.1,1.8,0.5c0.8,0.7,1.6,1.4,2.4,2.1c-0.1,0.1-0.1,0.1-0.2,0.1   c-0.7,0.3-1.5,0.5-2.3,0.6c-1,0.1-1.9-0.1-2.8-0.6c-0.5-0.2-0.9-0.5-1.4-0.7c0.1-0.2,0.2-0.3,0.4-0.2c0.3,0,0.5,0.1,0.8,0.1v-0.1   C25.6,10,25.2,9.7,24.6,9.5z"></path>		<path class="st0" d="M23.2,5.1c-0.4-0.2-0.1-0.5-0.3-0.7c-0.1,0.3-0.2,0.6-0.3,0.9c-1-0.6-1.5-1.5-1-2.5c0.3-0.6,0.6-1.2,1-1.9   c0.4,0.4,0.6,0.8,0.8,1.3c0.3,0.7,0.2,1.3,0.1,2C23.3,4.5,23.3,4.8,23.2,5.1z"></path>		<text transform="matrix(1 0 0 1 41.29 31.2334)" class="st1 st2 st3">SOUL MUSA</text>	</g></g></svg>