<svg xmlns="http://www.w3.org/2000/svg" width="145" height="145" viewBox="0 0 145 145" fill="none"><path d="M72.5613 143.788C112.048 143.788 144.058 111.777 144.058 72.2907C144.058 32.8042 112.048 0.793945 72.5613 0.793945C33.0747 0.793945 1.06445 32.8042 1.06445 72.2907C1.06445 111.777 33.0747 143.788 72.5613 143.788Z" fill="#EBEBEB" fill-opacity="0.01"></path><path fill-rule="evenodd" clip-rule="evenodd" d="M72.5613 1.29395C33.3508 1.29395 1.56445 33.0803 1.56445 72.2907C1.56445 111.501 33.3508 143.288 72.5613 143.288C111.772 143.288 143.558 111.501 143.558 72.2907C143.558 33.0803 111.772 1.29395 72.5613 1.29395ZM0.564453 72.2907C0.564453 32.528 32.7985 0.293945 72.5613 0.293945C112.324 0.293945 144.558 32.528 144.558 72.2907C144.558 112.053 112.324 144.288 72.5613 144.288C32.7985 144.288 0.564453 112.053 0.564453 72.2907Z" fill="white"></path><path d="M20.3011 76.4627L12.3125 76.0348L12.4621 73.2419C12.4919 72.6854 12.6127 72.2316 12.8245 71.8805C13.0337 71.5292 13.3043 71.2737 13.6362 71.1142C13.9655 70.9545 14.3252 70.8851 14.7153 70.906C15.0586 70.9244 15.3387 71.0006 15.5558 71.1348C15.7731 71.2664 15.9414 71.4345 16.0608 71.6391C16.1804 71.8411 16.2653 72.0582 16.3154 72.2904L16.3934 72.2946C16.4221 72.051 16.5211 71.8098 16.6904 71.5711C16.8596 71.3325 17.0943 71.1377 17.3945 70.9869C17.6947 70.836 18.0554 70.7719 18.4766 70.7945C18.8771 70.8159 19.2324 70.9262 19.5425 71.1254C19.8526 71.3246 20.0908 71.6255 20.257 72.0282C20.4232 72.4309 20.4894 72.9469 20.4557 73.5762L20.3011 76.4627ZM19.4948 75.4493L19.5976 73.5302C19.6314 72.8983 19.5332 72.4432 19.303 72.1649C19.0703 71.8838 18.7784 71.7338 18.4273 71.715C18.1569 71.7005 17.9036 71.7561 17.6673 71.8817C17.4285 72.0071 17.2334 72.1935 17.0819 72.441C16.9278 72.6883 16.8415 72.9862 16.8228 73.3347L16.7175 75.3006L19.4948 75.4493ZM15.875 75.2555L15.9711 73.4612C15.9867 73.1699 15.9435 72.9042 15.8416 72.664C15.7399 72.4213 15.5887 72.2254 15.388 72.0764C15.1875 71.9249 14.9468 71.8416 14.666 71.8265C14.3149 71.8077 14.0106 71.914 13.7531 72.1453C13.493 72.3765 13.3487 72.7574 13.3203 73.2879L13.2225 75.1134L15.875 75.2555Z" fill="white"></path><path d="M21.3171 66.6529L13.5332 64.8061L14.6478 60.1084L15.484 60.3068L14.593 64.0619L17.2231 64.6859L18.0564 61.1741L18.8926 61.3725L18.0593 64.8843L20.7046 65.512L21.61 61.696L22.4462 61.8944L21.3171 66.6529Z" fill="white"></path><path d="M20.3195 50.7681C19.9381 50.6523 19.5803 50.7033 19.2463 50.9211C18.9123 51.1388 18.6482 51.4695 18.4541 51.9133C18.3121 52.2377 18.2404 52.5446 18.2389 52.8339C18.2385 53.1208 18.3004 53.3724 18.4246 53.5888C18.5498 53.8028 18.7294 53.9609 18.9632 54.0632C19.1588 54.1488 19.3474 54.1758 19.5288 54.1444C19.709 54.1095 19.8779 54.0384 20.0357 53.9312C20.1911 53.823 20.3341 53.7008 20.4647 53.5646C20.5929 53.4274 20.7047 53.2987 20.8 53.1783L21.326 52.5216C21.4596 52.3527 21.6217 52.1706 21.8123 51.9754C22.0039 51.7779 22.223 51.6051 22.4697 51.4572C22.715 51.3058 22.9865 51.2114 23.2843 51.174C23.582 51.1366 23.9027 51.193 24.2463 51.3433C24.6423 51.5166 24.9548 51.7769 25.1837 52.1244C25.4136 52.4694 25.5362 52.8812 25.5514 53.3597C25.5677 53.8358 25.4526 54.3554 25.2063 54.9185C24.9767 55.4434 24.6931 55.8608 24.3557 56.1708C24.0193 56.4784 23.6516 56.6757 23.2525 56.7627C22.8545 56.8472 22.4489 56.8161 22.0355 56.6694L22.4364 55.7532C22.7235 55.8505 22.9933 55.8576 23.2456 55.7747C23.4966 55.6884 23.721 55.5392 23.9188 55.3274C24.1154 55.112 24.2773 54.8588 24.4047 54.5678C24.5529 54.229 24.6311 53.9008 24.6393 53.5832C24.6451 53.2645 24.5834 52.9831 24.4543 52.739C24.3228 52.4939 24.1234 52.3129 23.8562 52.196C23.6128 52.0895 23.3851 52.0709 23.1729 52.14C22.9607 52.2092 22.7583 52.3339 22.5658 52.514C22.3733 52.6942 22.1849 52.8974 22.0006 53.1238L21.3484 53.9129C20.9333 54.4134 20.5 54.7639 20.0484 54.9644C19.5969 55.1648 19.1242 55.1569 18.6304 54.9409C18.22 54.7613 17.9107 54.4938 17.7023 54.1383C17.4927 53.7794 17.3856 53.3744 17.3811 52.9234C17.3753 52.4689 17.4747 52.0078 17.6793 51.5402C17.886 51.0678 18.1544 50.6849 18.4845 50.3916C18.8123 50.0973 19.1686 49.9064 19.5536 49.819C19.9397 49.7293 20.3202 49.7593 20.6953 49.9092L20.3195 50.7681Z" fill="white"></path><path d="M22.2855 44.7323L21.5723 44.2529L24.9197 39.2734L25.6329 39.7529L24.2294 41.8406L30.1555 45.8244L29.615 46.6284L23.6889 42.6446L22.2855 44.7323Z" fill="white"></path><path d="M38.8896 28.2395C38.6056 27.9598 38.2651 27.8388 37.8682 27.8764C37.4712 27.914 37.0837 28.0842 36.7057 28.387C36.4292 28.6084 36.2232 28.8469 36.0874 29.1023C35.9538 29.3562 35.8917 29.6078 35.9012 29.8571C35.9127 30.1047 35.9982 30.3282 36.1577 30.5274C36.2912 30.6941 36.4456 30.8056 36.6209 30.8621C36.7967 30.9148 36.9793 30.9304 37.1688 30.9087C37.3567 30.8851 37.5401 30.8433 37.719 30.7834C37.8963 30.7215 38.0551 30.6594 38.1954 30.5971L38.9663 30.2599C39.1631 30.1724 39.3912 30.0865 39.6506 30.0021C39.9121 29.9162 40.1864 29.865 40.4735 29.8486C40.761 29.8285 41.0454 29.8711 41.3264 29.9762C41.6075 30.0814 41.8653 30.2804 42.0997 30.5731C42.3699 30.9105 42.5257 31.2862 42.567 31.7002C42.6103 32.1126 42.5275 32.5342 42.3187 32.965C42.1119 33.3942 41.7687 33.8009 41.289 34.185C40.8418 34.5432 40.3968 34.7811 39.9539 34.8989C39.5131 35.015 39.0959 35.0189 38.7021 34.9105C38.3104 34.8005 37.9656 34.5845 37.6677 34.2626L38.4483 33.6375C38.6574 33.857 38.893 33.9886 39.1549 34.0324C39.4173 34.0725 39.6853 34.0447 39.9589 33.949C40.233 33.8496 40.494 33.7007 40.742 33.5021C41.0306 33.2709 41.2524 33.0166 41.4072 32.7391C41.5604 32.4597 41.6365 32.1818 41.6355 31.9057C41.6329 31.6275 41.5405 31.3746 41.3582 31.1469C41.1921 30.9396 40.9991 30.8173 40.779 30.78C40.559 30.7427 40.3219 30.7591 40.0677 30.8291C39.8136 30.8992 39.5523 30.9917 39.284 31.1065L38.3398 31.5023C37.7396 31.7528 37.1931 31.8618 36.7001 31.8296C36.2072 31.7973 35.7922 31.5708 35.4553 31.15C35.1753 30.8004 35.0256 30.4198 35.0063 30.0082C34.9874 29.593 35.0807 29.1846 35.2863 28.7831C35.4923 28.3779 35.7945 28.0158 36.1929 27.6967C36.5953 27.3744 37.0109 27.16 37.4395 27.0537C37.8665 26.9453 38.2707 26.9418 38.6523 27.0433C39.0358 27.1431 39.3589 27.3465 39.6213 27.6534L38.8896 28.2395Z" fill="white"></path><path d="M47.218 29.8816L43.4121 22.8449L47.6588 20.5479L48.0676 21.3038L44.673 23.1399L45.959 25.5175L49.1337 23.8004L49.5426 24.5563L46.3678 26.2734L47.6613 28.6648L51.1109 26.799L51.5197 27.5549L47.218 29.8816Z" fill="white"></path><path d="M56.1159 25.6247L53.627 18.0217L56.1959 17.1807C56.7899 16.9863 57.3107 16.9281 57.7583 17.0063C58.205 17.082 58.5775 17.2656 58.8757 17.5571C59.1739 17.8486 59.3963 18.2183 59.543 18.6663C59.6896 19.1142 59.7281 19.5414 59.6584 19.9479C59.5886 20.3543 59.3969 20.7185 59.083 21.0405C58.7683 21.3599 58.3165 21.6161 57.7275 21.8089L55.6485 22.4895L55.3763 21.6579L57.4255 20.9871C57.8314 20.8542 58.1387 20.6879 58.3473 20.488C58.5584 20.2874 58.6839 20.06 58.724 19.8057C58.7657 19.5482 58.7368 19.2672 58.6371 18.9628C58.5375 18.6584 58.3935 18.411 58.2051 18.2205C58.0167 18.0301 57.7773 17.9139 57.4868 17.872C57.1955 17.8276 56.8444 17.8727 56.4336 18.0072L54.815 18.537L57.0366 25.3233L56.1159 25.6247ZM58.5766 21.0377L61.5657 23.8406L60.4965 24.1906L57.5371 21.378L58.5766 21.0377Z" fill="white"></path><path d="M64.8958 15.034L68.1239 21.4036L68.2168 21.3915L69.6987 14.406L70.7057 14.2744L68.8302 22.5877L67.8386 22.7173L63.8887 15.1657L64.8958 15.034Z" fill="white"></path><path d="M77.4833 14.2426L77.2536 22.2393L76.2852 22.2115L76.515 14.2148L77.4833 14.2426Z" fill="white"></path><path d="M90.3557 18.4788L89.4039 18.2982C89.3995 18.0138 89.3466 17.7546 89.2452 17.5207C89.1464 17.2872 89.0105 17.0812 88.8377 16.9026C88.6678 16.722 88.4695 16.573 88.2425 16.4557C88.0156 16.3385 87.7717 16.2551 87.5107 16.2056C87.0348 16.1153 86.5809 16.1538 86.1489 16.321C85.7195 16.4887 85.3466 16.7851 85.03 17.2101C84.7161 17.6356 84.4945 18.1886 84.3654 18.8692C84.2363 19.5498 84.24 20.1455 84.3763 20.6564C84.5152 21.1678 84.7537 21.5802 85.0919 21.8935C85.4326 22.2073 85.8409 22.4093 86.3168 22.4996C86.5777 22.5491 86.8353 22.5609 87.0894 22.5348C87.3435 22.5088 87.5824 22.4441 87.8061 22.3408C88.0328 22.2354 88.2349 22.0921 88.4124 21.9111C88.5929 21.728 88.737 21.5062 88.8448 21.2457L89.7965 21.4262C89.6487 21.8143 89.45 22.149 89.2005 22.4304C88.951 22.7117 88.6644 22.937 88.3407 23.1062C88.0176 23.2728 87.6698 23.3805 87.2974 23.4291C86.9276 23.4783 86.5444 23.4652 86.1479 23.39C85.4775 23.2628 84.9125 22.986 84.4526 22.5595C83.9928 22.133 83.6705 21.5894 83.4857 20.9288C83.3009 20.2682 83.2871 19.5234 83.4444 18.6945C83.6016 17.8655 83.8872 17.1775 84.3011 16.6305C84.715 16.0834 85.2139 15.6957 85.798 15.4672C86.3821 15.2387 87.0093 15.1881 87.6796 15.3152C88.0762 15.3905 88.4375 15.5186 88.7637 15.6998C89.0923 15.8814 89.3763 16.1102 89.6155 16.3862C89.8552 16.6596 90.0396 16.9729 90.1688 17.3261C90.2984 17.6767 90.3607 18.0609 90.3557 18.4788Z" fill="white"></path><path d="M93.3438 25.1955L96.2647 17.748L100.76 19.5111L100.446 20.3111L96.8527 18.9018L95.8657 21.4182L99.2257 22.7363L98.9128 23.5363L95.5518 22.2182L94.5597 24.7492L98.2107 26.1814L97.8968 26.9814L93.3438 25.1955Z" fill="white"></path><path d="M109.211 26.441C109.379 26.0796 109.379 25.7183 109.21 25.357C109.042 24.9957 108.751 24.6879 108.339 24.4333C108.038 24.2472 107.744 24.1331 107.458 24.091C107.174 24.0503 106.916 24.0763 106.684 24.1689C106.455 24.2628 106.273 24.4184 106.139 24.6355C106.027 24.8172 105.974 25.0001 105.979 25.1842C105.989 25.3674 106.035 25.5447 106.119 25.7159C106.205 25.885 106.305 26.0437 106.422 26.1922C106.54 26.3384 106.652 26.4671 106.757 26.5784L107.334 27.1914C107.482 27.3474 107.64 27.5335 107.806 27.7495C107.975 27.967 108.115 28.2082 108.227 28.4732C108.342 28.7373 108.398 29.0194 108.393 29.3195C108.388 29.6195 108.287 29.9291 108.09 30.2482C107.863 30.616 107.561 30.8888 107.185 31.0666C106.811 31.2458 106.387 31.3094 105.911 31.2573C105.437 31.2065 104.939 31.0197 104.416 30.6967C103.928 30.3957 103.555 30.0563 103.295 29.6787C103.038 29.3025 102.894 28.9107 102.864 28.5034C102.836 28.0975 102.924 27.7002 103.127 27.3116L103.978 27.837C103.842 28.1077 103.797 28.3738 103.843 28.6352C103.894 28.8958 104.01 29.139 104.192 29.3646C104.377 29.5894 104.605 29.7853 104.876 29.9523C105.19 30.1466 105.504 30.2701 105.817 30.3228C106.132 30.3733 106.419 30.3518 106.679 30.2582C106.94 30.1624 107.148 29.9904 107.301 29.7422C107.44 29.5162 107.491 29.2933 107.452 29.0735C107.413 28.8537 107.318 28.6359 107.167 28.42C107.016 28.2041 106.841 27.989 106.643 27.7748L105.953 27.0182C105.516 26.5369 105.23 26.0587 105.094 25.5835C104.959 25.1083 105.034 24.6414 105.317 24.1828C105.552 23.8017 105.86 23.533 106.242 23.3766C106.626 23.2194 107.042 23.1703 107.49 23.2292C107.941 23.2872 108.383 23.4504 108.817 23.7186C109.256 23.9895 109.597 24.309 109.841 24.6771C110.087 25.0429 110.226 25.4225 110.258 25.816C110.293 26.2108 110.21 26.5834 110.009 26.9337L109.211 26.441Z" fill="white"></path><path d="M124.921 67.5381L132.91 67.9659L132.76 70.7588C132.73 71.3153 132.609 71.7691 132.398 72.1203C132.188 72.4716 131.918 72.727 131.586 72.8866C131.257 73.0463 130.897 73.1157 130.507 73.0948C130.164 73.0764 129.883 73.0001 129.666 72.8659C129.449 72.7343 129.281 72.5662 129.161 72.3616C129.042 72.1596 128.957 71.9425 128.907 71.7103L128.829 71.7061C128.8 71.9498 128.701 72.1909 128.532 72.4296C128.362 72.6683 128.128 72.863 127.828 73.0139C127.527 73.1647 127.167 73.2288 126.745 73.2063C126.345 73.1848 125.99 73.0745 125.68 72.8753C125.369 72.6762 125.131 72.3752 124.965 71.9725C124.799 71.5699 124.733 71.0539 124.766 70.4245L124.921 67.5381ZM125.727 68.5514L125.625 70.4705C125.591 71.1024 125.689 71.5575 125.919 71.8359C126.152 72.117 126.444 72.2669 126.795 72.2857C127.065 72.3002 127.318 72.2446 127.555 72.1191C127.794 71.9936 127.989 71.8072 128.14 71.5597C128.294 71.3124 128.381 71.0145 128.399 70.6661L128.505 68.7001L125.727 68.5514ZM129.347 68.7453L129.251 70.5396C129.235 70.8308 129.279 71.0965 129.38 71.3367C129.482 71.5795 129.633 71.7753 129.834 71.9243C130.035 72.0759 130.275 72.1592 130.556 72.1742C130.907 72.193 131.211 72.0867 131.469 71.8554C131.729 71.6242 131.873 71.2433 131.902 70.7128L132 68.8873L129.347 68.7453Z" fill="white"></path><path d="M123.908 77.3477L131.692 79.1945L130.578 83.8922L129.742 83.6939L130.633 79.9387L128.002 79.3147L127.169 82.8266L126.333 82.6282L127.166 79.1163L124.521 78.4887L123.616 82.3046L122.779 82.1062L123.908 77.3477Z" fill="white"></path><path d="M124.901 93.2319C125.283 93.3479 125.641 93.2969 125.975 93.0789C126.309 92.8619 126.573 92.5309 126.767 92.0869C126.909 91.7629 126.98 91.4559 126.982 91.1669C126.982 90.8796 126.92 90.628 126.796 90.4116C126.671 90.1977 126.491 90.0395 126.258 89.9372C126.062 89.8517 125.873 89.8246 125.692 89.8561C125.512 89.8909 125.343 89.962 125.185 90.0692C125.03 90.1775 124.887 90.2997 124.756 90.4358C124.628 90.573 124.516 90.7018 124.421 90.8221L123.895 91.4789C123.761 91.6479 123.599 91.8299 123.409 92.0249C123.217 92.2229 122.998 92.3949 122.751 92.5429C122.506 92.6949 122.234 92.7889 121.937 92.8269C121.639 92.8639 121.318 92.8079 120.975 92.6569C120.579 92.4839 120.266 92.2239 120.037 91.8759C119.807 91.5309 119.685 91.1189 119.669 90.6407C119.653 90.1646 119.768 89.645 120.015 89.082C120.244 88.5571 120.528 88.1396 120.865 87.8296C121.202 87.522 121.569 87.3247 121.968 87.2378C122.366 87.1532 122.772 87.1843 123.185 87.331L122.785 88.2472C122.497 88.15 122.228 88.1428 121.975 88.2257C121.724 88.3121 121.5 88.4612 121.302 88.6731C121.105 88.8884 120.944 89.1416 120.816 89.4327C120.668 89.7715 120.59 90.0997 120.582 90.4173C120.576 90.7359 120.637 91.0169 120.767 91.2619C120.898 91.5069 121.097 91.6879 121.365 91.8049C121.608 91.9109 121.836 91.9299 122.048 91.8599C122.26 91.7909 122.463 91.6669 122.655 91.4869C122.848 91.3059 123.036 91.1029 123.22 90.8767L123.872 90.0876C124.288 89.587 124.721 89.2365 125.172 89.0361C125.624 88.8357 126.097 88.8435 126.59 89.0596C127.001 89.2391 127.31 89.5066 127.519 89.8621C127.728 90.221 127.835 90.626 127.84 91.0769C127.846 91.5319 127.746 91.9929 127.542 92.4599C127.335 92.9329 127.066 93.3159 126.736 93.6089C126.409 93.9029 126.052 94.0939 125.667 94.1819C125.281 94.2709 124.901 94.2409 124.526 94.0909L124.901 93.2319Z" fill="white"></path><path d="M122.933 99.269L123.646 99.748L120.299 104.728L119.586 104.248L120.989 102.16L115.062 98.177L115.604 97.373L121.53 101.356L122.933 99.269Z" fill="white"></path><path d="M106.333 115.762C106.617 116.041 106.958 116.162 107.355 116.125C107.752 116.087 108.139 115.917 108.517 115.614C108.794 115.393 109 115.154 109.136 114.899C109.269 114.645 109.331 114.393 109.322 114.144C109.31 113.896 109.225 113.673 109.065 113.474C108.932 113.307 108.777 113.196 108.602 113.139C108.426 113.086 108.244 113.071 108.054 113.092C107.866 113.116 107.683 113.158 107.504 113.218C107.327 113.28 107.168 113.342 107.028 113.404L106.257 113.741C106.06 113.829 105.832 113.915 105.572 113.999C105.311 114.085 105.037 114.136 104.749 114.153C104.462 114.173 104.178 114.13 103.897 114.025C103.615 113.92 103.358 113.721 103.123 113.428C102.853 113.091 102.697 112.715 102.656 112.301C102.613 111.889 102.695 111.467 102.904 111.036C103.111 110.607 103.454 110.2 103.934 109.816C104.381 109.458 104.826 109.22 105.269 109.102C105.71 108.986 106.127 108.982 106.521 109.091C106.913 109.201 107.257 109.417 107.555 109.739L106.775 110.364C106.566 110.144 106.33 110.012 106.068 109.969C105.806 109.929 105.538 109.956 105.264 110.052C104.99 110.151 104.729 110.3 104.481 110.499C104.192 110.73 103.971 110.985 103.816 111.262C103.663 111.541 103.586 111.819 103.587 112.095C103.59 112.374 103.682 112.627 103.865 112.854C104.031 113.062 104.224 113.184 104.444 113.221C104.664 113.258 104.901 113.242 105.155 113.172C105.409 113.102 105.671 113.009 105.939 112.895L106.883 112.499C107.483 112.248 108.03 112.139 108.523 112.172C109.016 112.204 109.431 112.43 109.768 112.851C110.048 113.201 110.197 113.581 110.217 113.993C110.236 114.408 110.142 114.817 109.937 115.218C109.731 115.623 109.428 115.985 109.03 116.304C108.628 116.627 108.212 116.841 107.783 116.947C107.356 117.056 106.952 117.059 106.571 116.958C106.187 116.858 105.864 116.655 105.602 116.348L106.333 115.762Z" fill="white"></path><path d="M98.0051 114.119L101.811 121.156L97.5641 123.453L97.1551 122.697L100.55 120.861L99.2641 118.483L96.0891 120.201L95.6801 119.445L98.8551 117.728L97.5611 115.336L94.1121 117.202L93.7031 116.446L98.0051 114.119Z" fill="white"></path><path d="M89.106 118.376L91.5949 125.979L89.0259 126.82C88.4319 127.015 87.9112 127.073 87.4636 126.995C87.0168 126.919 86.6443 126.735 86.3462 126.444C86.048 126.152 85.8255 125.783 85.6789 125.335C85.5323 124.887 85.4938 124.46 85.5635 124.053C85.6332 123.647 85.825 123.283 86.1389 122.961C86.4535 122.641 86.9054 122.385 87.4944 122.192L89.5733 121.512L89.8456 122.343L87.7963 123.014C87.3904 123.147 87.0832 123.313 86.8746 123.513C86.6635 123.714 86.5379 123.941 86.4978 124.195C86.4561 124.453 86.4851 124.734 86.5847 125.038C86.6844 125.343 86.8284 125.59 87.0168 125.781C87.2052 125.971 87.4446 126.087 87.7351 126.129C88.0264 126.173 88.3774 126.128 88.7883 125.994L90.407 125.464L88.1853 118.678L89.106 118.376ZM86.6453 122.963L83.6562 120.16L84.7254 119.81L87.6848 122.623L86.6453 122.963Z" fill="white"></path><path d="M80.3275 128.966L77.0994 122.597L77.0064 122.609L75.5246 129.594L74.5176 129.726L76.3931 121.413L77.3846 121.283L81.3345 128.835L80.3275 128.966Z" fill="white"></path><path d="M67.7402 129.758L67.97 121.761L68.9383 121.789L68.7086 129.786L67.7402 129.758Z" fill="white"></path><path d="M54.8616 125.521L55.8134 125.702C55.8178 125.986 55.8707 126.246 55.9721 126.48C56.0709 126.713 56.2068 126.919 56.3796 127.098C56.5495 127.278 56.7478 127.427 56.9748 127.544C57.2017 127.662 57.4456 127.745 57.7066 127.795C58.1825 127.885 58.6364 127.846 59.0684 127.679C59.4978 127.512 59.8707 127.215 60.1873 126.79C60.5012 126.365 60.7228 125.812 60.8519 125.131C60.981 124.45 60.9773 123.855 60.841 123.344C60.7021 122.832 60.4636 122.42 60.1254 122.107C59.7847 121.793 59.3764 121.591 58.9005 121.501C58.6396 121.451 58.382 121.439 58.1279 121.465C57.8738 121.491 57.6349 121.556 57.4112 121.659C57.1845 121.765 56.9824 121.908 56.8049 122.089C56.6244 122.272 56.4803 122.494 56.3725 122.755L55.4208 122.574C55.5686 122.186 55.7673 121.851 56.0168 121.57C56.2663 121.289 56.5529 121.063 56.8766 120.894C57.1997 120.727 57.5475 120.62 57.9199 120.571C58.2897 120.522 58.6729 120.535 59.0694 120.61C59.7398 120.737 60.3048 121.014 60.7647 121.441C61.2245 121.867 61.5468 122.411 61.7316 123.071C61.9164 123.732 61.9302 124.477 61.7729 125.306C61.6157 126.135 61.3301 126.823 60.9162 127.37C60.5023 127.917 60.0034 128.305 59.4193 128.533C58.8352 128.762 58.208 128.812 57.5377 128.685C57.1411 128.61 56.7798 128.482 56.4536 128.3C56.125 128.119 55.841 127.89 55.6018 127.614C55.3621 127.341 55.1777 127.027 55.0485 126.674C54.9189 126.324 54.8566 125.939 54.8616 125.521Z" fill="white"></path><path d="M51.8751 118.805L48.9537 126.252L44.459 124.489L44.7729 123.689L48.3657 125.099L49.3528 122.582L45.9927 121.264L46.3065 120.464L49.6666 121.782L50.6594 119.251L47.0084 117.819L47.3222 117.019L51.8751 118.805Z" fill="white"></path><path d="M36.0099 117.56C35.8418 117.921 35.8421 118.282 36.0107 118.644C36.1794 119.005 36.4698 119.313 36.8819 119.567C37.1832 119.753 37.477 119.867 37.7632 119.91C38.0472 119.95 38.305 119.924 38.5366 119.832C38.7661 119.738 38.9479 119.582 39.082 119.365C39.1942 119.183 39.2474 119 39.2418 118.816C39.2325 118.633 39.1859 118.456 39.1019 118.285C39.0165 118.116 38.9156 117.957 38.7991 117.808C38.6813 117.662 38.5695 117.533 38.4638 117.422L37.8874 116.809C37.7389 116.653 37.5814 116.467 37.4149 116.251C37.2462 116.034 37.1059 115.792 36.9941 115.527C36.8786 115.263 36.8233 114.981 36.8281 114.681C36.8328 114.381 36.9337 114.071 37.1308 113.752C37.3579 113.385 37.6596 113.112 38.0357 112.934C38.4096 112.755 38.8345 112.691 39.3104 112.743C39.7841 112.794 40.2824 112.981 40.8053 113.304C41.2927 113.605 41.6662 113.944 41.9258 114.322C42.1832 114.698 42.3269 115.09 42.3569 115.497C42.3847 115.903 42.297 116.3 42.0937 116.689L41.2429 116.164C41.3795 115.893 41.4244 115.627 41.3778 115.365C41.3275 115.105 41.2114 114.862 41.0294 114.636C40.8438 114.411 40.6158 114.215 40.3455 114.048C40.0309 113.854 39.7169 113.73 39.4036 113.678C39.0889 113.627 38.8017 113.649 38.5419 113.742C38.2807 113.838 38.0735 114.01 37.9202 114.258C37.7806 114.484 37.7302 114.707 37.7689 114.927C37.8076 115.147 37.9026 115.365 38.0539 115.581C38.2053 115.796 38.38 116.012 38.5783 116.226L39.268 116.982C39.7054 117.464 39.9915 117.942 40.1266 118.417C40.2616 118.892 40.1875 119.359 39.9042 119.818C39.6689 120.199 39.3606 120.468 38.9794 120.624C38.5946 120.781 38.1786 120.83 37.7313 120.771C37.2805 120.713 36.838 120.55 36.4037 120.282C35.965 120.011 35.6236 119.692 35.3796 119.324C35.1341 118.958 34.9952 118.578 34.9627 118.185C34.9281 117.79 35.0112 117.417 35.2123 117.067L36.0099 117.56Z" fill="white"></path><path d="M25.0453 100.355C26.6025 99.5408 27.2045 97.618 26.3898 96.0607C25.5751 94.5035 23.6522 93.9016 22.095 94.7163C20.5378 95.531 19.9358 97.4538 20.7505 99.011C21.5652 100.568 23.4881 101.17 25.0453 100.355Z" fill="white"></path><path d="M123.028 49.0948C124.585 48.2801 125.187 46.3572 124.372 44.8C123.557 43.2428 121.635 42.6408 120.077 43.4555C118.52 44.2702 117.918 46.1931 118.733 47.7503C119.548 49.3075 121.47 49.9095 123.028 49.0948Z" fill="white"></path></svg>