<svg xmlns="http://www.w3.org/2000/svg" width="160" height="162" viewBox="0 0 160 162" fill="none"><circle cx="79.5613" cy="81.2907" r="71.4968" fill="#EBEBEB" fill-opacity="0.01" stroke="white"></circle><path d="M27.3017 85.4623L19.3131 85.0344L19.4627 82.2415C19.4925 81.685 19.6133 81.2312 19.8251 80.8801C20.0343 80.5288 20.3049 80.2733 20.6368 80.1138C20.9661 79.9541 21.3258 79.8847 21.7159 79.9056C22.0592 79.924 22.3393 80.0002 22.5564 80.1344C22.7737 80.266 22.942 80.4341 23.0614 80.6387C23.181 80.8407 23.2659 81.0578 23.316 81.29L23.394 81.2942C23.4227 81.0506 23.5217 80.8094 23.691 80.5707C23.8602 80.3321 24.0949 80.1373 24.3951 79.9865C24.6953 79.8356 25.056 79.7715 25.4772 79.7941C25.8777 79.8155 26.233 79.9258 26.5431 80.125C26.8532 80.3242 27.0914 80.6251 27.2576 81.0278C27.4238 81.4305 27.49 81.9465 27.4563 82.5758L27.3017 85.4623ZM26.4954 84.4489L26.5982 82.5298C26.632 81.8979 26.5338 81.4428 26.3036 81.1645C26.0709 80.8834 25.779 80.7334 25.4279 80.7146C25.1575 80.7001 24.9042 80.7557 24.6679 80.8813C24.4291 81.0067 24.234 81.1931 24.0825 81.4406C23.9284 81.6879 23.8421 81.9858 23.8234 82.3343L23.7181 84.3002L26.4954 84.4489ZM22.8756 84.2551L22.9717 82.4608C22.9873 82.1695 22.9441 81.9038 22.8422 81.6636C22.7405 81.4209 22.5893 81.225 22.3886 81.076C22.1881 80.9245 21.9474 80.8412 21.6666 80.8261C21.3155 80.8073 21.0112 80.9136 20.7537 81.1449C20.4936 81.3761 20.3493 81.757 20.3209 82.2875L20.2231 84.113L22.8756 84.2551Z" fill="white"></path><path d="M28.3171 75.6527L20.5332 73.8059L21.6478 69.1082L22.484 69.3066L21.593 73.0617L24.2231 73.6857L25.0564 70.1739L25.8926 70.3723L25.0593 73.8841L27.7046 74.5118L28.61 70.6958L29.4462 70.8942L28.3171 75.6527Z" fill="white"></path><path d="M27.3203 59.7683C26.9389 59.6525 26.5811 59.7035 26.2471 59.9213C25.9131 60.139 25.649 60.4697 25.4549 60.9135C25.3129 61.2379 25.2412 61.5448 25.2397 61.8341C25.2393 62.121 25.3012 62.3726 25.4254 62.589C25.5506 62.803 25.7302 62.9611 25.964 63.0634C26.1596 63.149 26.3482 63.176 26.5296 63.1446C26.7098 63.1097 26.8787 63.0386 27.0365 62.9314C27.1919 62.8232 27.3349 62.701 27.4655 62.5648C27.5937 62.4276 27.7055 62.2989 27.8008 62.1785L28.3268 61.5218C28.4604 61.3529 28.6225 61.1708 28.8131 60.9756C29.0047 60.7781 29.2238 60.6053 29.4705 60.4574C29.7158 60.306 29.9873 60.2116 30.2851 60.1742C30.5828 60.1368 30.9035 60.1932 31.2471 60.3435C31.6431 60.5168 31.9556 60.7771 32.1845 61.1246C32.4144 61.4696 32.537 61.8814 32.5522 62.3599C32.5685 62.836 32.4534 63.3556 32.2071 63.9187C31.9775 64.4436 31.6939 64.861 31.3565 65.171C31.0201 65.4786 30.6524 65.6759 30.2533 65.7629C29.8553 65.8474 29.4497 65.8163 29.0363 65.6696L29.4372 64.7534C29.7243 64.8507 29.9941 64.8578 30.2464 64.7749C30.4974 64.6886 30.7218 64.5394 30.9196 64.3276C31.1162 64.1122 31.2781 63.859 31.4055 63.568C31.5537 63.2292 31.6319 62.901 31.6401 62.5834C31.6459 62.2647 31.5842 61.9833 31.4551 61.7392C31.3236 61.4941 31.1242 61.3131 30.857 61.1962C30.6136 61.0897 30.3859 61.0711 30.1737 61.1402C29.9615 61.2094 29.7591 61.3341 29.5666 61.5142C29.3741 61.6944 29.1857 61.8976 29.0014 62.124L28.3492 62.9131C27.9341 63.4136 27.5008 63.7641 27.0492 63.9646C26.5977 64.165 26.125 64.1571 25.6312 63.9411C25.2208 63.7615 24.9115 63.494 24.7031 63.1385C24.4935 62.7796 24.3864 62.3746 24.3819 61.9236C24.3761 61.4691 24.4755 61.008 24.6801 60.5404C24.8868 60.068 25.1552 59.6851 25.4853 59.3918C25.8131 59.0975 26.1694 58.9066 26.5544 58.8192C26.9405 58.7295 27.321 58.7595 27.6961 58.9094L27.3203 59.7683Z" fill="white"></path><path d="M29.2845 53.732L28.5713 53.2526L31.9187 48.2731L32.6319 48.7526L31.2284 50.8403L37.1545 54.8241L36.614 55.6281L30.6879 51.6443L29.2845 53.732Z" fill="white"></path><path d="M45.8903 37.2396C45.6063 36.9599 45.2658 36.8389 44.8689 36.8765C44.4719 36.9141 44.0844 37.0843 43.7064 37.3871C43.4299 37.6085 43.2239 37.847 43.0881 38.1024C42.9545 38.3563 42.8924 38.6079 42.9019 38.8572C42.9134 39.1048 42.9989 39.3283 43.1584 39.5275C43.2919 39.6942 43.4463 39.8057 43.6216 39.8622C43.7974 39.9149 43.98 39.9305 44.1695 39.9088C44.3574 39.8852 44.5408 39.8434 44.7197 39.7835C44.897 39.7216 45.0558 39.6595 45.1961 39.5972L45.967 39.26C46.1638 39.1725 46.3919 39.0866 46.6513 39.0022C46.9128 38.9163 47.1871 38.8651 47.4742 38.8487C47.7617 38.8286 48.0461 38.8712 48.3271 38.9763C48.6082 39.0815 48.866 39.2805 49.1004 39.5732C49.3706 39.9106 49.5264 40.2863 49.5677 40.7003C49.611 41.1127 49.5282 41.5343 49.3194 41.9651C49.1126 42.3943 48.7694 42.801 48.2897 43.1851C47.8425 43.5433 47.3975 43.7812 46.9546 43.899C46.5138 44.0151 46.0966 44.019 45.7028 43.9106C45.3111 43.8006 44.9663 43.5846 44.6684 43.2627L45.449 42.6376C45.6581 42.8571 45.8937 42.9887 46.1556 43.0325C46.418 43.0726 46.686 43.0448 46.9596 42.9491C47.2337 42.8497 47.4947 42.7008 47.7427 42.5022C48.0313 42.271 48.2531 42.0167 48.4079 41.7392C48.5611 41.4598 48.6372 41.1819 48.6362 40.9058C48.6336 40.6276 48.5412 40.3747 48.3589 40.147C48.1928 39.9397 47.9998 39.8174 47.7797 39.7801C47.5597 39.7428 47.3226 39.7592 47.0684 39.8292C46.8143 39.8993 46.553 39.9918 46.2847 40.1066L45.3405 40.5024C44.7403 40.7529 44.1938 40.8619 43.7008 40.8297C43.2079 40.7974 42.7929 40.5709 42.456 40.1501C42.176 39.8005 42.0263 39.4199 42.007 39.0083C41.9881 38.5931 42.0814 38.1847 42.287 37.7832C42.493 37.378 42.7952 37.0159 43.1936 36.6968C43.596 36.3745 44.0116 36.1601 44.4402 36.0538C44.8672 35.9454 45.2714 35.9419 45.653 36.0434C46.0365 36.1432 46.3596 36.3466 46.622 36.6535L45.8903 37.2396Z" fill="white"></path><path d="M54.2181 38.8813L50.4122 31.8446L54.6589 29.5476L55.0677 30.3035L51.6731 32.1396L52.9591 34.5172L56.1338 32.8001L56.5427 33.556L53.3679 35.2731L54.6614 37.6645L58.111 35.7987L58.5198 36.5546L54.2181 38.8813Z" fill="white"></path><path d="M63.1164 34.6244L60.6275 27.0214L63.1964 26.1804C63.7904 25.986 64.3112 25.9278 64.7588 26.006C65.2055 26.0817 65.578 26.2653 65.8762 26.5568C66.1744 26.8483 66.3968 27.218 66.5435 27.666C66.6901 28.1139 66.7286 28.5411 66.6589 28.9476C66.5891 29.354 66.3974 29.7182 66.0835 30.0402C65.7688 30.3596 65.317 30.6158 64.728 30.8086L62.649 31.4892L62.3768 30.6576L64.426 29.9868C64.8319 29.8539 65.1392 29.6876 65.3478 29.4877C65.5589 29.2871 65.6844 29.0597 65.7245 28.8054C65.7662 28.5479 65.7373 28.2669 65.6376 27.9625C65.538 27.6581 65.394 27.4107 65.2056 27.2202C65.0172 27.0298 64.7778 26.9136 64.4873 26.8717C64.196 26.8273 63.8449 26.8724 63.4341 27.0069L61.8155 27.5367L64.0371 34.323L63.1164 34.6244ZM65.5771 30.0374L68.5662 32.8403L67.497 33.1903L64.5376 30.3777L65.5771 30.0374Z" fill="white"></path><path d="M71.8956 24.0343L75.1237 30.4039L75.2166 30.3918L76.6985 23.4063L77.7055 23.2747L75.83 31.588L74.8384 31.7176L70.8885 24.166L71.8956 24.0343Z" fill="white"></path><path d="M84.4833 23.2426L84.2536 31.2393L83.2852 31.2115L83.515 23.2148L84.4833 23.2426Z" fill="white"></path><path d="M97.355 27.4793L96.4032 27.2987C96.3988 27.0143 96.3459 26.7551 96.2445 26.5212C96.1457 26.2877 96.0098 26.0817 95.837 25.9031C95.6671 25.7225 95.4688 25.5735 95.2418 25.4562C95.0149 25.339 94.771 25.2556 94.51 25.2061C94.0341 25.1158 93.5802 25.1543 93.1482 25.3215C92.7188 25.4892 92.3459 25.7856 92.0293 26.2106C91.7154 26.6361 91.4938 27.1891 91.3647 27.8697C91.2356 28.5503 91.2393 29.146 91.3756 29.6569C91.5145 30.1683 91.753 30.5807 92.0912 30.894C92.4319 31.2078 92.8402 31.4098 93.3161 31.5001C93.577 31.5496 93.8346 31.5614 94.0887 31.5353C94.3428 31.5093 94.5817 31.4446 94.8054 31.3413C95.0321 31.2359 95.2342 31.0926 95.4117 30.9116C95.5922 30.7285 95.7363 30.5067 95.8441 30.2462L96.7958 30.4267C96.648 30.8148 96.4493 31.1495 96.1998 31.4309C95.9503 31.7122 95.6637 31.9375 95.34 32.1067C95.0169 32.2733 94.6691 32.381 94.2967 32.4296C93.9269 32.4788 93.5437 32.4657 93.1472 32.3905C92.4768 32.2633 91.9118 31.9865 91.4519 31.56C90.9921 31.1335 90.6698 30.5899 90.485 29.9293C90.3002 29.2687 90.2864 28.5239 90.4437 27.695C90.6009 26.866 90.8865 26.178 91.3004 25.631C91.7143 25.0839 92.2132 24.6962 92.7973 24.4677C93.3814 24.2392 94.0086 24.1886 94.6789 24.3157C95.0755 24.391 95.4368 24.5191 95.763 24.7003C96.0916 24.8819 96.3756 25.1107 96.6148 25.3867C96.8545 25.6601 97.0389 25.9734 97.1681 26.3266C97.2977 26.6772 97.36 27.0614 97.355 27.4793Z" fill="white"></path><path d="M100.344 34.1959L103.265 26.7484L107.76 28.5115L107.446 29.3115L103.853 27.9022L102.866 30.4186L106.226 31.7367L105.913 32.5367L102.552 31.2186L101.56 33.7496L105.211 35.1818L104.897 35.9818L100.344 34.1959Z" fill="white"></path><path d="M116.212 35.4409C116.38 35.0795 116.38 34.7182 116.211 34.3569C116.043 33.9956 115.752 33.6878 115.34 33.4332C115.039 33.2471 114.745 33.133 114.459 33.0909C114.175 33.0502 113.917 33.0762 113.685 33.1688C113.456 33.2627 113.274 33.4183 113.14 33.6354C113.028 33.8171 112.975 34 112.98 34.1841C112.99 34.3673 113.036 34.5446 113.12 34.7158C113.206 34.8849 113.306 35.0436 113.423 35.1921C113.541 35.3383 113.653 35.467 113.758 35.5783L114.335 36.1913C114.483 36.3473 114.641 36.5334 114.807 36.7494C114.976 36.9669 115.116 37.2081 115.228 37.4731C115.343 37.7372 115.399 38.0193 115.394 38.3194C115.389 38.6194 115.288 38.929 115.091 39.2481C114.864 39.6159 114.562 39.8887 114.186 40.0665C113.812 40.2457 113.388 40.3093 112.912 40.2572C112.438 40.2064 111.94 40.0196 111.417 39.6966C110.929 39.3956 110.556 39.0562 110.296 38.6786C110.039 38.3024 109.895 37.9106 109.865 37.5033C109.837 37.0974 109.925 36.7001 110.128 36.3115L110.979 36.8369C110.843 37.1076 110.798 37.3737 110.844 37.6351C110.895 37.8957 111.011 38.1389 111.193 38.3645C111.378 38.5893 111.606 38.7852 111.877 38.9522C112.191 39.1465 112.505 39.27 112.818 39.3227C113.133 39.3732 113.42 39.3517 113.68 39.2581C113.941 39.1623 114.149 38.9903 114.302 38.7421C114.441 38.5161 114.492 38.2932 114.453 38.0734C114.414 37.8536 114.319 37.6358 114.168 37.4199C114.017 37.204 113.842 36.9889 113.644 36.7747L112.954 36.0181C112.517 35.5368 112.231 35.0586 112.095 34.5834C111.96 34.1082 112.035 33.6413 112.318 33.1827C112.553 32.8016 112.861 32.5329 113.243 32.3765C113.627 32.2193 114.043 32.1702 114.491 32.2291C114.942 32.2871 115.384 32.4503 115.818 32.7185C116.257 32.9894 116.598 33.3089 116.842 33.677C117.088 34.0428 117.227 34.4224 117.259 34.8159C117.294 35.2107 117.211 35.5833 117.01 35.9336L116.212 35.4409Z" fill="white"></path><path d="M131.921 76.5385L139.91 76.9663L139.76 79.7592C139.73 80.3157 139.609 80.7695 139.398 81.1207C139.188 81.472 138.918 81.7274 138.586 81.887C138.257 82.0467 137.897 82.1161 137.507 82.0952C137.164 82.0768 136.883 82.0005 136.666 81.8663C136.449 81.7347 136.281 81.5666 136.161 81.362C136.042 81.16 135.957 80.9429 135.907 80.7107L135.829 80.7065C135.8 80.9502 135.701 81.1913 135.532 81.43C135.362 81.6687 135.128 81.8634 134.828 82.0143C134.527 82.1651 134.167 82.2292 133.745 82.2067C133.345 82.1852 132.99 82.0749 132.68 81.8757C132.369 81.6766 132.131 81.3756 131.965 80.9729C131.799 80.5703 131.733 80.0543 131.766 79.4249L131.921 76.5385ZM132.727 77.5518L132.625 79.4709C132.591 80.1028 132.689 80.5579 132.919 80.8363C133.152 81.1174 133.444 81.2673 133.795 81.2861C134.065 81.3006 134.318 81.245 134.555 81.1195C134.794 80.994 134.989 80.8076 135.14 80.5601C135.294 80.3128 135.381 80.0149 135.399 79.6665L135.505 77.7005L132.727 77.5518ZM136.347 77.7457L136.251 79.54C136.235 79.8312 136.279 80.0969 136.38 80.3371C136.482 80.5799 136.633 80.7757 136.834 80.9247C137.035 81.0763 137.275 81.1596 137.556 81.1746C137.907 81.1934 138.211 81.0871 138.469 80.8558C138.729 80.6246 138.873 80.2437 138.902 79.7132L139 77.8877L136.347 77.7457Z" fill="white"></path><path d="M130.909 86.348L138.693 88.1948L137.579 92.8925L136.743 92.6942L137.634 88.939L135.003 88.315L134.17 91.8269L133.334 91.6285L134.167 88.1166L131.522 87.489L130.617 91.3049L129.78 91.1065L130.909 86.348Z" fill="white"></path><path d="M131.902 102.232C132.284 102.348 132.642 102.297 132.976 102.079C133.31 101.862 133.574 101.531 133.768 101.087C133.91 100.763 133.981 100.456 133.983 100.167C133.983 99.8797 133.921 99.6281 133.797 99.4117C133.672 99.1978 133.492 99.0396 133.259 98.9373C133.063 98.8518 132.874 98.8247 132.693 98.8562C132.513 98.891 132.344 98.9621 132.186 99.0693C132.031 99.1776 131.888 99.2998 131.757 99.4359C131.629 99.5731 131.517 99.7019 131.422 99.8222L130.896 100.479C130.762 100.648 130.6 100.83 130.41 101.025C130.218 101.223 129.999 101.395 129.752 101.543C129.507 101.695 129.235 101.789 128.938 101.827C128.64 101.864 128.319 101.808 127.976 101.657C127.58 101.484 127.267 101.224 127.038 100.876C126.808 100.531 126.686 100.119 126.67 99.6408C126.654 99.1647 126.769 98.6451 127.016 98.0821C127.245 97.5572 127.529 97.1397 127.866 96.8297C128.203 96.5221 128.57 96.3248 128.969 96.2379C129.367 96.1533 129.773 96.1844 130.186 96.3311L129.786 97.2473C129.498 97.1501 129.229 97.1429 128.976 97.2258C128.725 97.3122 128.501 97.4613 128.303 97.6732C128.106 97.8885 127.945 98.1417 127.817 98.4328C127.669 98.7716 127.591 99.0998 127.583 99.4174C127.577 99.736 127.638 100.017 127.768 100.262C127.899 100.507 128.098 100.688 128.366 100.805C128.609 100.911 128.837 100.93 129.049 100.86C129.261 100.791 129.464 100.667 129.656 100.487C129.849 100.306 130.037 100.103 130.221 99.8768L130.873 99.0877C131.289 98.5871 131.722 98.2366 132.173 98.0362C132.625 97.8358 133.098 97.8436 133.591 98.0597C134.002 98.2392 134.311 98.5067 134.52 98.8622C134.729 99.2211 134.836 99.6261 134.841 100.077C134.847 100.532 134.747 100.993 134.543 101.46C134.336 101.933 134.067 102.316 133.737 102.609C133.41 102.903 133.053 103.094 132.668 103.182C132.282 103.271 131.902 103.241 131.527 103.091L131.902 102.232Z" fill="white"></path><path d="M129.932 108.269L130.646 108.748L127.298 113.728L126.585 113.248L127.988 111.16L122.062 107.177L122.603 106.373L128.529 110.356L129.932 108.269Z" fill="white"></path><path d="M113.332 124.762C113.616 125.041 113.957 125.162 114.354 125.125C114.751 125.087 115.138 124.917 115.516 124.614C115.793 124.393 115.999 124.154 116.135 123.899C116.268 123.645 116.33 123.393 116.321 123.144C116.309 122.896 116.224 122.673 116.064 122.474C115.931 122.307 115.776 122.196 115.601 122.139C115.425 122.086 115.243 122.071 115.053 122.092C114.865 122.116 114.682 122.158 114.503 122.218C114.326 122.28 114.167 122.342 114.027 122.404L113.256 122.741C113.059 122.829 112.831 122.915 112.571 122.999C112.31 123.085 112.036 123.136 111.748 123.153C111.461 123.173 111.177 123.13 110.896 123.025C110.614 122.92 110.357 122.721 110.122 122.428C109.852 122.091 109.696 121.715 109.655 121.301C109.612 120.889 109.694 120.467 109.903 120.036C110.11 119.607 110.453 119.2 110.933 118.816C111.38 118.458 111.825 118.22 112.268 118.102C112.709 117.986 113.126 117.982 113.52 118.091C113.912 118.201 114.256 118.417 114.554 118.739L113.774 119.364C113.565 119.144 113.329 119.012 113.067 118.969C112.805 118.929 112.537 118.956 112.263 119.052C111.989 119.151 111.728 119.3 111.48 119.499C111.191 119.73 110.97 119.985 110.815 120.262C110.662 120.541 110.585 120.819 110.586 121.095C110.589 121.374 110.681 121.627 110.864 121.854C111.03 122.062 111.223 122.184 111.443 122.221C111.663 122.258 111.9 122.242 112.154 122.172C112.408 122.102 112.67 122.009 112.938 121.895L113.882 121.499C114.482 121.248 115.029 121.139 115.522 121.172C116.015 121.204 116.43 121.43 116.767 121.851C117.047 122.201 117.196 122.581 117.216 122.993C117.235 123.408 117.141 123.817 116.936 124.218C116.73 124.623 116.427 124.985 116.029 125.304C115.627 125.627 115.211 125.841 114.782 125.947C114.355 126.056 113.951 126.059 113.57 125.958C113.186 125.858 112.863 125.655 112.601 125.348L113.332 124.762Z" fill="white"></path><path d="M105.005 123.119L108.811 130.156L104.564 132.453L104.155 131.697L107.55 129.861L106.264 127.483L103.089 129.201L102.68 128.445L105.855 126.728L104.561 124.336L101.112 126.202L100.703 125.446L105.005 123.119Z" fill="white"></path><path d="M96.1063 127.376L98.5952 134.979L96.0262 135.82C95.4322 136.015 94.9115 136.073 94.4639 135.995C94.0171 135.919 93.6446 135.735 93.3465 135.444C93.0483 135.152 92.8258 134.783 92.6792 134.335C92.5326 133.887 92.4941 133.46 92.5638 133.053C92.6335 132.647 92.8253 132.283 93.1392 131.961C93.4538 131.641 93.9057 131.385 94.4947 131.192L96.5736 130.512L96.8459 131.343L94.7966 132.014C94.3907 132.147 94.0835 132.313 93.8749 132.513C93.6638 132.714 93.5382 132.941 93.4981 133.195C93.4564 133.453 93.4854 133.734 93.585 134.038C93.6847 134.343 93.8287 134.59 94.0171 134.781C94.2055 134.971 94.4449 135.087 94.7354 135.129C95.0267 135.173 95.3777 135.128 95.7886 134.994L97.4072 134.464L95.1856 127.678L96.1063 127.376ZM93.6456 131.963L90.6565 129.16L91.7257 128.81L94.6851 131.623L93.6456 131.963Z" fill="white"></path><path d="M87.3271 137.966L84.099 131.597L84.006 131.609L82.5242 138.594L81.5172 138.726L83.3927 130.413L84.3842 130.283L88.3341 137.835L87.3271 137.966Z" fill="white"></path><path d="M74.7393 138.758L74.9691 130.761L75.9374 130.789L75.7077 138.786L74.7393 138.758Z" fill="white"></path><path d="M61.8618 134.521L62.8136 134.702C62.818 134.986 62.8709 135.246 62.9723 135.48C63.0711 135.713 63.207 135.919 63.3798 136.098C63.5497 136.278 63.748 136.427 63.975 136.544C64.2019 136.662 64.4458 136.745 64.7068 136.795C65.1827 136.885 65.6366 136.846 66.0686 136.679C66.498 136.512 66.8709 136.215 67.1875 135.79C67.5014 135.365 67.723 134.812 67.8521 134.131C67.9812 133.45 67.9775 132.855 67.8412 132.344C67.7023 131.832 67.4638 131.42 67.1256 131.107C66.7849 130.793 66.3766 130.591 65.9007 130.501C65.6398 130.451 65.3822 130.439 65.1281 130.465C64.874 130.491 64.6351 130.556 64.4114 130.659C64.1847 130.765 63.9826 130.908 63.8051 131.089C63.6246 131.272 63.4805 131.494 63.3727 131.755L62.421 131.574C62.5688 131.186 62.7675 130.851 63.017 130.57C63.2665 130.289 63.5531 130.063 63.8768 129.894C64.1999 129.727 64.5477 129.62 64.9201 129.571C65.2899 129.522 65.6731 129.535 66.0696 129.61C66.74 129.737 67.305 130.014 67.7649 130.441C68.2247 130.867 68.547 131.411 68.7318 132.071C68.9166 132.732 68.9304 133.477 68.7731 134.306C68.6159 135.135 68.3303 135.823 67.9164 136.37C67.5025 136.917 67.0036 137.305 66.4195 137.533C65.8354 137.762 65.2082 137.812 64.5379 137.685C64.1413 137.61 63.78 137.482 63.4538 137.3C63.1252 137.119 62.8412 136.89 62.602 136.614C62.3623 136.341 62.1779 136.027 62.0487 135.674C61.9191 135.324 61.8568 134.939 61.8618 134.521Z" fill="white"></path><path d="M58.8748 127.805L55.9534 135.252L51.4587 133.489L51.7726 132.689L55.3654 134.099L56.3525 131.582L52.9924 130.264L53.3062 129.464L56.6663 130.782L57.6591 128.251L54.0081 126.819L54.3219 126.019L58.8748 127.805Z" fill="white"></path><path d="M43.0105 126.56C42.8424 126.921 42.8427 127.282 43.0113 127.644C43.18 128.005 43.4704 128.313 43.8825 128.567C44.1838 128.753 44.4776 128.867 44.7638 128.91C45.0478 128.95 45.3056 128.924 45.5372 128.832C45.7667 128.738 45.9485 128.582 46.0826 128.365C46.1948 128.183 46.248 128 46.2424 127.816C46.2331 127.633 46.1865 127.456 46.1025 127.285C46.0171 127.116 45.9162 126.957 45.7997 126.808C45.6819 126.662 45.5701 126.533 45.4644 126.422L44.888 125.809C44.7395 125.653 44.582 125.467 44.4155 125.251C44.2468 125.034 44.1065 124.792 43.9947 124.527C43.8792 124.263 43.8239 123.981 43.8287 123.681C43.8334 123.381 43.9343 123.071 44.1314 122.752C44.3585 122.385 44.6602 122.112 45.0363 121.934C45.4102 121.755 45.8351 121.691 46.311 121.743C46.7847 121.794 47.283 121.981 47.8059 122.304C48.2933 122.605 48.6668 122.944 48.9264 123.322C49.1838 123.698 49.3275 124.09 49.3575 124.497C49.3853 124.903 49.2976 125.3 49.0943 125.689L48.2435 125.164C48.3801 124.893 48.425 124.627 48.3784 124.365C48.3281 124.105 48.212 123.862 48.03 123.636C47.8444 123.411 47.6164 123.215 47.3461 123.048C47.0315 122.854 46.7175 122.73 46.4042 122.678C46.0895 122.627 45.8023 122.649 45.5425 122.742C45.2813 122.838 45.0741 123.01 44.9208 123.258C44.7812 123.484 44.7308 123.707 44.7695 123.927C44.8082 124.147 44.9032 124.365 45.0545 124.581C45.2059 124.796 45.3806 125.012 45.5789 125.226L46.2686 125.982C46.706 126.464 46.9921 126.942 47.1272 127.417C47.2622 127.892 47.1881 128.359 46.9048 128.818C46.6695 129.199 46.3612 129.468 45.98 129.624C45.5952 129.781 45.1792 129.83 44.7319 129.771C44.2811 129.713 43.8386 129.55 43.4043 129.282C42.9656 129.011 42.6242 128.692 42.3802 128.324C42.1347 127.958 41.9958 127.578 41.9633 127.185C41.9287 126.79 42.0118 126.417 42.2129 126.067L43.0105 126.56Z" fill="white"></path><circle cx="30.5701" cy="106.536" r="3.18218" transform="rotate(-27.6172 30.5701 106.536)" fill="white"></circle><circle cx="128.553" cy="55.2756" r="3.18218" transform="rotate(-27.6172 128.553 55.2756)" fill="white"></circle></svg>