<svg xmlns="http://www.w3.org/2000/svg" width="160" height="162" viewBox="0 0 160 162" fill="none"><path d="M79.5613 152.787C119.048 152.787 151.058 120.777 151.058 81.2907C151.058 41.8041 119.048 9.79388 79.5613 9.79388C40.0747 9.79388 8.06445 41.8041 8.06445 81.2907C8.06445 120.777 40.0747 152.787 79.5613 152.787Z" fill="#EBEBEB" fill-opacity="0.3" stroke="white"></path><path d="M27.3011 85.4623L19.3125 85.0344L19.4621 82.2415C19.4919 81.685 19.6127 81.2312 19.8245 80.8801C20.0337 80.5288 20.3043 80.2733 20.6362 80.1138C20.9655 79.9541 21.3252 79.8847 21.7153 79.9056C22.0586 79.924 22.3387 80.0002 22.5558 80.1344C22.7731 80.266 22.9414 80.4341 23.0608 80.6387C23.1804 80.8407 23.2653 81.0578 23.3154 81.29L23.3934 81.2942C23.4221 81.0506 23.5211 80.8094 23.6904 80.5707C23.8596 80.3321 24.0943 80.1373 24.3945 79.9865C24.6947 79.8356 25.0554 79.7715 25.4766 79.7941C25.8771 79.8155 26.2324 79.9258 26.5425 80.125C26.8526 80.3242 27.0908 80.6251 27.257 81.0278C27.4232 81.4305 27.4894 81.9465 27.4557 82.5758L27.3011 85.4623ZM26.4948 84.4489L26.5976 82.5298C26.6314 81.8979 26.5332 81.4428 26.303 81.1645C26.0703 80.8834 25.7784 80.7334 25.4273 80.7146C25.1569 80.7001 24.9036 80.7557 24.6673 80.8813C24.4285 81.0067 24.2334 81.1931 24.0819 81.4406C23.9278 81.6879 23.8415 81.9858 23.8228 82.3343L23.7175 84.3002L26.4948 84.4489ZM22.875 84.2551L22.9711 82.4608C22.9867 82.1695 22.9435 81.9038 22.8416 81.6636C22.7399 81.4209 22.5887 81.225 22.388 81.076C22.1875 80.9245 21.9468 80.8412 21.666 80.8261C21.3149 80.8073 21.0106 80.9136 20.7531 81.1449C20.493 81.3761 20.3487 81.757 20.3203 82.2875L20.2225 84.113L22.875 84.2551Z" fill="white"></path><path d="M28.3171 75.6527L20.5332 73.8059L21.6478 69.1082L22.484 69.3066L21.593 73.0617L24.2231 73.6857L25.0564 70.1739L25.8926 70.3723L25.0593 73.8841L27.7046 74.5118L28.61 70.6958L29.4462 70.8942L28.3171 75.6527Z" fill="white"></path><path d="M27.3195 59.7683C26.9381 59.6525 26.5803 59.7035 26.2463 59.9213C25.9123 60.139 25.6482 60.4697 25.4541 60.9135C25.3121 61.2379 25.2404 61.5448 25.2389 61.8341C25.2385 62.121 25.3004 62.3726 25.4246 62.589C25.5498 62.803 25.7294 62.9611 25.9632 63.0634C26.1588 63.149 26.3474 63.176 26.5288 63.1446C26.709 63.1097 26.8779 63.0386 27.0357 62.9314C27.1911 62.8232 27.3341 62.701 27.4647 62.5648C27.5929 62.4276 27.7047 62.2989 27.8 62.1785L28.326 61.5218C28.4596 61.3529 28.6217 61.1708 28.8123 60.9756C29.0039 60.7781 29.223 60.6053 29.4697 60.4574C29.715 60.306 29.9865 60.2116 30.2843 60.1742C30.582 60.1368 30.9027 60.1932 31.2463 60.3435C31.6423 60.5168 31.9548 60.7771 32.1837 61.1246C32.4136 61.4696 32.5362 61.8814 32.5514 62.3599C32.5677 62.836 32.4526 63.3556 32.2063 63.9187C31.9767 64.4436 31.6931 64.861 31.3557 65.171C31.0193 65.4786 30.6516 65.6759 30.2525 65.7629C29.8545 65.8474 29.4489 65.8163 29.0355 65.6696L29.4364 64.7534C29.7235 64.8507 29.9933 64.8578 30.2456 64.7749C30.4966 64.6886 30.721 64.5394 30.9188 64.3276C31.1154 64.1122 31.2773 63.859 31.4047 63.568C31.5529 63.2292 31.6311 62.901 31.6393 62.5834C31.6451 62.2647 31.5834 61.9833 31.4543 61.7392C31.3228 61.4941 31.1234 61.3131 30.8562 61.1962C30.6128 61.0897 30.3851 61.0711 30.1729 61.1402C29.9607 61.2094 29.7583 61.3341 29.5658 61.5142C29.3733 61.6944 29.1849 61.8976 29.0006 62.124L28.3484 62.9131C27.9333 63.4136 27.5 63.7641 27.0484 63.9646C26.5969 64.165 26.1242 64.1571 25.6304 63.9411C25.22 63.7615 24.9107 63.494 24.7023 63.1385C24.4927 62.7796 24.3856 62.3746 24.3811 61.9236C24.3753 61.4691 24.4747 61.008 24.6793 60.5404C24.886 60.068 25.1544 59.6851 25.4845 59.3918C25.8123 59.0975 26.1686 58.9066 26.5536 58.8192C26.9397 58.7295 27.3202 58.7595 27.6953 58.9094L27.3195 59.7683Z" fill="white"></path><path d="M29.2855 53.732L28.5723 53.2526L31.9197 48.2731L32.6329 48.7526L31.2294 50.8403L37.1555 54.8241L36.615 55.6281L30.6889 51.6443L29.2855 53.732Z" fill="white"></path><path d="M45.8896 37.2396C45.6056 36.9599 45.2651 36.8389 44.8682 36.8765C44.4712 36.9141 44.0837 37.0843 43.7057 37.3871C43.4292 37.6085 43.2232 37.847 43.0874 38.1024C42.9538 38.3563 42.8917 38.6079 42.9012 38.8572C42.9127 39.1048 42.9982 39.3283 43.1577 39.5275C43.2912 39.6942 43.4456 39.8057 43.6209 39.8622C43.7967 39.9149 43.9793 39.9305 44.1688 39.9088C44.3567 39.8852 44.5401 39.8434 44.719 39.7835C44.8963 39.7216 45.0551 39.6595 45.1954 39.5972L45.9663 39.26C46.1631 39.1725 46.3912 39.0866 46.6506 39.0022C46.9121 38.9163 47.1864 38.8651 47.4735 38.8487C47.761 38.8286 48.0454 38.8712 48.3264 38.9763C48.6075 39.0815 48.8653 39.2805 49.0997 39.5732C49.3699 39.9106 49.5257 40.2863 49.567 40.7003C49.6103 41.1127 49.5275 41.5343 49.3187 41.9651C49.1119 42.3943 48.7687 42.801 48.289 43.1851C47.8418 43.5433 47.3968 43.7812 46.9539 43.899C46.5131 44.0151 46.0959 44.019 45.7021 43.9106C45.3104 43.8006 44.9656 43.5846 44.6677 43.2627L45.4483 42.6376C45.6574 42.8571 45.893 42.9887 46.1549 43.0325C46.4173 43.0726 46.6853 43.0448 46.9589 42.9491C47.233 42.8497 47.494 42.7008 47.742 42.5022C48.0306 42.271 48.2524 42.0167 48.4072 41.7392C48.5604 41.4598 48.6365 41.1819 48.6355 40.9058C48.6329 40.6276 48.5405 40.3747 48.3582 40.147C48.1921 39.9397 47.9991 39.8174 47.779 39.7801C47.559 39.7428 47.3219 39.7592 47.0677 39.8292C46.8136 39.8993 46.5523 39.9918 46.284 40.1066L45.3398 40.5024C44.7396 40.7529 44.1931 40.8619 43.7001 40.8297C43.2072 40.7974 42.7922 40.5709 42.4553 40.1501C42.1753 39.8005 42.0256 39.4199 42.0063 39.0083C41.9874 38.5931 42.0807 38.1847 42.2863 37.7832C42.4923 37.378 42.7945 37.0159 43.1929 36.6968C43.5953 36.3745 44.0109 36.1601 44.4395 36.0538C44.8665 35.9454 45.2707 35.9419 45.6523 36.0434C46.0358 36.1432 46.3589 36.3466 46.6213 36.6535L45.8896 37.2396Z" fill="white"></path><path d="M54.218 38.8813L50.4121 31.8446L54.6588 29.5476L55.0676 30.3035L51.673 32.1396L52.959 34.5172L56.1337 32.8001L56.5426 33.556L53.3678 35.2731L54.6613 37.6645L58.1109 35.7987L58.5197 36.5546L54.218 38.8813Z" fill="white"></path><path d="M63.1159 34.6244L60.627 27.0214L63.1959 26.1804C63.7899 25.986 64.3107 25.9278 64.7583 26.006C65.205 26.0817 65.5775 26.2653 65.8757 26.5568C66.1739 26.8483 66.3963 27.218 66.543 27.666C66.6896 28.1139 66.7281 28.5411 66.6584 28.9476C66.5886 29.354 66.3969 29.7182 66.083 30.0402C65.7683 30.3596 65.3165 30.6158 64.7275 30.8086L62.6485 31.4892L62.3763 30.6576L64.4255 29.9868C64.8314 29.8539 65.1387 29.6876 65.3473 29.4877C65.5584 29.2871 65.6839 29.0597 65.724 28.8054C65.7657 28.5479 65.7368 28.2669 65.6371 27.9625C65.5375 27.6581 65.3935 27.4107 65.2051 27.2202C65.0167 27.0298 64.7773 26.9136 64.4868 26.8717C64.1955 26.8273 63.8444 26.8724 63.4336 27.0069L61.815 27.5367L64.0366 34.323L63.1159 34.6244ZM65.5766 30.0374L68.5657 32.8403L67.4965 33.1903L64.5371 30.3777L65.5766 30.0374Z" fill="white"></path><path d="M71.8958 24.0343L75.1239 30.4039L75.2168 30.3918L76.6987 23.4063L77.7057 23.2747L75.8302 31.588L74.8386 31.7176L70.8887 24.166L71.8958 24.0343Z" fill="white"></path><path d="M84.4833 23.2426L84.2536 31.2393L83.2852 31.2115L83.515 23.2148L84.4833 23.2426Z" fill="white"></path><path d="M97.3557 27.4793L96.4039 27.2987C96.3995 27.0143 96.3466 26.7551 96.2452 26.5212C96.1464 26.2877 96.0105 26.0817 95.8377 25.9031C95.6678 25.7225 95.4695 25.5735 95.2425 25.4562C95.0156 25.339 94.7717 25.2556 94.5107 25.2061C94.0348 25.1158 93.5809 25.1543 93.1489 25.3215C92.7195 25.4892 92.3466 25.7856 92.03 26.2106C91.7161 26.6361 91.4945 27.1891 91.3654 27.8697C91.2363 28.5503 91.24 29.146 91.3763 29.6569C91.5152 30.1683 91.7537 30.5807 92.0919 30.894C92.4326 31.2078 92.8409 31.4098 93.3168 31.5001C93.5777 31.5496 93.8353 31.5614 94.0894 31.5353C94.3435 31.5093 94.5824 31.4446 94.8061 31.3413C95.0328 31.2359 95.2349 31.0926 95.4124 30.9116C95.5929 30.7285 95.737 30.5067 95.8448 30.2462L96.7965 30.4267C96.6487 30.8148 96.45 31.1495 96.2005 31.4309C95.951 31.7122 95.6644 31.9375 95.3407 32.1067C95.0176 32.2733 94.6698 32.381 94.2974 32.4296C93.9276 32.4788 93.5444 32.4657 93.1479 32.3905C92.4775 32.2633 91.9125 31.9865 91.4526 31.56C90.9928 31.1335 90.6705 30.5899 90.4857 29.9293C90.3009 29.2687 90.2871 28.5239 90.4444 27.695C90.6016 26.866 90.8872 26.178 91.3011 25.631C91.715 25.0839 92.2139 24.6962 92.798 24.4677C93.3821 24.2392 94.0093 24.1886 94.6796 24.3157C95.0762 24.391 95.4375 24.5191 95.7637 24.7003C96.0923 24.8819 96.3763 25.1107 96.6155 25.3867C96.8552 25.6601 97.0396 25.9734 97.1688 26.3266C97.2984 26.6772 97.3607 27.0614 97.3557 27.4793Z" fill="white"></path><path d="M100.344 34.1959L103.265 26.7484L107.76 28.5115L107.446 29.3115L103.853 27.9022L102.866 30.4186L106.226 31.7367L105.913 32.5367L102.552 31.2186L101.56 33.7496L105.211 35.1818L104.897 35.9818L100.344 34.1959Z" fill="white"></path><path d="M116.211 35.4409C116.379 35.0795 116.379 34.7182 116.21 34.3569C116.042 33.9956 115.751 33.6878 115.339 33.4332C115.038 33.2471 114.744 33.133 114.458 33.0909C114.174 33.0502 113.916 33.0762 113.684 33.1688C113.455 33.2627 113.273 33.4183 113.139 33.6354C113.027 33.8171 112.974 34 112.979 34.1841C112.989 34.3673 113.035 34.5446 113.119 34.7158C113.205 34.8849 113.305 35.0436 113.422 35.1921C113.54 35.3383 113.652 35.467 113.757 35.5783L114.334 36.1913C114.482 36.3473 114.64 36.5334 114.806 36.7494C114.975 36.9669 115.115 37.2081 115.227 37.4731C115.342 37.7372 115.398 38.0193 115.393 38.3194C115.388 38.6194 115.287 38.929 115.09 39.2481C114.863 39.6159 114.561 39.8887 114.185 40.0665C113.811 40.2457 113.387 40.3093 112.911 40.2572C112.437 40.2064 111.939 40.0196 111.416 39.6966C110.928 39.3956 110.555 39.0562 110.295 38.6786C110.038 38.3024 109.894 37.9106 109.864 37.5033C109.836 37.0974 109.924 36.7001 110.127 36.3115L110.978 36.8369C110.842 37.1076 110.797 37.3737 110.843 37.6351C110.894 37.8957 111.01 38.1389 111.192 38.3645C111.377 38.5893 111.605 38.7852 111.876 38.9522C112.19 39.1465 112.504 39.27 112.817 39.3227C113.132 39.3732 113.419 39.3517 113.679 39.2581C113.94 39.1623 114.148 38.9903 114.301 38.7421C114.44 38.5161 114.491 38.2932 114.452 38.0734C114.413 37.8536 114.318 37.6358 114.167 37.4199C114.016 37.204 113.841 36.9889 113.643 36.7747L112.953 36.0181C112.516 35.5368 112.23 35.0586 112.094 34.5834C111.959 34.1082 112.034 33.6413 112.317 33.1827C112.552 32.8016 112.86 32.5329 113.242 32.3765C113.626 32.2193 114.042 32.1702 114.49 32.2291C114.941 32.2871 115.383 32.4503 115.817 32.7185C116.256 32.9894 116.597 33.3089 116.841 33.677C117.087 34.0428 117.226 34.4224 117.258 34.8159C117.293 35.2107 117.21 35.5833 117.009 35.9336L116.211 35.4409Z" fill="white"></path><path d="M131.921 76.5385L139.91 76.9663L139.76 79.7592C139.73 80.3157 139.609 80.7695 139.398 81.1207C139.188 81.472 138.918 81.7274 138.586 81.887C138.257 82.0467 137.897 82.1161 137.507 82.0952C137.164 82.0768 136.883 82.0005 136.666 81.8663C136.449 81.7347 136.281 81.5666 136.161 81.362C136.042 81.16 135.957 80.9429 135.907 80.7107L135.829 80.7065C135.8 80.9502 135.701 81.1913 135.532 81.43C135.362 81.6687 135.128 81.8634 134.828 82.0143C134.527 82.1651 134.167 82.2292 133.745 82.2067C133.345 82.1852 132.99 82.0749 132.68 81.8757C132.369 81.6766 132.131 81.3756 131.965 80.9729C131.799 80.5703 131.733 80.0543 131.766 79.4249L131.921 76.5385ZM132.727 77.5518L132.625 79.4709C132.591 80.1028 132.689 80.5579 132.919 80.8363C133.152 81.1174 133.444 81.2673 133.795 81.2861C134.065 81.3006 134.318 81.245 134.555 81.1195C134.794 80.994 134.989 80.8076 135.14 80.5601C135.294 80.3128 135.381 80.0149 135.399 79.6665L135.505 77.7005L132.727 77.5518ZM136.347 77.7457L136.251 79.54C136.235 79.8312 136.279 80.0969 136.38 80.3371C136.482 80.5799 136.633 80.7757 136.834 80.9247C137.035 81.0763 137.275 81.1596 137.556 81.1746C137.907 81.1934 138.211 81.0871 138.469 80.8558C138.729 80.6246 138.873 80.2437 138.902 79.7132L139 77.8877L136.347 77.7457Z" fill="white"></path><path d="M130.908 86.348L138.692 88.1948L137.578 92.8925L136.742 92.6942L137.633 88.939L135.002 88.315L134.169 91.8269L133.333 91.6285L134.166 88.1166L131.521 87.489L130.616 91.3049L129.779 91.1065L130.908 86.348Z" fill="white"></path><path d="M131.901 102.232C132.283 102.348 132.641 102.297 132.975 102.079C133.309 101.862 133.573 101.531 133.767 101.087C133.909 100.763 133.98 100.456 133.982 100.167C133.982 99.8797 133.92 99.6281 133.796 99.4117C133.671 99.1978 133.491 99.0396 133.258 98.9373C133.062 98.8518 132.873 98.8247 132.692 98.8562C132.512 98.891 132.343 98.9621 132.185 99.0693C132.03 99.1776 131.887 99.2998 131.756 99.4359C131.628 99.5731 131.516 99.7019 131.421 99.8222L130.895 100.479C130.761 100.648 130.599 100.83 130.409 101.025C130.217 101.223 129.998 101.395 129.751 101.543C129.506 101.695 129.234 101.789 128.937 101.827C128.639 101.864 128.318 101.808 127.975 101.657C127.579 101.484 127.266 101.224 127.037 100.876C126.807 100.531 126.685 100.119 126.669 99.6408C126.653 99.1647 126.768 98.6451 127.015 98.0821C127.244 97.5572 127.528 97.1397 127.865 96.8297C128.202 96.5221 128.569 96.3248 128.968 96.2379C129.366 96.1533 129.772 96.1844 130.185 96.3311L129.785 97.2473C129.497 97.1501 129.228 97.1429 128.975 97.2258C128.724 97.3122 128.5 97.4613 128.302 97.6732C128.105 97.8885 127.944 98.1417 127.816 98.4328C127.668 98.7716 127.59 99.0998 127.582 99.4174C127.576 99.736 127.637 100.017 127.767 100.262C127.898 100.507 128.097 100.688 128.365 100.805C128.608 100.911 128.836 100.93 129.048 100.86C129.26 100.791 129.463 100.667 129.655 100.487C129.848 100.306 130.036 100.103 130.22 99.8768L130.872 99.0877C131.288 98.5871 131.721 98.2366 132.172 98.0362C132.624 97.8358 133.097 97.8436 133.59 98.0597C134.001 98.2392 134.31 98.5067 134.519 98.8622C134.728 99.2211 134.835 99.6261 134.84 100.077C134.846 100.532 134.746 100.993 134.542 101.46C134.335 101.933 134.066 102.316 133.736 102.609C133.409 102.903 133.052 103.094 132.667 103.182C132.281 103.271 131.901 103.241 131.526 103.091L131.901 102.232Z" fill="white"></path><path d="M129.933 108.269L130.646 108.748L127.299 113.728L126.586 113.248L127.989 111.16L122.062 107.177L122.604 106.373L128.53 110.356L129.933 108.269Z" fill="white"></path><path d="M113.333 124.762C113.617 125.041 113.958 125.162 114.355 125.125C114.752 125.087 115.139 124.917 115.517 124.614C115.794 124.393 116 124.154 116.136 123.899C116.269 123.645 116.331 123.393 116.322 123.144C116.31 122.896 116.225 122.673 116.065 122.474C115.932 122.307 115.777 122.196 115.602 122.139C115.426 122.086 115.244 122.071 115.054 122.092C114.866 122.116 114.683 122.158 114.504 122.218C114.327 122.28 114.168 122.342 114.028 122.404L113.257 122.741C113.06 122.829 112.832 122.915 112.572 122.999C112.311 123.085 112.037 123.136 111.749 123.153C111.462 123.173 111.178 123.13 110.897 123.025C110.615 122.92 110.358 122.721 110.123 122.428C109.853 122.091 109.697 121.715 109.656 121.301C109.613 120.889 109.695 120.467 109.904 120.036C110.111 119.607 110.454 119.2 110.934 118.816C111.381 118.458 111.826 118.22 112.269 118.102C112.71 117.986 113.127 117.982 113.521 118.091C113.913 118.201 114.257 118.417 114.555 118.739L113.775 119.364C113.566 119.144 113.33 119.012 113.068 118.969C112.806 118.929 112.538 118.956 112.264 119.052C111.99 119.151 111.729 119.3 111.481 119.499C111.192 119.73 110.971 119.985 110.816 120.262C110.663 120.541 110.586 120.819 110.587 121.095C110.59 121.374 110.682 121.627 110.865 121.854C111.031 122.062 111.224 122.184 111.444 122.221C111.664 122.258 111.901 122.242 112.155 122.172C112.409 122.102 112.671 122.009 112.939 121.895L113.883 121.499C114.483 121.248 115.03 121.139 115.523 121.172C116.016 121.204 116.431 121.43 116.768 121.851C117.048 122.201 117.197 122.581 117.217 122.993C117.236 123.408 117.142 123.817 116.937 124.218C116.731 124.623 116.428 124.985 116.03 125.304C115.628 125.627 115.212 125.841 114.783 125.947C114.356 126.056 113.952 126.059 113.571 125.958C113.187 125.858 112.864 125.655 112.602 125.348L113.333 124.762Z" fill="white"></path><path d="M105.005 123.119L108.811 130.156L104.564 132.453L104.155 131.697L107.55 129.861L106.264 127.483L103.089 129.201L102.68 128.445L105.855 126.728L104.561 124.336L101.112 126.202L100.703 125.446L105.005 123.119Z" fill="white"></path><path d="M96.106 127.376L98.5949 134.979L96.0259 135.82C95.4319 136.015 94.9112 136.073 94.4636 135.995C94.0168 135.919 93.6443 135.735 93.3462 135.444C93.048 135.152 92.8255 134.783 92.6789 134.335C92.5323 133.887 92.4938 133.46 92.5635 133.053C92.6332 132.647 92.825 132.283 93.1389 131.961C93.4535 131.641 93.9054 131.385 94.4944 131.192L96.5733 130.512L96.8456 131.343L94.7963 132.014C94.3904 132.147 94.0832 132.313 93.8746 132.513C93.6635 132.714 93.5379 132.941 93.4978 133.195C93.4561 133.453 93.4851 133.734 93.5847 134.038C93.6844 134.343 93.8284 134.59 94.0168 134.781C94.2052 134.971 94.4446 135.087 94.7351 135.129C95.0264 135.173 95.3774 135.128 95.7883 134.994L97.407 134.464L95.1853 127.678L96.106 127.376ZM93.6453 131.963L90.6562 129.16L91.7254 128.81L94.6848 131.623L93.6453 131.963Z" fill="white"></path><path d="M87.3275 137.966L84.0994 131.597L84.0064 131.609L82.5246 138.594L81.5176 138.726L83.3931 130.413L84.3846 130.283L88.3345 137.835L87.3275 137.966Z" fill="white"></path><path d="M74.7402 138.758L74.97 130.761L75.9383 130.789L75.7086 138.786L74.7402 138.758Z" fill="white"></path><path d="M61.8616 134.521L62.8134 134.702C62.8178 134.986 62.8707 135.246 62.9721 135.48C63.0709 135.713 63.2068 135.919 63.3796 136.098C63.5495 136.278 63.7478 136.427 63.9748 136.544C64.2017 136.662 64.4456 136.745 64.7066 136.795C65.1825 136.885 65.6364 136.846 66.0684 136.679C66.4978 136.512 66.8707 136.215 67.1873 135.79C67.5012 135.365 67.7228 134.812 67.8519 134.131C67.981 133.45 67.9773 132.855 67.841 132.344C67.7021 131.832 67.4636 131.42 67.1254 131.107C66.7847 130.793 66.3764 130.591 65.9005 130.501C65.6396 130.451 65.382 130.439 65.1279 130.465C64.8738 130.491 64.6349 130.556 64.4112 130.659C64.1845 130.765 63.9824 130.908 63.8049 131.089C63.6244 131.272 63.4803 131.494 63.3725 131.755L62.4208 131.574C62.5686 131.186 62.7673 130.851 63.0168 130.57C63.2663 130.289 63.5529 130.063 63.8766 129.894C64.1997 129.727 64.5475 129.62 64.9199 129.571C65.2897 129.522 65.6729 129.535 66.0694 129.61C66.7398 129.737 67.3048 130.014 67.7647 130.441C68.2245 130.867 68.5468 131.411 68.7316 132.071C68.9164 132.732 68.9302 133.477 68.7729 134.306C68.6157 135.135 68.3301 135.823 67.9162 136.37C67.5023 136.917 67.0034 137.305 66.4193 137.533C65.8352 137.762 65.208 137.812 64.5377 137.685C64.1411 137.61 63.7798 137.482 63.4536 137.3C63.125 137.119 62.841 136.89 62.6018 136.614C62.3621 136.341 62.1777 136.027 62.0485 135.674C61.9189 135.324 61.8566 134.939 61.8616 134.521Z" fill="white"></path><path d="M58.8751 127.805L55.9537 135.252L51.459 133.489L51.7729 132.689L55.3657 134.099L56.3528 131.582L52.9927 130.264L53.3065 129.464L56.6666 130.782L57.6594 128.251L54.0084 126.819L54.3222 126.019L58.8751 127.805Z" fill="white"></path><path d="M43.0099 126.56C42.8418 126.921 42.8421 127.282 43.0107 127.644C43.1794 128.005 43.4698 128.313 43.8819 128.567C44.1832 128.753 44.477 128.867 44.7632 128.91C45.0472 128.95 45.305 128.924 45.5366 128.832C45.7661 128.738 45.9479 128.582 46.082 128.365C46.1942 128.183 46.2474 128 46.2418 127.816C46.2325 127.633 46.1859 127.456 46.1019 127.285C46.0165 127.116 45.9156 126.957 45.7991 126.808C45.6813 126.662 45.5695 126.533 45.4638 126.422L44.8874 125.809C44.7389 125.653 44.5814 125.467 44.4149 125.251C44.2462 125.034 44.1059 124.792 43.9941 124.527C43.8786 124.263 43.8233 123.981 43.8281 123.681C43.8328 123.381 43.9337 123.071 44.1308 122.752C44.3579 122.385 44.6596 122.112 45.0357 121.934C45.4096 121.755 45.8345 121.691 46.3104 121.743C46.7841 121.794 47.2824 121.981 47.8053 122.304C48.2927 122.605 48.6662 122.944 48.9258 123.322C49.1832 123.698 49.3269 124.09 49.3569 124.497C49.3847 124.903 49.297 125.3 49.0937 125.689L48.2429 125.164C48.3795 124.893 48.4244 124.627 48.3778 124.365C48.3275 124.105 48.2114 123.862 48.0294 123.636C47.8438 123.411 47.6158 123.215 47.3455 123.048C47.0309 122.854 46.7169 122.73 46.4036 122.678C46.0889 122.627 45.8017 122.649 45.5419 122.742C45.2807 122.838 45.0735 123.01 44.9202 123.258C44.7806 123.484 44.7302 123.707 44.7689 123.927C44.8076 124.147 44.9026 124.365 45.0539 124.581C45.2053 124.796 45.38 125.012 45.5783 125.226L46.268 125.982C46.7054 126.464 46.9915 126.942 47.1266 127.417C47.2616 127.892 47.1875 128.359 46.9042 128.818C46.6689 129.199 46.3606 129.468 45.9794 129.624C45.5946 129.781 45.1786 129.83 44.7313 129.771C44.2805 129.713 43.838 129.55 43.4037 129.282C42.965 129.011 42.6236 128.692 42.3796 128.324C42.1341 127.958 41.9952 127.578 41.9627 127.185C41.9281 126.79 42.0112 126.417 42.2123 126.067L43.0099 126.56Z" fill="white"></path><path d="M32.0453 109.356C33.6025 108.541 34.2045 106.618 33.3898 105.061C32.5751 103.504 30.6522 102.902 29.095 103.716C27.5378 104.531 26.9358 106.454 27.7505 108.011C28.5652 109.568 30.4881 110.17 32.0453 109.356Z" fill="white"></path><path d="M130.028 58.0953C131.585 57.2806 132.187 55.3577 131.372 53.8005C130.557 52.2433 128.635 51.6413 127.077 52.456C125.52 53.2707 124.918 55.1935 125.733 56.7508C126.548 58.308 128.47 58.9099 130.028 58.0953Z" fill="white"></path></svg>