<svg xmlns="http://www.w3.org/2000/svg" width="117" height="117" viewBox="0 0 117 117" fill="none"><g filter="url(#filter0_b_18578_424)"><path d="M116.576 58.2352C116.576 90.3944 90.5058 116.465 58.3466 116.465C26.1874 116.465 0.117188 90.3944 0.117188 58.2352C0.117188 26.076 26.1874 0.00582886 58.3466 0.00582886C90.5058 0.00582886 116.576 26.076 116.576 58.2352Z" fill="#EBEBEB" fill-opacity="0.01"></path></g><path fill-rule="evenodd" clip-rule="evenodd" d="M58.3466 115.465C89.9535 115.465 115.576 89.8421 115.576 58.2352C115.576 26.6283 89.9535 1.00583 58.3466 1.00583C26.7397 1.00583 1.11719 26.6283 1.11719 58.2352C1.11719 89.8421 26.7397 115.465 58.3466 115.465ZM58.3466 116.465C90.5058 116.465 116.576 90.3944 116.576 58.2352C116.576 26.076 90.5058 0.00582886 58.3466 0.00582886C26.1874 0.00582886 0.117188 26.076 0.117188 58.2352C0.117188 90.3944 26.1874 116.465 58.3466 116.465Z" fill="#222222"></path><path d="M16.1845 61.6048L9.64844 61.2548L9.77083 58.9697C9.79522 58.5144 9.89405 58.1431 10.0673 57.8558C10.2385 57.5683 10.4599 57.3593 10.7314 57.2288C11.0009 57.0981 11.2952 57.0414 11.6143 57.0584C11.8952 57.0735 12.1244 57.1359 12.302 57.2457C12.4798 57.3534 12.6175 57.4909 12.7152 57.6583C12.813 57.8236 12.8825 58.0012 12.9235 58.1912L12.9873 58.1946C13.0108 57.9953 13.0918 57.798 13.2303 57.6027C13.3688 57.4074 13.5608 57.2481 13.8064 57.1246C14.052 57.0012 14.3471 56.9488 14.6918 56.9672C15.0194 56.9848 15.3101 57.075 15.5639 57.238C15.8176 57.4009 16.0124 57.6471 16.1484 57.9766C16.2844 58.3061 16.3386 58.7283 16.311 59.2432L16.1845 61.6048ZM15.5248 60.7758L15.6089 59.2056C15.6366 58.6886 15.5562 58.3162 15.3679 58.0884C15.1775 57.8585 14.9387 57.7358 14.6514 57.7204C14.4302 57.7086 14.2229 57.754 14.0296 57.8567C13.8342 57.9594 13.6746 58.1119 13.5506 58.3144C13.4246 58.5167 13.3539 58.7605 13.3386 59.0456L13.2525 60.6541L15.5248 60.7758ZM12.5631 60.6171L12.6418 59.1491C12.6545 58.9108 12.6192 58.6934 12.5359 58.4969C12.4526 58.2982 12.3289 58.138 12.1647 58.0161C12.0007 57.8921 11.8038 57.8239 11.574 57.8116C11.2868 57.7962 11.0378 57.8832 10.8271 58.0725C10.6142 58.2617 10.4962 58.5733 10.4729 59.0073L10.3929 60.5009L12.5631 60.6171Z" fill="#222222"></path><path d="M17.005 53.6897L10.6364 52.1786L11.5483 48.335L12.2325 48.4974L11.5035 51.5697L13.6554 52.0803L14.3372 49.2069L15.0213 49.3693L14.3395 52.2426L16.5039 52.7561L17.2447 49.634L17.9288 49.7963L17.005 53.6897Z" fill="#222222"></path><path d="M16.1593 40.8007C15.8472 40.706 15.5545 40.7478 15.2812 40.9259C15.0079 41.104 14.7919 41.3746 14.633 41.7377C14.5169 42.0032 14.4582 42.2543 14.457 42.4909C14.4566 42.7257 14.5072 42.9316 14.6089 43.1086C14.7114 43.2837 14.8582 43.413 15.0495 43.4967C15.2096 43.5668 15.3639 43.5889 15.5124 43.5632C15.6597 43.5346 15.798 43.4765 15.927 43.3888C16.0542 43.3002 16.1712 43.2002 16.278 43.0888C16.383 42.9766 16.4744 42.8712 16.5524 42.7728L16.9828 42.2355C17.0921 42.0972 17.2247 41.9483 17.3806 41.7886C17.5374 41.6269 17.7167 41.4856 17.9185 41.3645C18.1192 41.2407 18.3413 41.1635 18.585 41.1329C18.8286 41.1022 19.091 41.1484 19.3721 41.2714C19.6961 41.4132 19.9518 41.6262 20.1391 41.9104C20.3272 42.1927 20.4275 42.5297 20.4399 42.9212C20.4532 43.3107 20.3591 43.7358 20.1576 44.1965C19.9697 44.626 19.7377 44.9675 19.4616 45.2212C19.1864 45.4728 18.8855 45.6343 18.559 45.7054C18.2334 45.7746 17.9015 45.7491 17.5633 45.6291L17.8912 44.8795C18.1262 44.959 18.3469 44.9649 18.5533 44.8971C18.7587 44.8264 18.9423 44.7044 19.1042 44.531C19.265 44.3549 19.3975 44.1477 19.5017 43.9096C19.6229 43.6324 19.6869 43.3638 19.6936 43.104C19.6984 42.8433 19.6479 42.613 19.5423 42.4133C19.4347 42.2128 19.2716 42.0646 19.0529 41.969C18.8538 41.8819 18.6675 41.8666 18.4939 41.9232C18.3202 41.9799 18.1547 42.0819 17.9972 42.2292C17.8397 42.3766 17.6855 42.5429 17.5347 42.7281L17.0011 43.3737C16.6614 43.7833 16.3069 44.0701 15.9375 44.2341C15.5681 44.398 15.1813 44.3916 14.7772 44.2148C14.4415 44.068 14.1884 43.8491 14.018 43.5582C13.8464 43.2646 13.7588 42.9332 13.7552 42.5641C13.7504 42.1923 13.8317 41.8151 13.9991 41.4325C14.1682 41.046 14.3878 40.7327 14.6579 40.4927C14.9261 40.2519 15.2176 40.0957 15.5327 40.0242C15.8485 39.9508 16.1599 39.9754 16.4667 40.098L16.1593 40.8007Z" fill="#222222"></path><path d="M17.7173 35.9621L17.1338 35.5698L19.8726 31.4957L20.4561 31.888L19.3078 33.5962L24.1564 36.8556L23.7142 37.5134L18.8656 34.254L17.7173 35.9621Z" fill="#222222"></path><path d="M31.1835 22.6122C30.9511 22.3834 30.6726 22.2844 30.3478 22.3152C30.023 22.346 29.706 22.4852 29.3967 22.733C29.1705 22.9141 29.0019 23.1092 28.8908 23.3182C28.7815 23.5259 28.7307 23.7317 28.7384 23.9357C28.7479 24.1384 28.8178 24.3212 28.9484 24.4842C29.0576 24.6205 29.1839 24.7118 29.3273 24.758C29.4711 24.8012 29.6205 24.8139 29.7756 24.7962C29.9293 24.7768 30.0794 24.7426 30.2257 24.6936C30.3708 24.643 30.5007 24.5922 30.6155 24.5412L31.2463 24.2653C31.4073 24.1937 31.5939 24.1234 31.8062 24.0544C32.0201 23.9841 32.2445 23.9422 32.4794 23.9288C32.7147 23.9123 32.9473 23.9472 33.1773 24.0332C33.4073 24.1193 33.6182 24.2821 33.8099 24.5216C34.031 24.7976 34.1585 25.105 34.1923 25.4438C34.2277 25.7812 34.16 26.1261 33.9892 26.4786C33.82 26.8297 33.5391 27.1625 33.1466 27.4768C32.7808 27.7698 32.4167 27.9645 32.0543 28.0608C31.6937 28.1559 31.3523 28.159 31.0301 28.0704C30.7096 27.9803 30.4275 27.8036 30.1838 27.5402L30.8224 27.0288C30.9936 27.2084 31.1863 27.3161 31.4006 27.3519C31.6152 27.3847 31.8345 27.362 32.0584 27.2837C32.2827 27.2024 32.4962 27.0805 32.6991 26.918C32.9353 26.7289 33.1167 26.5208 33.2434 26.2938C33.3687 26.0651 33.431 25.8378 33.4302 25.6119C33.4281 25.3843 33.3524 25.1773 33.2032 24.9911C33.0674 24.8214 32.9094 24.7213 32.7294 24.6908C32.5494 24.6603 32.3554 24.6737 32.1474 24.7311C31.9395 24.7884 31.7257 24.864 31.5062 24.958L30.7337 25.2818C30.2426 25.4867 29.7955 25.576 29.3921 25.5496C28.9888 25.5232 28.6493 25.3378 28.3736 24.9936C28.1445 24.7075 28.0221 24.3961 28.0063 24.0594C27.9908 23.7196 28.0671 23.3855 28.2353 23.057C28.4039 22.7255 28.6511 22.4292 28.9771 22.1682C29.3064 21.9044 29.6464 21.7291 29.9971 21.642C30.3464 21.5533 30.6772 21.5505 30.9893 21.6335C31.3032 21.7152 31.5675 21.8816 31.7822 22.1328L31.1835 22.6122Z" fill="#222222"></path><path d="M37.9074 24.0214L34.7934 18.2641L38.268 16.3848L38.6025 17.0032L35.825 18.5055L36.8772 20.4508L39.4747 19.0459L39.8093 19.6643L37.2117 21.0693L38.27 23.0258L41.0924 21.4993L41.4269 22.1177L37.9074 24.0214Z" fill="#222222"></path><path d="M45.0872 20.5874L43.0508 14.3668L45.1527 13.6787C45.6387 13.5196 46.0648 13.472 46.431 13.536C46.7965 13.5979 47.1013 13.7481 47.3453 13.9866C47.5892 14.2251 47.7712 14.5276 47.8912 14.8941C48.0112 15.2606 48.0427 15.6102 47.9856 15.9427C47.9286 16.2753 47.7717 16.5732 47.5149 16.8367C47.2574 17.0981 46.8877 17.3076 46.4058 17.4654L44.7049 18.0222L44.4821 17.3418L46.1588 16.793C46.4909 16.6843 46.7423 16.5482 46.9129 16.3847C47.0856 16.2205 47.1884 16.0344 47.2212 15.8264C47.2553 15.6157 47.2316 15.3858 47.1501 15.1367C47.0685 14.8877 46.9507 14.6852 46.7966 14.5294C46.6424 14.3736 46.4465 14.2786 46.2089 14.2443C45.9706 14.208 45.6833 14.2448 45.3472 14.3549L44.0229 14.7884L45.8405 20.3408L45.0872 20.5874ZM47.1005 16.8344L49.5462 19.1277L48.6714 19.4141L46.25 17.1128L47.1005 16.8344Z" fill="#222222"></path><path d="M52.1621 11.9535L54.8032 17.165L54.8793 17.155L56.0917 11.4397L56.9157 11.3319L55.3812 18.1337L54.5699 18.2398L51.3381 12.0612L52.1621 11.9535Z" fill="#222222"></path><path d="M62.3449 11.3155L62.1569 17.8583L61.3646 17.8355L61.5526 11.2928L62.3449 11.3155Z" fill="#222222"></path><path d="M72.7972 14.7773L72.0184 14.6296C72.0149 14.3969 71.9716 14.1848 71.8886 13.9934C71.8078 13.8024 71.6966 13.6338 71.5552 13.4877C71.4162 13.3399 71.2539 13.218 71.0683 13.1221C70.8826 13.0262 70.683 12.9579 70.4695 12.9174C70.0801 12.8436 69.7087 12.8751 69.3553 13.0119C69.004 13.1491 68.6988 13.3916 68.4399 13.7393C68.183 14.0874 68.0017 14.5399 67.8961 15.0967C67.7905 15.6536 67.7934 16.141 67.905 16.559C68.0186 16.9775 68.2138 17.3148 68.4904 17.5712C68.7692 17.8279 69.1033 17.9932 69.4926 18.0671C69.7062 18.1076 69.9169 18.1172 70.1248 18.0959C70.3326 18.0746 70.5281 18.0217 70.7111 17.9371C70.8967 17.8509 71.062 17.7337 71.2072 17.5856C71.3549 17.4358 71.4728 17.2543 71.561 17.0411L72.3397 17.1888C72.2188 17.5064 72.0562 17.7802 71.8521 18.0104C71.6479 18.2406 71.4134 18.4249 71.1486 18.5634C70.8842 18.6997 70.5996 18.7878 70.295 18.8276C69.9924 18.8678 69.6789 18.8571 69.3544 18.7956C68.806 18.6915 68.3436 18.465 67.9674 18.1161C67.5912 17.7671 67.3275 17.3224 67.1763 16.7819C67.0251 16.2414 67.0138 15.632 67.1425 14.9538C67.2711 14.2755 67.5048 13.7126 67.8434 13.2651C68.1821 12.8175 68.5903 12.5002 69.0682 12.3133C69.5461 12.1264 70.0592 12.0849 70.6077 12.1889C70.9322 12.2505 71.2278 12.3554 71.4946 12.5036C71.7635 12.6522 71.9959 12.8394 72.1916 13.0652C72.3877 13.2889 72.5386 13.5452 72.6443 13.8342C72.7503 14.1211 72.8013 14.4354 72.7972 14.7773Z" fill="#222222"></path><path d="M75.1259 20.245L77.5161 14.1516L81.1936 15.5941L80.9368 16.2487L77.9972 15.0956L77.1896 17.1545L79.9388 18.2329L79.682 18.8875L76.9328 17.8091L76.1205 19.8799L79.1077 21.0517L78.851 21.7062L75.1259 20.245Z" fill="#222222"></path><path d="M88.0065 21.2188C88.1441 20.9231 88.1438 20.6275 88.0058 20.3319C87.8679 20.0363 87.6303 19.7844 87.2931 19.5762C87.0465 19.4239 86.8062 19.3306 86.572 19.2961C86.3397 19.2628 86.1287 19.284 85.9392 19.3598C85.7514 19.4367 85.6027 19.564 85.493 19.7416C85.4012 19.8903 85.3576 20.0399 85.3622 20.1905C85.3698 20.3404 85.408 20.4855 85.4767 20.6256C85.5466 20.7639 85.6291 20.8938 85.7244 21.0152C85.8208 21.1349 85.9123 21.2402 85.9988 21.3312L86.4704 21.8328C86.5919 21.9604 86.7207 22.1126 86.857 22.2894C86.995 22.4673 87.1098 22.6647 87.2013 22.8815C87.2957 23.0976 87.341 23.3284 87.3371 23.5739C87.3332 23.8194 87.2507 24.0727 87.0894 24.3338C86.9036 24.6347 86.6568 24.8579 86.349 25.0034C86.0431 25.15 85.6955 25.202 85.3061 25.1594C84.9185 25.1179 84.5108 24.965 84.083 24.7008C83.6842 24.4545 83.3786 24.1768 83.1662 23.8679C82.9557 23.56 82.8381 23.2395 82.8135 22.9062C82.7907 22.5741 82.8625 22.2491 83.0288 21.9311L83.725 22.361C83.6132 22.5825 83.5764 22.8002 83.6146 23.0141C83.6557 23.2273 83.7508 23.4262 83.8997 23.6109C84.0515 23.7948 84.238 23.9551 84.4592 24.0917C84.7166 24.2507 84.9735 24.3517 85.2299 24.3948C85.4873 24.4361 85.7223 24.4185 85.9349 24.342C86.1486 24.2636 86.3181 24.1229 86.4435 23.9198C86.5577 23.7349 86.599 23.5525 86.5673 23.3727C86.5357 23.1929 86.4579 23.0146 86.3341 22.838C86.2103 22.6614 86.0673 22.4854 85.9051 22.3101L85.3408 21.6911C84.983 21.2973 84.7488 20.906 84.6383 20.5172C84.5278 20.1285 84.5885 19.7464 84.8202 19.3712C85.0128 19.0594 85.265 18.8395 85.5769 18.7116C85.8918 18.583 86.2321 18.5428 86.5981 18.591C86.9669 18.6385 87.329 18.7719 87.6843 18.9914C88.0432 19.2131 88.3226 19.4745 88.5222 19.7756C88.723 20.0749 88.8367 20.3855 88.8633 20.7075C88.8916 21.0305 88.8236 21.3353 88.6591 21.6219L88.0065 21.2188Z" fill="#222222"></path><path d="M100.591 54.3956L107.127 54.7456L107.005 57.0307C106.981 57.486 106.882 57.8573 106.708 58.1447C106.537 58.4321 106.316 58.6411 106.044 58.7716C105.775 58.9023 105.481 58.9591 105.161 58.942C104.881 58.9269 104.651 58.8645 104.474 58.7547C104.296 58.647 104.158 58.5095 104.061 58.3421C103.963 58.1768 103.893 57.9992 103.852 57.8092L103.788 57.8058C103.765 58.0051 103.684 58.2024 103.546 58.3977C103.407 58.593 103.215 58.7524 102.969 58.8758C102.724 58.9992 102.429 59.0516 102.084 59.0332C101.756 59.0156 101.466 58.9254 101.212 58.7624C100.958 58.5995 100.763 58.3533 100.627 58.0238C100.491 57.6943 100.437 57.2721 100.465 56.7572L100.591 54.3956ZM101.251 55.2247L101.167 56.7948C101.139 57.3119 101.22 57.6842 101.408 57.912C101.598 58.1419 101.837 58.2646 102.124 58.28C102.346 58.2919 102.553 58.2464 102.746 58.1437C102.942 58.0411 103.101 57.8885 103.225 57.686C103.351 57.4837 103.422 57.24 103.437 56.9549L103.523 55.3464L101.251 55.2247ZM104.213 55.3833L104.134 56.8514C104.121 57.0896 104.157 57.307 104.24 57.5035C104.323 57.7022 104.447 57.8624 104.611 57.9843C104.775 58.1083 104.972 58.1765 105.202 58.1888C105.489 58.2042 105.738 58.1172 105.949 57.9279C106.162 57.7388 106.28 57.4272 106.303 56.9931L106.383 55.4995L104.213 55.3833Z" fill="#222222"></path><path d="M99.7747 62.3108L106.143 63.8218L105.231 67.6654L104.547 67.5031L105.276 64.4307L103.124 63.9201L102.443 66.7935L101.758 66.6312L102.44 63.7578L100.276 63.2443L99.535 66.3664L98.8509 66.2041L99.7747 62.3108Z" fill="#222222"></path><path d="M100.617 75.1997C100.929 75.2944 101.221 75.2527 101.495 75.0746C101.768 74.8964 101.984 74.6258 102.143 74.2627C102.259 73.9973 102.318 73.7462 102.319 73.5095C102.319 73.2748 102.269 73.0689 102.167 72.8919C102.064 72.7168 101.918 72.5874 101.726 72.5037C101.566 72.4337 101.412 72.4115 101.263 72.4373C101.116 72.4658 100.978 72.524 100.849 72.6117C100.722 72.7003 100.605 72.8002 100.498 72.9116C100.393 73.0239 100.301 73.1292 100.223 73.2277L99.793 73.765C99.6837 73.9032 99.5511 74.0522 99.3951 74.2119C99.2384 74.3735 99.0591 74.5149 98.8573 74.6359C98.6566 74.7597 98.4344 74.837 98.1908 74.8676C97.9472 74.8982 97.6848 74.852 97.4037 74.7291C97.0797 74.5873 96.824 74.3743 96.6367 74.09C96.4486 73.8077 96.3483 73.4708 96.3359 73.0793C96.3226 72.6897 96.4167 72.2646 96.6182 71.8039C96.8061 71.3745 97.0381 71.0329 97.3142 70.7793C97.5894 70.5276 97.8903 70.3662 98.2168 70.2951C98.5424 70.2259 98.8743 70.2513 99.2125 70.3714L98.8846 71.121C98.6496 71.0414 98.4289 71.0356 98.2224 71.1034C98.0171 71.174 97.8335 71.296 97.6716 71.4694C97.5108 71.6456 97.3783 71.8527 97.2741 72.0909C97.1529 72.3681 97.0889 72.6366 97.0822 72.8965C97.0774 73.1572 97.1279 73.3874 97.2335 73.5871C97.3411 73.7877 97.5042 73.9358 97.7229 74.0314C97.922 74.1186 98.1083 74.1338 98.2819 74.0772C98.4555 74.0206 98.6211 73.9186 98.7786 73.7712C98.9361 73.6238 99.0903 73.4575 99.2411 73.2723L99.7747 72.6267C100.114 72.2171 100.469 71.9304 100.838 71.7664C101.208 71.6024 101.594 71.6088 101.999 71.7856C102.334 71.9325 102.587 72.1514 102.758 72.4422C102.929 72.7359 103.017 73.0672 103.021 73.4363C103.025 73.8082 102.944 74.1854 102.777 74.568C102.608 74.9545 102.388 75.2677 102.118 75.5077C101.85 75.7486 101.558 75.9047 101.243 75.9762C100.927 76.0497 100.616 76.0251 100.309 75.9025L100.617 75.1997Z" fill="#222222"></path><path d="M99.0546 80.0383L99.6381 80.4305L96.8993 84.5046L96.3158 84.1124L97.4641 82.4042L92.6155 79.1448L93.0577 78.487L97.9063 81.7464L99.0546 80.0383Z" fill="#222222"></path><path d="M85.5923 93.3882C85.8247 93.6171 86.1032 93.7161 86.428 93.6853C86.7527 93.6545 87.0698 93.5152 87.3791 93.2675C87.6053 93.0864 87.7739 92.8913 87.8849 92.6823C87.9943 92.4746 88.0451 92.2687 88.0374 92.0648C88.0279 91.8621 87.958 91.6793 87.8274 91.5163C87.7182 91.3799 87.5919 91.2887 87.4484 91.2425C87.3047 91.1993 87.1553 91.1866 87.0002 91.2043C86.8465 91.2237 86.6964 91.2579 86.55 91.3068C86.405 91.3575 86.2751 91.4083 86.1603 91.4593L85.5295 91.7351C85.3685 91.8068 85.1819 91.8771 84.9696 91.9461C84.7557 92.0164 84.5313 92.0583 84.2963 92.0717C84.0611 92.0881 83.8285 92.0533 83.5985 91.9672C83.3685 91.8812 83.1576 91.7184 82.9658 91.4789C82.7447 91.2028 82.6173 90.8954 82.5835 90.5567C82.5481 90.2193 82.6158 89.8744 82.7866 89.5219C82.9558 89.1708 83.2367 88.838 83.6292 88.5237C83.995 88.2307 84.3591 88.036 84.7215 87.9396C85.0821 87.8446 85.4235 87.8414 85.7457 87.9301C86.0662 88.0201 86.3483 88.1968 86.592 88.4603L85.9534 88.9717C85.7822 88.7921 85.5895 88.6844 85.3752 88.6486C85.1605 88.6157 84.9413 88.6385 84.7174 88.7168C84.4931 88.7981 84.2796 88.92 84.0767 89.0825C83.8405 89.2716 83.6591 89.4797 83.5324 89.7067C83.4071 89.9354 83.3448 90.1627 83.3456 90.3886C83.3477 90.6162 83.4234 90.8231 83.5725 91.0094C83.7084 91.179 83.8663 91.2791 84.0464 91.3097C84.2264 91.3402 84.4204 91.3268 84.6283 91.2694C84.8363 91.2121 85.05 91.1364 85.2696 91.0425L86.0421 90.7186C86.5332 90.5137 86.9803 90.4245 87.3836 90.4509C87.787 90.4773 88.1265 90.6626 88.4022 91.0069C88.6313 91.293 88.7537 91.6043 88.7695 91.9411C88.785 92.2808 88.7086 92.615 88.5404 92.9435C88.3719 93.275 88.1247 93.5713 87.7987 93.8323C87.4694 94.096 87.1294 94.2714 86.7787 94.3584C86.4294 94.4471 86.0986 94.45 85.7865 94.3669C85.4726 94.2852 85.2083 94.1188 84.9936 93.8677L85.5923 93.3882Z" fill="#222222"></path><path d="M78.8684 91.979L81.9824 97.7363L78.5078 99.6156L78.1733 98.9972L80.9507 97.4949L79.8986 95.5496L77.301 96.9545L76.9665 96.3361L79.564 94.9311L78.5058 92.9746L75.6834 94.5012L75.3489 93.8827L78.8684 91.979Z" fill="#222222"></path><path d="M71.6886 95.4131L73.7249 101.634L71.6231 102.322C71.1371 102.481 70.711 102.528 70.3448 102.464C69.9792 102.403 69.6745 102.252 69.4305 102.014C69.1865 101.775 69.0046 101.473 68.8846 101.106C68.7646 100.74 68.7331 100.39 68.7902 100.058C68.8472 99.7252 69.0041 99.4272 69.2609 99.1638C69.5184 98.9024 69.888 98.6928 70.37 98.5351L72.0709 97.9782L72.2937 98.6586L70.617 99.2075C70.2849 99.3162 70.0335 99.4523 69.8629 99.6158C69.6902 99.7799 69.5874 99.966 69.5546 100.174C69.5205 100.385 69.5442 100.615 69.6257 100.864C69.7072 101.113 69.8251 101.315 69.9792 101.471C70.1333 101.627 70.3292 101.722 70.5669 101.756C70.8052 101.793 71.0925 101.756 71.4286 101.646L72.7529 101.212L70.9353 95.6597L71.6886 95.4131ZM69.6753 99.166L67.2296 96.8728L68.1044 96.5864L70.5257 98.8876L69.6753 99.166Z" fill="#222222"></path><path d="M64.6137 104.047L61.9725 98.8354L61.8965 98.8454L60.6841 104.561L59.8601 104.668L61.3946 97.8667L62.2059 97.7606L65.4376 103.939L64.6137 104.047Z" fill="#222222"></path><path d="M54.4309 104.685L54.6189 98.1421L55.4112 98.1649L55.2232 104.708L54.4309 104.685Z" fill="#222222"></path><path d="M43.9747 101.223L44.7534 101.371C44.757 101.604 44.8003 101.816 44.8832 102.007C44.9641 102.198 45.0753 102.367 45.2167 102.513C45.3557 102.661 45.518 102.782 45.7036 102.878C45.8893 102.974 46.0889 103.043 46.3024 103.083C46.6917 103.157 47.0631 103.125 47.4166 102.989C47.7679 102.851 48.073 102.609 48.332 102.261C48.5889 101.913 48.7702 101.461 48.8758 100.904C48.9814 100.347 48.9785 99.8595 48.8669 99.4414C48.7533 99.023 48.5581 98.6856 48.2814 98.4293C48.0027 98.1726 47.6686 98.0073 47.2793 97.9334C47.0657 97.8929 46.855 97.8833 46.6471 97.9046C46.4392 97.9259 46.2438 97.9788 46.0607 98.0633C45.8752 98.1496 45.7099 98.2668 45.5647 98.4149C45.417 98.5647 45.299 98.7462 45.2109 98.9594L44.4322 98.8116C44.5531 98.4941 44.7157 98.2202 44.9198 97.99C45.124 97.7599 45.3585 97.5755 45.6233 97.4371C45.8877 97.3007 46.1722 97.2127 46.4769 97.1729C46.7795 97.1327 47.093 97.1434 47.4174 97.2049C47.9659 97.309 48.4282 97.5354 48.8045 97.8844C49.1807 98.2334 49.4444 98.6781 49.5956 99.2186C49.7468 99.7591 49.7581 100.368 49.6294 101.047C49.5007 101.725 49.2671 102.288 48.9285 102.735C48.5898 103.183 48.1816 103.5 47.7037 103.687C47.2258 103.874 46.7127 103.916 46.1642 103.812C45.8397 103.75 45.5441 103.645 45.2773 103.497C45.0083 103.348 44.776 103.161 44.5803 102.935C44.3842 102.712 44.2333 102.455 44.1276 102.166C44.0215 101.879 43.9706 101.565 43.9747 101.223Z" fill="#222222"></path><path d="M41.646 95.7555L39.2558 101.849L35.5783 100.406L35.8351 99.7518L38.7747 100.905L39.5823 98.846L36.8331 97.7676L37.0899 97.113L39.8391 98.1914L40.6514 96.1206L37.6642 94.9489L37.9209 94.2943L41.646 95.7555Z" fill="#222222"></path><path d="M28.7693 94.7816C28.6317 95.0773 28.6319 95.3729 28.7699 95.6685C28.9079 95.9641 29.1455 96.216 29.4827 96.4243C29.7292 96.5765 29.9696 96.6699 30.2038 96.7043C30.4361 96.7377 30.6471 96.7164 30.8366 96.6407C31.0243 96.5638 31.1731 96.4365 31.2828 96.2588C31.3746 96.1102 31.4182 95.9606 31.4135 95.8099C31.406 95.66 31.3678 95.515 31.2991 95.3749C31.2292 95.2366 31.1467 95.1067 31.0514 94.9852C30.955 94.8656 30.8635 94.7603 30.777 94.6693L30.3054 94.1677C30.1839 94.04 30.055 93.8878 29.9188 93.711C29.7808 93.5331 29.666 93.3357 29.5745 93.119C29.4801 92.9029 29.4348 92.6721 29.4387 92.4265C29.4426 92.181 29.5251 91.9277 29.6863 91.6667C29.8722 91.3658 30.119 91.1425 30.4267 90.997C30.7327 90.8504 31.0803 90.7984 31.4697 90.841C31.8573 90.8826 32.265 91.0354 32.6928 91.2997C33.0916 91.546 33.3972 91.8236 33.6096 92.1326C33.8201 92.4404 33.9377 92.761 33.9623 93.0942C33.9851 93.4263 33.9133 93.7514 33.7469 94.0694L33.0508 93.6394C33.1626 93.4179 33.1993 93.2003 33.1612 92.9863C33.1201 92.7731 33.025 92.5742 32.8761 92.3896C32.7243 92.2056 32.5378 92.0454 32.3166 91.9088C32.0592 91.7498 31.8023 91.6487 31.5459 91.6056C31.2885 91.5643 31.0534 91.5819 30.8409 91.6585C30.6272 91.7369 30.4576 91.8776 30.3322 92.0806C30.218 92.2655 30.1768 92.4479 30.2085 92.6277C30.2401 92.8076 30.3179 92.9858 30.4417 93.1624C30.5655 93.3391 30.7085 93.5151 30.8707 93.6904L31.435 94.3093C31.7928 94.7031 32.027 95.0944 32.1375 95.4832C32.248 95.872 32.1873 96.254 31.9556 96.6293C31.763 96.9411 31.5107 97.1609 31.1988 97.2888C30.884 97.4175 30.5436 97.4577 30.1777 97.4095C29.8089 97.362 29.4468 97.2285 29.0915 97.0091C28.7325 96.7874 28.4532 96.526 28.2536 96.2249C28.0528 95.9255 27.9391 95.6149 27.9125 95.293C27.8841 94.9699 27.9522 94.6651 28.1167 94.3785L28.7693 94.7816Z" fill="#222222"></path><circle cx="18.7235" cy="78.6531" r="2.57367" transform="rotate(-27.6172 18.7235 78.6531)" fill="#222222"></circle><circle cx="97.9696" cy="37.1944" r="2.57367" transform="rotate(-27.6172 97.9696 37.1944)" fill="#222222"></circle><defs><filter id="filter0_b_18578_424" x="-49.8828" y="-49.9942" width="216.459" height="216.459" color-interpolation-filters="sRGB"><feGaussianBlur stdDeviation="25"></feGaussianBlur></filter></defs></svg>