<svg xmlns="http://www.w3.org/2000/svg" width="18" height="18" viewBox="0 0 18 18" fill="none"><path fill-rule="evenodd" clip-rule="evenodd" d="M1.5 9C1.5 4.85787 4.85787 1.5 9 1.5C13.1422 1.5 16.5 4.85787 16.5 9V10.125C16.5 11.5747 15.3247 12.75 13.875 12.75C12.9718 12.75 12.1752 12.2939 11.7029 11.5994C11.0206 12.3087 10.0618 12.75 9 12.75C6.92893 12.75 5.25 11.071 5.25 9C5.25 6.92893 6.92893 5.25 9 5.25C11.071 5.25 12.75 6.92893 12.75 9V10.125C12.75 10.7463 13.2537 11.25 13.875 11.25C14.4963 11.25 15 10.7463 15 10.125V9C15 5.68629 12.3137 3 9 3C5.68629 3 3 5.68629 3 9C3 12.3137 5.68629 15 9 15H12C12.4142 15 12.75 15.3358 12.75 15.75C12.75 16.1642 12.4142 16.5 12 16.5H9C4.85787 16.5 1.5 13.1422 1.5 9ZM11.25 9C11.25 7.75736 10.2426 6.75 9 6.75C7.75736 6.75 6.75 7.75736 6.75 9C6.75 10.2426 7.75736 11.25 9 11.25C10.2426 11.25 11.25 10.2426 11.25 9Z" fill="currentColor"></path></svg>