<svg xmlns="http://www.w3.org/2000/svg" xmlns:xlink="http://www.w3.org/1999/xlink" id="Layer_1" x="0px" y="0px" viewBox="0 0 60 60" style="enable-background:new 0 0 60 60;" xml:space="preserve"><style type="text/css">	.st0{fill-rule:evenodd;clip-rule:evenodd;}</style><path class="st0" d="M43,23c3.9-3.9,10.2-3.9,14,0c3.9,3.9,3.9,10.2,0,14c-3.9,3.9-10.2,3.9-14,0l-3-3l-6,6l3,3  c3.9,3.9,3.9,10.2,0,14c-3.9,3.9-10.2,3.9-14,0c-3.9-3.9-3.9-10.2,0-14l3-3l-6-6l-3,3c-3.9,3.9-10.2,3.9-14,0C-1,33.1-1,26.9,2.9,23  c3.9-3.9,10.2-3.9,14,0l3,3l6-6l-3-3c-3.9-3.9-3.9-10.2,0-14C26.9-1,33.1-1,37,2.9c3.9,3.9,3.9,10.2,0,14l-3,3l6,6L43,23z M53.1,33  c-1.7,1.7-4.4,1.7-6,0l-3-3l3-3c1.7-1.7,4.4-1.7,6,0C54.7,28.7,54.7,31.3,53.1,33z M27,6.9c1.7-1.7,4.4-1.7,6,0c1.7,1.7,1.7,4.4,0,6  l-3,3l-3-3C25.3,11.3,25.3,8.6,27,6.9z M30,24l-6,6l6,6l6-6L30,24z M6.9,33c-1.7-1.7-1.7-4.4,0-6c1.7-1.7,4.4-1.7,6,0l3,3l-3,3  C11.3,34.7,8.6,34.7,6.9,33z M33,53.1c-1.7,1.7-4.4,1.7-6,0c-1.7-1.7-1.7-4.4,0-6l3-3l3,3C34.7,48.7,34.7,51.4,33,53.1z"></path><path class="st0" d="M57.1,23c-3.9-3.9-10.2-3.9-14,0l-3,3l-6-6l3-3c3.9-3.9,3.9-10.2,0-14C33.1-1,26.9-1,23,2.9  c-3.9,3.9-3.9,10.2,0,14l3,3l-6,6l-3-3c-3.9-3.9-10.2-3.9-14,0C-1,26.9-1,33.1,2.9,37c3.9,3.9,10.2,3.9,14,0l3-3l6,6l-3,3  c-3.9,3.9-3.9,10.2,0,14c3.9,3.9,10.2,3.9,14,0c3.9-3.9,3.9-10.2,0-14l-3-3l6-6l3,3c3.9,3.9,10.2,3.9,14,0C61,33.1,61,26.9,57.1,23z   M33,53.1c-1.7,1.7-4.4,1.7-6,0c-1.7-1.7-1.7-4.4,0-6l3-3l3,3C34.7,48.7,34.7,51.4,33,53.1z M24,30l6-6l6,6l-6,6L24,30z M27,6.9  c1.7-1.7,4.4-1.7,6,0c1.7,1.7,1.7,4.4,0,6l-3,3l-3-3C25.3,11.3,25.3,8.6,27,6.9z M6.9,27c-1.7,1.7-1.7,4.4,0,6c1.7,1.7,4.4,1.7,6,0  l3-3l-3-3C11.3,25.3,8.6,25.3,6.9,27z M53.1,33c-1.7,1.7-4.4,1.7-6,0l-3-3l3-3c1.7-1.7,4.4-1.7,6,0C54.7,28.7,54.7,31.3,53.1,33z"></path></svg>