<svg xmlns="http://www.w3.org/2000/svg" xmlns:xlink="http://www.w3.org/1999/xlink" id="Layer_1" x="0px" y="0px" viewBox="0 0 62 62" style="enable-background:new 0 0 62 62;" xml:space="preserve"><style type="text/css">	.st0{fill-rule:evenodd;clip-rule:evenodd;}</style><path class="st0" d="M34.7,28.6l18.2-18.2l-1.2-1.2L33.4,27.4l9.8-23.7L41.7,3l-9.8,23.7V1h-1.7v25.7L20.3,3l-1.6,0.7l9.8,23.7  L10.4,9.2l-1.2,1.2l18.2,18.2L3.6,18.7L3,20.3l23.7,9.8H1v1.7h25.7L3,41.7l0.7,1.6l23.7-9.8L9.2,51.6l1.2,1.2l18.2-18.2l-9.8,23.7  l1.6,0.7l9.8-23.7V61h1.7V35.3L41.7,59l1.6-0.7l-9.8-23.7l18.2,18.2l1.2-1.2L34.6,33.4l23.7,9.8l0.7-1.6l-23.7-9.8H61v-1.7H35.3  L59,20.3l-0.7-1.6L34.7,28.6z"></path><path class="st0" d="M29.6,0.5h2.7v23.7l9.1-21.9l2.5,1l-9.1,21.9L51.6,8.5l1.9,1.9L36.8,27.1l21.9-9.1l1,2.5l-21.9,9.1h23.7v2.7  H37.8l21.9,9.1l-1,2.5l-21.9-9.1l16.7,16.7l-1.9,1.9L34.9,36.8l9.1,21.9l-2.5,1l-9.1-21.9v23.7h-2.7V37.8l-9.1,21.9l-2.5-1l9.1-21.9  L10.4,53.5l-1.9-1.9l16.7-16.7L3.3,43.9l-1-2.5l21.9-9.1H0.5v-2.7h23.7L2.3,20.6l1-2.5l21.9,9.1L8.5,10.4l1.9-1.9l16.7,16.7  L18.1,3.3l2.5-1l9.1,21.9V0.5z M30.6,1.5v25.2l-1,0.2L20,3.6l-0.7,0.3L29,27.2l-0.8,0.5L10.4,9.9l-0.5,0.5l17.8,17.8L27.2,29  L3.9,19.4L3.6,20l23.3,9.6l-0.2,1H1.5v0.7h25.2l0.2,1L3.6,42l0.3,0.7L27.2,33l0.5,0.8L9.9,51.6l0.5,0.5l17.8-17.8l0.8,0.5l-9.6,23.3  l0.7,0.3l9.6-23.3l1,0.2v25.2h0.7V35.3l1-0.2L42,58.4l0.7-0.3L33,34.8l0.8-0.5l17.8,17.8l0.5-0.5L34.3,33.8l0.5-0.8l23.3,9.6  l0.3-0.7l-23.3-9.6l0.2-1h25.2v-0.7H35.3l-0.2-1L58.4,20l-0.3-0.7L34.8,29l-0.5-0.8l17.8-17.8l-0.5-0.5L33.8,27.7L33,27.2l9.6-23.3  L42,3.6l-9.6,23.3l-1-0.2V1.5H30.6z"></path></svg>