<svg xmlns="http://www.w3.org/2000/svg" width="449" height="54" viewBox="0 0 449 54" fill="none"><path d="M23.7997 24.8733C23.9461 24.8241 24.0909 24.7726 24.2342 24.7189C23.9998 24.8486 23.2133 25.1384 21.7856 25.3902C22.4309 25.2716 23.0513 25.1161 23.6469 24.9237C23.6981 24.9071 23.749 24.8904 23.7997 24.8733Z" fill="#8D4D5D"></path><path d="M33.3575 47.3117C33.3655 47.2999 33.3735 47.2881 33.3815 47.2762C33.3204 47.2691 33.2594 47.2621 33.1984 47.2552C32.3847 47.162 31.5846 47.0703 30.7158 46.7751C31.3646 47.0131 32.2424 47.2267 33.3575 47.3117Z" fill="#8D4D5D"></path><path d="M34.1215 47.3479C33.9081 47.3318 33.6562 47.308 33.3815 47.2762L33.3575 47.3117C33.6008 47.3302 33.8555 47.3427 34.1215 47.3479Z" fill="#8D4D5D"></path><path fill-rule="evenodd" clip-rule="evenodd" d="M20.2785 7.4728C19.0984 9.52858 18.5084 11.7291 18.5084 14.0745C18.5084 16.9996 19.2666 19.596 20.7829 21.8636C22.5486 21.7056 24.1959 20.8356 24.7988 20.4203C23.6055 18.7021 22.843 16.6415 22.843 14.0745C22.843 11.7611 23.5641 9.71322 24.6859 8.08911C23.3614 7.18479 21.3992 6.96228 20.5836 6.96406C20.4778 7.13087 20.3761 7.30045 20.2785 7.4728Z" fill="#8D4D5D"></path><path d="M29.4345 46.08C29.5432 46.2238 29.8115 46.4017 29.9636 46.4726L29.9813 46.4502C29.7251 46.3127 29.5433 46.1827 29.4345 46.08Z" fill="#8D4D5D"></path><path d="M30.7158 46.7751C30.4254 46.6685 30.1808 46.5571 29.9813 46.4502L29.9636 46.4726C30.221 46.5927 30.4711 46.6919 30.7158 46.7751Z" fill="#8D4D5D"></path><path d="M53.3415 0.658537V53.3415H35.5106C34.2261 53.3415 33.0202 53.2797 31.893 53.1561L31.8252 53.1485C31.7725 53.1426 31.72 53.1366 31.6676 53.1304L31.6397 53.1271C31.4663 53.1064 31.2948 53.0843 31.1251 53.0606C29.8278 52.8797 28.6416 52.6114 27.5666 52.2557L27.4696 52.222L27.4589 52.2183C27.3038 52.1639 27.1508 52.1083 27 52.0513C25.7886 51.5937 24.7143 51.0506 23.777 50.422L23.7554 50.4075C23.629 50.3223 23.5051 50.2356 23.3836 50.1473C22.9802 49.8539 22.6044 49.5433 22.2562 49.2154C21.8721 48.8454 21.5181 48.4591 21.1943 48.0564L21.1771 48.035C21.1013 47.9403 21.0272 47.8447 20.9547 47.7481C20.2546 46.8157 19.7098 45.7992 19.3204 44.6985C18.6872 42.9902 18.3706 41.1805 18.3706 39.2695C18.3706 37.5033 18.8311 35.7226 19.7521 33.9274C20.1413 33.1689 20.6024 32.4543 21.1354 31.7837C20.8815 31.7558 20.6196 31.7349 20.3514 31.7231C19.9036 32.3251 19.5084 32.9598 19.1662 33.6268C18.2043 35.5017 17.712 37.3847 17.712 39.2695C17.712 41.2531 18.0407 43.1391 18.7012 44.9229C19.1128 46.0847 19.6888 47.1589 20.4281 48.1436C20.8365 48.6875 21.2938 49.2028 21.7994 49.6897L21.8047 49.6948C22.174 50.0426 22.5714 50.3709 22.9963 50.6799C24.0775 51.4661 25.3367 52.127 26.7673 52.6674C26.9592 52.7399 27.1542 52.8102 27.3523 52.8784L27.3597 52.8809C28.4778 53.2508 29.7034 53.5273 31.0342 53.7128C32.4115 53.9049 33.9041 54 35.5106 54H54V0H35.4243C34.4226 0 33.465 0.0475819 32.5518 0.143399L31.1851 0.328442C31.4163 0.475585 31.6706 0.66459 31.9365 0.880559C32.1614 0.849998 32.3894 0.822592 32.6205 0.79834C33.5088 0.705138 34.4434 0.658537 35.4243 0.658537H53.3415Z" fill="#8D4D5D"></path><path d="M53.3415 53.3415V0.658537H35.4243C34.4434 0.658537 33.5088 0.705138 32.6205 0.79834C32.3894 0.822592 32.1614 0.849998 31.9365 0.880559C33.0976 1.8235 34.4802 3.28047 35.1293 4.01176C35.2271 4.01049 35.3254 4.00985 35.4243 4.00985H49.4881V25.0168H35.5106L35.4269 25.0166C35.275 25.016 35.1243 25.0137 34.9749 25.0097C34.9277 25.0085 34.8807 25.007 34.8338 25.0054L34.201 25.6334L33.0118 26.8133L34.8014 28.3313L34.7953 28.3314L35.561 28.9832H49.4881V49.9033H35.4243C35.0253 49.9033 34.6364 49.8963 34.2574 49.8823C32.9693 49.8348 31.7983 49.7069 30.7424 49.5009C29.4092 49.2409 28.2654 48.8578 27.3026 48.3596C26.5054 47.9471 25.8318 47.4556 25.2751 46.8883C25.1861 46.7962 25.0991 46.7031 25.0141 46.6092C23.2172 44.621 22.3103 42.1744 22.3103 39.2261C22.3103 37.0796 22.8434 35.2561 23.8864 33.7268C24.1216 33.382 24.3837 33.0505 24.6733 32.7323L24.028 32.4672C24.0303 32.4645 24.0326 32.4618 24.0349 32.4592C23.3611 32.208 22.3378 31.9161 21.1354 31.7837C20.6024 32.4543 20.1413 33.1689 19.7521 33.9274C18.8311 35.7226 18.3706 37.5033 18.3706 39.2695C18.3706 41.1805 18.6872 42.9902 19.3204 44.6985C19.7098 45.7992 20.2546 46.8157 20.9547 47.7481C21.0272 47.8447 21.1013 47.9403 21.1771 48.035L21.1943 48.0564C21.5181 48.4591 21.8721 48.8454 22.2562 49.2154C22.6044 49.5433 22.9802 49.8539 23.3836 50.1473C23.5051 50.2356 23.629 50.3223 23.7554 50.4075L23.777 50.422C24.7143 51.0506 25.7886 51.5937 27 52.0513C27.1508 52.1083 27.3038 52.1639 27.4589 52.2183L27.4696 52.222L27.5666 52.2557C28.6416 52.6114 29.8278 52.8797 31.1251 53.0606C31.2948 53.0843 31.4663 53.1064 31.6397 53.1271L31.6676 53.1304C31.72 53.1366 31.7725 53.1426 31.8252 53.1485L31.893 53.1561C33.0202 53.2797 34.2261 53.3415 35.5106 53.3415H53.3415Z" fill="#8D4D5D"></path><path d="M30.3454 3.61541C30.3898 3.64836 30.4394 3.68624 30.4934 3.72869C29.5438 2.94327 28.5299 2.32534 27.5218 1.83943L30.3454 3.61541Z" fill="#8D4D5D"></path><path fill-rule="evenodd" clip-rule="evenodd" d="M28.8239 25.3175L28.7901 25.3366L28.8022 25.3298L28.8239 25.3175ZM22.5288 53.7701C22.1924 53.6007 21.8679 53.412 21.5574 53.2109C20.2706 52.3772 19.2252 51.3297 18.5783 50.5618C18.3618 50.3048 18.1899 50.0792 18.0686 49.9033H4.51195V28.9832H18.5757C18.99 28.9832 19.3943 28.992 19.7887 29.0096C20.0402 29.0208 20.2877 29.0355 20.5312 29.0538C21.703 29.1418 22.7803 29.3118 23.765 29.5613L23.814 29.5739L23.8163 29.5744L23.8706 29.5885L23.8726 29.589L23.9116 29.5993L23.9137 29.5998L23.967 29.614C24.1409 29.6606 24.3118 29.7097 24.4797 29.7614C24.7825 29.8546 25.0756 29.9559 25.3591 30.0653C25.8279 30.2463 26.2705 30.4493 26.6874 30.6742C27.2896 30.999 27.839 31.3698 28.337 31.7859L28.3504 31.7971L28.3521 31.7985L28.3825 31.8241C28.606 32.0133 28.8176 32.208 29.0175 32.4081C29.4324 32.8236 29.7974 33.2631 30.1136 33.7268C31.1566 35.2561 31.6897 37.0796 31.6897 39.2261C31.6897 41.918 30.9337 44.1916 29.4345 46.08C29.5433 46.1827 29.7251 46.3127 29.9813 46.4502C30.1808 46.5571 30.4254 46.6685 30.7158 46.7751C31.5846 47.0703 32.3847 47.162 33.1984 47.2552L33.3815 47.2762C33.6562 47.308 33.9081 47.3318 34.1215 47.3479C34.6029 46.5876 34.9955 45.779 35.2988 44.9228C35.9593 43.139 36.288 41.2531 36.288 39.2695C36.288 37.3847 35.7957 35.5017 34.8338 33.6268C34.4124 32.8054 33.9107 32.0331 33.3292 31.3103C33.1889 31.1359 33.0439 30.9643 32.8944 30.7958C32.3484 30.1803 31.7417 29.6046 31.0753 29.0683C30.7924 28.8315 30.5008 28.6061 30.2288 28.4305C29.8823 28.1899 29.5241 27.969 29.1541 27.7679C28.5363 27.4322 27.8868 27.1522 27.2063 26.9277C27.1471 26.9082 27.0876 26.8891 27.028 26.8704C27.098 26.8445 27.1677 26.8183 27.2368 26.7916C27.8681 26.5483 28.4632 26.2719 29.0214 25.962L29.0241 25.9605L29.1273 25.9025C29.4822 25.701 29.8218 25.4858 30.146 25.2566C31.068 24.6046 31.8618 23.8421 32.5239 22.969C32.5878 22.8847 32.6506 22.7993 32.712 22.7129C34.4662 20.2485 35.3382 17.4058 35.3382 14.2093C35.3382 11.7483 34.7177 9.43548 33.4816 7.28155C33.229 6.83549 32.9501 6.40688 32.645 5.99588C32.0093 5.02795 31.0318 4.15169 30.4934 3.72869C30.4394 3.68624 30.3898 3.64836 30.3454 3.61541L27.5218 1.83943C25.1683 0.704983 22.8467 0.290137 21.4482 0.143399C20.535 0.0475819 19.5774 0 18.5757 0H0V54H18.4894C19.9275 54 21.2743 53.9238 22.5288 53.7701ZM32.4018 31.2328C32.3202 31.1409 32.2372 31.0499 32.1528 30.9597L32.1334 30.9391C31.6827 30.46 31.1907 30.006 30.6574 29.5773C31.341 30.1501 32.0498 30.8587 32.4018 31.2328ZM20.9882 25.5162C21.2576 25.4803 21.5243 25.4382 21.7856 25.3902C23.2133 25.1384 23.9998 24.8486 24.2342 24.7189C24.0909 24.7726 23.9461 24.8241 23.7997 24.8733L23.7166 24.901L23.6469 24.9237C23.0513 25.1161 22.4309 25.2716 21.7856 25.3902C21.6613 25.4121 21.5307 25.434 21.3965 25.4552C21.2651 25.476 21.129 25.4963 20.9882 25.5162ZM26.8698 22.5546C27.0197 22.4441 27.1671 22.3299 27.3121 22.2119C27.7792 21.8304 28.1968 21.4161 28.566 20.969C28.7126 20.7914 28.8517 20.6085 28.9833 20.4203C29.0122 20.3789 29.0408 20.3373 29.0689 20.2954C30.1691 18.6615 30.7399 16.6025 30.7399 14.079C30.7399 13.2643 30.6709 12.5029 30.5352 11.7933L30.5298 11.7653L30.5228 11.7296C30.2197 10.196 29.601 8.89662 28.6737 7.81455L28.6664 7.80599L28.6593 7.79718C28.3787 7.44605 27.5697 6.59587 26.6766 6.09254L26.6593 6.08275L26.6425 6.07193C25.8036 5.52968 24.8753 5.09284 23.855 4.76313C23.7709 4.73595 23.6845 4.70686 23.5948 4.67661C22.9681 4.46542 22.1727 4.19736 20.7731 4.12261L20.7559 4.12169L20.7387 4.11987C20.0494 4.0467 19.3285 4.00985 18.5757 4.00985H4.51195V25.0168H18.4894L18.5731 25.0166C18.9737 25.015 19.3658 25.0016 19.7492 24.9767C20.1415 24.9511 20.5248 24.9134 20.899 24.8637C21.1742 24.8249 21.4305 24.784 21.6674 24.7423C22.2855 24.6288 22.8777 24.4802 23.4444 24.297C23.4931 24.2813 23.5416 24.2653 23.5899 24.2491C23.7291 24.2023 23.8669 24.1533 24.003 24.1023C24.0756 24.075 24.1477 24.0473 24.2194 24.0189C24.4304 23.9352 24.6377 23.8464 24.8413 23.7523C25.4699 23.462 26.0637 23.1216 26.6233 22.7314C26.7062 22.6736 26.7884 22.6146 26.8698 22.5546Z" fill="#8D4D5D"></path><path d="M89.3774 8.10169H86.7552V26.2069H90.7165C94.343 26.2069 97.8022 25.2223 97.8022 16.8534C97.8022 8.86746 93.1714 8.10169 89.3774 8.10169ZM105.557 36.2167C105.557 45.6795 98.5832 46.0077 88.9311 46.0077H79V45.5154C81.3991 45.5154 82.236 43.6557 82.236 39.9362V13.4074C82.236 10.0161 81.4549 7.99229 79 7.99229V7.5H88.9311C96.6863 7.5 102.935 8.32048 102.935 16.9081C102.935 25.5505 95.0683 26.2616 93.9525 26.2616C97.579 26.2616 105.557 27.0274 105.557 36.2167ZM100.313 35.9979C100.313 27.0274 95.0683 26.8086 90.7165 26.8086H86.7552V45.406H89.3774C94.9567 45.406 100.313 45.5154 100.313 35.9979Z" fill="#222222"></path><path d="M135.606 34.9039H136.219V46.0077H109.885V45.406C112.228 45.406 112.731 43.8745 112.731 40.155V12.4776C112.731 9.08626 112.34 8.10169 109.885 8.10169V7.5H135.494V17.0722H134.88C134.601 8.21108 127.683 8.10169 120.876 8.10169H117.306V26.2616H121.769C124.001 26.2616 128.687 26.2069 128.855 20.8464H129.468V32.3331H128.855C128.687 26.918 123.889 26.8633 121.769 26.8633H117.306V45.406H120.151C127.627 45.406 135.048 45.7889 135.606 34.9039Z" fill="#222222"></path><path d="M168.419 34.1381H168.977V46.0077H143.089V45.406C145.488 45.406 145.711 43.4916 145.711 39.7721V12.587C145.711 9.25035 145.042 8.04699 142.643 8.04699V7.5H153.689V8.04699C151.29 8.04699 150.119 8.97686 150.119 12.9151V45.406H152.127C161.11 45.4607 167.917 45.406 168.419 34.1381Z" fill="#222222"></path><path d="M198.647 34.1381H199.205V46.0077H173.317V45.406C175.716 45.406 175.939 43.4916 175.939 39.7721V12.587C175.939 9.25035 175.27 8.04699 172.871 8.04699V7.5H183.918V8.04699C181.519 8.04699 180.347 8.97686 180.347 12.9151V45.406H182.356C191.338 45.4607 198.145 45.406 198.647 34.1381Z" fill="#222222"></path><path d="M210.631 33.263H225.305L217.717 14.0638L210.631 33.263ZM237.691 45.406V46.0077H226.588V45.406C228.931 45.406 229.545 43.6557 227.536 39.061L225.528 33.8647H210.464C208.121 40.4285 206.224 45.5154 213.477 45.406V46.0077H201.649V45.406C204.103 45.406 205.498 44.8043 210.017 32.3878L219.223 7.5H219.614C223.017 15.5407 233.171 40.702 233.171 40.702C234.957 45.0778 236.073 45.2966 237.691 45.406Z" fill="#222222"></path><path d="M264.416 8.10169H261.794V26.2069H265.755C269.382 26.2069 272.841 25.2223 272.841 16.8534C272.841 8.86746 268.21 8.10169 264.416 8.10169ZM280.596 36.2167C280.596 45.6795 273.622 46.0077 263.97 46.0077H254.039V45.5154C256.438 45.5154 257.275 43.6557 257.275 39.9362V13.4074C257.275 10.0161 256.494 7.99229 254.039 7.99229V7.5H263.97C271.725 7.5 277.974 8.32048 277.974 16.9081C277.974 25.5505 270.107 26.2616 268.991 26.2616C272.618 26.2616 280.596 27.0274 280.596 36.2167ZM275.352 35.9979C275.352 27.0274 270.107 26.8086 265.755 26.8086H261.794V45.406H264.416C269.996 45.406 275.352 45.5154 275.352 35.9979Z" fill="#222222"></path><path d="M310.644 34.9039H311.258V46.0077H284.924V45.406C287.267 45.406 287.769 43.8745 287.769 40.155V12.4776C287.769 9.08626 287.379 8.10169 284.924 8.10169V7.5H310.533V17.0722H309.919C309.64 8.21108 302.722 8.10169 295.915 8.10169H292.344V26.2616H296.808C299.04 26.2616 303.726 26.2069 303.894 20.8464H304.507V32.3331H303.894C303.726 26.918 298.928 26.8633 296.808 26.8633H292.344V45.406H295.19C302.666 45.406 310.087 45.7889 310.644 34.9039Z" fill="#222222"></path><path d="M323.819 33.263H338.492L330.904 14.0638L323.819 33.263ZM350.878 45.406V46.0077H339.775V45.406C342.119 45.406 342.732 43.6557 340.724 39.061L338.715 33.8647H323.651C321.308 40.4285 319.411 45.5154 326.664 45.406V46.0077H314.836V45.406C317.291 45.406 318.686 44.8043 323.205 32.3878L332.411 7.5H332.801C336.205 15.5407 346.359 40.702 346.359 40.702C348.144 45.0778 349.26 45.2966 350.878 45.406Z" fill="#222222"></path><path d="M365.782 46.5C358.753 46.5 353.285 41.96 353.285 33.0442V12.8058C353.285 8.92216 352.057 8.10169 349.603 8.10169V7.5H361.598V8.10169C359.199 8.10169 357.525 8.42987 357.525 12.9151V33.5365C357.525 40.5379 361.654 44.4762 368.126 44.4762C374.542 44.4762 378.615 40.3191 378.615 33.2083V19.0414C378.615 11.2742 378.392 8.10169 372.478 8.10169V7.5H385.756V8.10169C379.005 8.10169 379.229 11.2742 379.229 19.0414V33.2083C379.284 42.0694 373.649 46.5 365.782 46.5Z" fill="#222222"></path><path d="M379.117 7.5H412.291V16.4705H411.677C411.566 8.10168 403.532 8.04699 402.36 8.04699H397.952V41.3583C397.952 44.9137 399.291 45.406 401.635 45.406V46.0077H390.03V45.406C392.373 45.406 393.712 44.9137 393.712 41.3583V8.04699H389.304C386.738 8.04699 379.343 8.07668 379.231 16.4455L378.756 16.5536L379.117 7.5Z" fill="#222222"></path><path d="M435.833 7.5H449V8.10169C446.099 8.10169 444.481 8.04699 438.344 20.0806L433.713 29.2153V40.1003C433.713 44.9137 435.387 45.406 437.73 45.406V46.0077H426.069V45.406C428.412 45.406 429.975 44.9137 429.975 40.1003V29.9264C421.773 15.7048 419.653 12.3135 419.653 12.3135C417.142 8.10169 415.915 8.21108 413.906 8.04699V7.5H426.46V8.04699C424.73 8.04699 421.383 7.93759 425.176 14.2279L433.545 28.3401L438.065 19.3149C440.91 13.6809 443.142 8.10169 435.833 8.10169V7.5Z" fill="#222222"></path></svg>