<?xml version="1.0" encoding="UTF-8"?>
<svg xmlns="http://www.w3.org/2000/svg" width="396" height="48" viewBox="0 0 396 48" fill="none">
  <path d="M26.2381 25.6578L25.3542 24.7739L24.4703 25.6578L20.6578 29.4703L19.7739 30.3542L20.6578 31.2381L22.564 33.1443C24.5342 35.1144 24.5342 38.3023 22.564 40.2724C20.5939 42.2425 17.4061 42.2425 15.436 40.2724C13.4658 38.3023 13.4658 35.1144 15.436 33.1443L17.3422 31.2381L18.2261 30.3542L17.3422 29.4703L13.5297 25.6578L12.6458 24.7739L11.7619 25.6578L9.85568 27.564C7.88556 29.5342 4.69771 29.5342 2.72759 27.564C0.75747 25.5939 0.75747 22.4061 2.72759 20.436C4.69771 18.4658 7.88556 18.4658 9.85568 20.436L11.7619 22.3422L12.6458 23.2261L13.5297 22.3422L17.3422 18.5297L18.2261 17.6458L17.3422 16.7619L15.436 14.8557C13.4658 12.8856 13.4658 9.69771 15.436 7.72759C17.4061 5.75747 20.5939 5.75747 22.564 7.72759C24.5342 9.69771 24.5342 12.8856 22.564 14.8557L20.6578 16.7619L19.7739 17.6458L20.6578 18.5297L24.4703 22.3422L25.3542 23.2261L26.2381 22.3422L28.1443 20.436C30.1144 18.4658 33.3023 18.4658 35.2724 20.436C37.2425 22.4061 37.2425 25.5939 35.2724 27.564C33.3023 29.5342 30.1144 29.5342 28.1443 27.564L26.2381 25.6578ZM27.012 23.1161L26.1281 24L27.012 24.8839L28.9182 26.7901C30.4588 28.3307 32.9579 28.3307 34.4985 26.7901C36.0391 25.2496 36.0391 22.7504 34.4985 21.2099C32.9579 19.6693 30.4588 19.6693 28.9182 21.2099L27.012 23.1161ZM18.1161 15.988L19 16.8719L19.8839 15.988L21.7901 14.0818C23.3307 12.5412 23.3307 10.0421 21.7901 8.50149L20.9063 9.38538L21.7901 8.50149C20.2496 6.96093 17.7504 6.96093 16.2099 8.50149C14.6693 10.0421 14.6693 12.5412 16.2099 14.0818L18.1161 15.988ZM19.8839 19.3036L19 18.4197L18.1161 19.3036L14.3036 23.1161L13.4197 24L14.3036 24.8839L18.1161 28.6964L19 29.5803L19.8839 28.6964L23.6964 24.8839L24.5803 24L23.6964 23.1161L19.8839 19.3036ZM3.50149 26.7901L4.38538 25.9063L3.5015 26.7901C5.04206 28.3307 7.5412 28.3307 9.08177 26.7901L10.988 24.8839L11.8719 24L10.988 23.1161L9.08177 21.2099C7.54121 19.6693 5.04206 19.6693 3.50149 21.2099C1.96093 22.7504 1.96093 25.2496 3.50149 26.7901ZM19.8839 32.012L19 31.1281L18.1161 32.012L16.2099 33.9182C14.6693 35.4588 14.6693 37.9579 16.2099 39.4985C17.7504 41.0391 20.2496 41.0391 21.7901 39.4985C23.3307 37.9579 23.3307 35.4588 21.7901 33.9182L19.8839 32.012Z" stroke="#F7E4E7" stroke-width="2.5"></path>
  <path d="M54.3 27.612H63.768L58.872 14.976L54.3 27.612ZM71.76 35.604V36H64.596V35.604C66.108 35.604 66.504 34.452 65.208 31.428L63.912 28.008H54.192C52.68 32.328 51.456 35.676 56.136 35.604V36H48.504V35.604C50.088 35.604 50.988 35.208 53.904 27.036L59.844 10.656H60.096C62.292 15.948 68.844 32.508 68.844 32.508C69.996 35.388 70.716 35.532 71.76 35.604ZM89.9698 28.692H90.3658V36H73.3738V35.604C74.8858 35.604 75.2098 34.596 75.2098 32.148V13.932C75.2098 11.7 74.9578 11.052 73.3738 11.052V10.656H89.8978V16.956H89.5018C89.3218 11.124 84.8578 11.052 80.4658 11.052H78.1618V23.004H81.0418C82.4818 23.004 85.5058 22.968 85.6138 19.44H86.0098V27H85.6138C85.5058 23.436 82.4098 23.4 81.0418 23.4H78.1618V35.604H79.9978C84.8218 35.604 89.6098 35.856 89.9698 28.692ZM109.594 33.372C109.594 33.372 108.118 36.324 102.646 36.324C97.3543 36.324 94.7263 34.38 94.7263 34.38V27.468H95.0863C95.2663 32.976 96.6703 35.928 102.646 35.928C108.91 35.928 109.414 29.412 105.274 26.532L99.1183 22.464C96.5263 20.664 92.5663 17.604 95.2303 13.14C95.2303 13.14 96.9943 10.332 101.674 10.332C106.426 10.332 109.378 12.024 109.378 12.024V18.072H108.946C108.802 13.68 107.794 10.728 101.674 10.728C97.7863 10.728 94.0423 15.876 99.8383 19.62L105.994 23.652C110.854 26.856 111.07 30.888 109.594 33.372ZM111.336 10.656H132.54V16.56H132.144C132.072 11.052 126.888 11.016 126.132 11.016H123.288V32.94C123.288 35.28 124.152 35.604 125.664 35.604V36H118.176V35.604C119.688 35.604 120.552 35.28 120.552 32.94V11.016H117.708C116.052 11.016 111.768 11.052 111.696 16.56H111.336V10.656ZM151.979 15.552V31.104C151.979 34.056 151.943 35.1 153.815 35.604V36H148.055V35.604C149.027 35.244 149.171 34.452 149.171 31.104V24.12H138.695V31.104C138.695 35.136 138.839 35.244 139.847 35.604V36H134.015V35.604C135.923 35.1 135.923 34.776 135.923 31.104V15.552C135.923 12.096 135.743 11.34 134.015 11.016V10.656H139.847V11.016C138.839 11.34 138.695 11.7 138.695 15.552V23.544H149.171V15.552C149.171 11.7 149.063 11.34 148.055 11.016V10.656H153.815V11.016C152.123 11.34 151.979 11.7 151.979 15.552ZM173.31 28.692H173.706V36H156.714V35.604C158.226 35.604 158.55 34.596 158.55 32.148V13.932C158.55 11.7 158.298 11.052 156.714 11.052V10.656H173.238V16.956H172.842C172.662 11.124 168.198 11.052 163.806 11.052H161.502V23.004H164.382C165.822 23.004 168.846 22.968 168.954 19.44H169.35V27H168.954C168.846 23.436 165.75 23.4 164.382 23.4H161.502V35.604H163.338C168.162 35.604 172.95 35.856 173.31 28.692ZM177.094 10.656H198.298V16.56H197.902C197.83 11.052 192.646 11.016 191.89 11.016H189.046V32.94C189.046 35.28 189.91 35.604 191.422 35.604V36H183.934V35.604C185.446 35.604 186.31 35.28 186.31 32.94V11.016H183.466C181.81 11.016 177.526 11.052 177.454 16.56H177.094V10.656ZM200.744 10.656H208.16V11.016C206.612 11.016 205.928 11.448 205.928 13.68V32.4C205.928 34.848 206.648 35.604 208.16 35.604V36H200.744V35.604C202.292 35.604 203.012 34.848 203.012 32.4V13.68C203.012 11.448 202.328 11.016 200.744 11.016V10.656ZM229.984 28.584H230.38L230.74 34.092C228.076 35.856 226.276 36.324 222.424 36.324C215.08 36.324 209.932 31.752 209.932 23.328C209.932 14.76 215.08 10.332 222.424 10.332C226.132 10.332 228.472 10.692 230.74 12.528L230.38 18.036H229.984C229.48 11.556 224.728 10.728 222.424 10.728C218.788 10.728 213.604 11.952 213.604 23.328C213.604 34.956 218.896 35.928 222.424 35.928C224.62 35.928 229.768 34.848 229.984 28.584ZM268.301 31.86C268.301 35.028 269.705 35.604 271.253 35.604V36H262.865V35.604C264.377 35.604 265.457 35.028 265.457 31.86V11.88L257.213 36.324H256.817L246.809 14.076V27.108C246.809 33.336 247.745 35.604 251.309 35.604V36H241.481V35.604C245.441 35.604 246.413 33.192 246.413 27.108V13.392C245.081 11.088 243.281 11.088 242.417 11.052V10.656H248.645L258.293 32.112L265.457 10.656H271.073V11.052C269.525 11.052 268.301 11.664 268.301 14.22V31.86ZM290.872 28.692H291.268V36H274.276V35.604C275.788 35.604 276.112 34.596 276.112 32.148V13.932C276.112 11.7 275.86 11.052 274.276 11.052V10.656H290.8V16.956H290.404C290.224 11.124 285.76 11.052 281.368 11.052H279.064V23.004H281.944C283.384 23.004 286.408 22.968 286.516 19.44H286.912V27H286.516C286.408 23.436 283.312 23.4 281.944 23.4H279.064V35.604H280.9C285.724 35.604 290.512 35.856 290.872 28.692ZM312.909 23.364C312.909 11.52 306.573 11.052 302.397 11.052H300.813V35.604H302.397C306.429 35.604 312.909 35.676 312.909 23.364ZM316.293 23.364C316.293 34.452 309.561 36 302.397 36H295.521V35.604C297.069 35.604 297.825 34.488 297.825 32.04V14.544C297.825 12.312 297.105 11.052 295.521 11.052V10.656H302.397C309.561 10.656 316.293 12.816 316.293 23.364ZM318.854 10.656H326.27V11.016C324.722 11.016 324.038 11.448 324.038 13.68V32.4C324.038 34.848 324.758 35.604 326.27 35.604V36H318.854V35.604C320.402 35.604 321.122 34.848 321.122 32.4V13.68C321.122 11.448 320.438 11.016 318.854 11.016V10.656ZM349.094 28.584H349.49L349.85 34.092C347.186 35.856 345.386 36.324 341.534 36.324C334.19 36.324 329.042 31.752 329.042 23.328C329.042 14.76 334.19 10.332 341.534 10.332C345.242 10.332 347.582 10.692 349.85 12.528L349.49 18.036H349.094C348.59 11.556 343.838 10.728 341.534 10.728C337.898 10.728 332.714 11.952 332.714 23.328C332.714 34.956 338.006 35.928 341.534 35.928C343.73 35.928 348.878 34.848 349.094 28.584ZM356.788 27.612H366.256L361.36 14.976L356.788 27.612ZM374.248 35.604V36H367.084V35.604C368.596 35.604 368.992 34.452 367.696 31.428L366.4 28.008H356.68C355.168 32.328 353.944 35.676 358.624 35.604V36H350.992V35.604C352.576 35.604 353.476 35.208 356.392 27.036L362.332 10.656H362.584C364.78 15.948 371.332 32.508 371.332 32.508C372.484 35.388 373.204 35.532 374.248 35.604ZM391.818 28.188H392.178V36H375.474V35.604C377.022 35.604 377.166 34.344 377.166 31.896V14.004C377.166 11.808 376.734 11.016 375.186 11.016V10.656H382.314V11.016C380.766 11.016 380.01 11.628 380.01 14.22V35.604H381.306C387.102 35.64 391.494 35.604 391.818 28.188Z" fill="white"></path>
</svg>
