<svg xmlns="http://www.w3.org/2000/svg" width="18" height="18" viewBox="0 0 18 18" fill="none"><path d="M5.14284 1.83336C6.0902 2.5244 6.80675 3.4956 7.41687 4.38649L7.89483 5.09017C8.19918 5.53497 8.14893 6.13837 7.76253 6.52478L6.74522 7.54204L6.8529 7.76965C7.1152 8.30141 7.56795 9.06782 8.24988 9.74974C8.77443 10.2743 9.34898 10.6632 9.82824 10.9342L10.1032 11.0828L10.3483 11.2039C10.3863 11.2218 10.4227 11.2386 10.4575 11.2544L11.4744 10.2376C11.8611 9.85084 12.4671 9.79984 12.9129 10.1088L13.6734 10.636C14.5371 11.2436 15.4391 11.9362 16.1406 12.8346C16.3968 13.1627 16.4349 13.5918 16.2821 13.9483C15.6545 15.4127 14.0663 16.6599 12.4142 16.599L12.1888 16.5865L12.0141 16.5714L11.8207 16.5498L11.6096 16.5205L11.3813 16.4825L11.1369 16.4348L10.877 16.3764L10.6024 16.3062L10.314 16.2231L10.0126 16.1261C8.62782 15.657 6.87071 14.7345 5.06789 12.9317C3.26506 11.1288 2.34262 9.37175 1.87348 7.98702L1.77652 7.68557L1.69344 7.39717L1.62319 7.12262L1.56475 6.86272C1.54712 6.77862 1.53128 6.69709 1.51707 6.61827L1.4791 6.39005L1.4498 6.17888L1.42814 5.98554L1.41306 5.81083L1.40053 5.58545C1.33994 3.93885 2.60129 2.33896 4.05899 1.71423C4.40104 1.56764 4.81533 1.59446 5.14284 1.83336ZM4.44639 3.18959C3.64283 3.60996 2.86418 4.56997 2.89952 5.53029L2.91506 5.77659L2.93052 5.9298L2.95262 6.10195L2.98247 6.2922L3.0212 6.49973L3.06993 6.72371L3.1298 6.96333L3.20192 7.21774L3.28742 7.48614C3.31828 7.57784 3.35155 7.67173 3.38743 7.76768L3.50307 8.06154L3.63547 8.36691C4.10597 9.40302 4.87449 10.617 6.12856 11.871C7.38263 13.1251 8.5966 13.8936 9.63271 14.3641L9.93808 14.4965L10.2319 14.6122C10.3279 14.648 10.4218 14.6813 10.5135 14.7122L10.7819 14.7977L11.0363 14.8698L11.2759 14.9297L11.4999 14.9784L11.7074 15.0171L11.8977 15.047L12.0698 15.0691L12.223 15.0845L12.4693 15.1001C13.4177 15.135 14.385 14.3609 14.8032 13.5676C14.2693 12.9412 13.6064 12.4272 12.875 11.9095L12.3145 11.5187L12.1714 11.6679L11.8675 12.0003L11.706 12.1702C11.2663 12.6178 10.7537 12.9983 10.1388 12.7496L9.96904 12.6785L9.76214 12.5857C9.72483 12.5684 9.68618 12.5501 9.64628 12.5309L9.39279 12.4041L9.11428 12.2536C8.53548 11.9285 7.83568 11.4568 7.18922 10.8104C6.54277 10.1639 6.07106 9.46414 5.74595 8.88534L5.59549 8.60683L5.46867 8.35334L5.32109 8.03058L5.24999 7.86079C5.01664 7.28383 5.33736 6.79662 5.74783 6.37523L5.91571 6.21013L6.33395 5.82585L6.48334 5.68263L6.1289 5.16332C5.60187 4.39903 5.08575 3.70811 4.44639 3.18959ZM11.2437 4.52938L11.3307 4.5396C11.8766 4.63586 12.378 4.90248 12.7632 5.30124C13.1482 5.7 13.3971 6.21044 13.4743 6.75939C13.532 7.16957 13.2462 7.54879 12.836 7.60646C12.4551 7.66002 12.1009 7.41741 12.0061 7.05406L11.9889 6.96815C11.9559 6.73289 11.8491 6.51413 11.6841 6.34323C11.5466 6.20081 11.3744 6.09773 11.1854 6.04345L11.0702 6.01681C10.6623 5.94489 10.3899 5.55589 10.4619 5.14797C10.5286 4.76918 10.8688 4.50727 11.2437 4.52938ZM11.2499 2.24973C11.8408 2.24973 12.426 2.36612 12.972 2.59227C13.518 2.81842 14.014 3.14989 14.4319 3.56775C14.8497 3.98561 15.1812 4.48169 15.4074 5.02766C15.6335 5.57362 15.7499 6.15879 15.7499 6.74973C15.7499 7.16394 15.4141 7.49973 14.9999 7.49973C14.6152 7.49973 14.2982 7.2102 14.2549 6.8372L14.2499 6.74973C14.2499 6.35577 14.1723 5.96566 14.0215 5.60169C13.8708 5.2377 13.6498 4.90699 13.3712 4.62841C13.0926 4.34984 12.762 4.12886 12.3979 3.97809C12.0946 3.85245 11.7732 3.77763 11.4464 3.75618L11.2499 3.74973C10.8357 3.74973 10.4999 3.41394 10.4999 2.99973C10.4999 2.58552 10.8357 2.24973 11.2499 2.24973Z" fill="currentColor"></path></svg>