<svg width="326" height="40" viewBox="0 0 326 40" fill="none" xmlns="http://www.w3.org/2000/svg">
<path d="M17.6294 18.4247C17.7378 18.3882 17.8451 18.3501 17.9513 18.3103C17.7776 18.4063 17.195 18.6211 16.1375 18.8075C16.6155 18.7197 17.0751 18.6045 17.5163 18.462C17.5541 18.4497 17.5918 18.4373 17.6294 18.4247Z" fill="#8D4D5D"/>
<path d="M24.7092 35.0457C24.7152 35.037 24.7211 35.0282 24.7271 35.0194C24.6818 35.0142 24.6366 35.009 24.5914 35.0038C23.9887 34.9348 23.396 34.8669 22.7525 34.6482C23.2331 34.8245 23.8833 34.9828 24.7092 35.0457Z" fill="#8D4D5D"/>
<path d="M25.2752 35.0725C25.1171 35.0606 24.9305 35.043 24.7271 35.0194L24.7092 35.0457C24.8895 35.0594 25.0781 35.0686 25.2752 35.0725Z" fill="#8D4D5D"/>
<path fill-rule="evenodd" clip-rule="evenodd" d="M15.0211 5.53541C14.147 7.05821 13.7099 8.68825 13.7099 10.4255C13.7099 12.5923 14.2715 14.5155 15.3947 16.1952C16.7027 16.0783 17.9229 15.4337 18.3695 15.1261C17.4856 13.8534 16.9207 12.327 16.9207 10.4255C16.9207 8.71193 17.4549 7.19498 18.2858 5.99193C17.3047 5.32207 15.8512 5.15724 15.2471 5.15857C15.1687 5.28213 15.0934 5.40774 15.0211 5.53541Z" fill="#8D4D5D"/>
<path d="M21.8033 34.1333C21.8838 34.2399 22.0826 34.3716 22.1953 34.4242L22.2084 34.4075C22.0186 34.3057 21.884 34.2094 21.8033 34.1333Z" fill="#8D4D5D"/>
<path d="M22.7525 34.6482C22.5373 34.5693 22.3561 34.4868 22.2084 34.4075L22.1953 34.4242C22.3859 34.5131 22.5712 34.5866 22.7525 34.6482Z" fill="#8D4D5D"/>
<path d="M39.5122 0.487805V39.5122H26.3042C25.3527 39.5122 24.4594 39.4664 23.6244 39.3749L23.5742 39.3693C23.5352 39.3649 23.4963 39.3604 23.4575 39.3559L23.4368 39.3534C23.3084 39.3381 23.1813 39.3217 23.0557 39.3042C22.0946 39.1702 21.216 38.9714 20.4197 38.7079L20.3478 38.683L20.3399 38.6802C20.225 38.64 20.1117 38.5987 20 38.5565C19.1027 38.2176 18.3069 37.8153 17.6126 37.3496L17.5966 37.3389C17.503 37.2758 17.4112 37.2116 17.3212 37.1461C17.0224 36.9288 16.744 36.6987 16.4861 36.4559C16.2015 36.1818 15.9393 35.8956 15.6995 35.5973L15.6867 35.5815C15.6306 35.5113 15.5757 35.4405 15.522 35.369C15.0034 34.6783 14.5999 33.9253 14.3114 33.11C13.8423 31.8446 13.6078 30.5041 13.6078 29.0885C13.6078 27.7802 13.9489 26.4612 14.6312 25.1314C14.9195 24.5696 15.261 24.0402 15.6559 23.5435C15.4678 23.5228 15.2738 23.5074 15.0751 23.4986C14.7434 23.9445 14.4507 24.4146 14.1972 24.9087C13.4846 26.2975 13.12 27.6924 13.12 29.0885C13.12 30.5579 13.3635 31.9549 13.8528 33.2762C14.1576 34.1368 14.5843 34.9325 15.1319 35.6619C15.4344 36.0648 15.7732 36.4465 16.1477 36.8072L16.1516 36.811C16.4252 37.0686 16.7195 37.3118 17.0343 37.5407C17.8352 38.123 18.768 38.6126 19.8276 39.0129C19.9698 39.0666 20.1142 39.1187 20.261 39.1692L20.2665 39.171C21.0946 39.4451 22.0025 39.6498 22.9883 39.7873C24.0085 39.9296 25.1142 40 26.3042 40H40V0H26.2402C25.4982 0 24.7889 0.0352459 24.1124 0.106222L23.1001 0.24329C23.2713 0.352285 23.4597 0.492289 23.6567 0.652266C23.8233 0.629628 23.9921 0.609327 24.1633 0.591363C24.8213 0.522324 25.5136 0.487805 26.2402 0.487805H39.5122Z" fill="#8D4D5D"/>
<path d="M39.5122 39.5122V0.487805H26.2402C25.5136 0.487805 24.8213 0.522324 24.1633 0.591363C23.9921 0.609327 23.8233 0.629628 23.6567 0.652266C24.5168 1.35074 25.5409 2.42998 26.0217 2.97167C26.0941 2.97073 26.167 2.97026 26.2402 2.97026H36.6578V18.531H26.3042L26.2422 18.5308C26.1296 18.5304 26.018 18.5287 25.9073 18.5257C25.8724 18.5248 25.8376 18.5237 25.8028 18.5226L25.334 18.9877L24.4532 19.8617L25.7788 20.9862L25.7743 20.9863L26.3415 21.469H36.6578V36.9654H26.2402C25.9447 36.9654 25.6566 36.9602 25.3759 36.9498C24.4217 36.9147 23.5543 36.8199 22.7722 36.6674C21.7846 36.4748 20.9374 36.1909 20.2242 35.8219C19.6336 35.5164 19.1347 35.1523 18.7223 34.7321C18.6563 34.6638 18.5919 34.5949 18.529 34.5253C17.1979 33.0526 16.5262 31.2403 16.5262 29.0564C16.5262 27.4664 16.921 26.1156 17.6936 24.9828C17.8678 24.7274 18.062 24.4818 18.2765 24.2462L17.7985 24.0498C17.8002 24.0478 17.8019 24.0458 17.8037 24.0438C17.3045 23.8578 16.5465 23.6415 15.6559 23.5435C15.261 24.0402 14.9195 24.5696 14.6312 25.1314C13.9489 26.4612 13.6078 27.7802 13.6078 29.0885C13.6078 30.5041 13.8423 31.8446 14.3114 33.11C14.5999 33.9253 15.0034 34.6783 15.522 35.369C15.5757 35.4405 15.6306 35.5113 15.6867 35.5815L15.6995 35.5973C15.9393 35.8956 16.2015 36.1818 16.4861 36.4559C16.744 36.6987 17.0224 36.9288 17.3212 37.1461C17.4112 37.2116 17.503 37.2758 17.5966 37.3389L17.6126 37.3496C18.3069 37.8153 19.1027 38.2176 20 38.5565C20.1117 38.5987 20.225 38.64 20.3399 38.6802L20.3478 38.683L20.4197 38.7079C21.216 38.9714 22.0946 39.1702 23.0557 39.3042C23.1813 39.3217 23.3084 39.3381 23.4368 39.3534L23.4575 39.3559C23.4963 39.3604 23.5352 39.3649 23.5742 39.3693L23.6244 39.3749C24.4594 39.4664 25.3527 39.5122 26.3042 39.5122H39.5122Z" fill="#8D4D5D"/>
<path d="M22.4781 2.67808C22.511 2.70249 22.5477 2.73055 22.5877 2.76199C21.8843 2.1802 21.1332 1.72248 20.3865 1.36254L22.4781 2.67808Z" fill="#8D4D5D"/>
<path fill-rule="evenodd" clip-rule="evenodd" d="M21.351 18.7537L21.326 18.7679L21.335 18.7628L21.351 18.7537ZM16.688 39.8297C16.4388 39.7042 16.1984 39.5645 15.9684 39.4155C15.0153 38.7979 14.2409 38.022 13.7617 37.4532C13.6013 37.2628 13.474 37.0957 13.3841 36.9654H3.34218V21.469H13.7598C14.0666 21.469 14.3661 21.4756 14.6583 21.4886C14.8446 21.4969 15.0279 21.5078 15.2083 21.5213C16.0763 21.5866 16.8743 21.7125 17.6037 21.8973L17.64 21.9066L17.6417 21.907L17.6819 21.9174L17.6834 21.9178L17.7123 21.9254L17.7139 21.9258L17.7534 21.9363C17.8821 21.9708 18.0087 22.0072 18.1331 22.0455C18.3574 22.1145 18.5745 22.1895 18.7845 22.2706C19.1318 22.4046 19.4596 22.5551 19.7684 22.7216C20.2145 22.9623 20.6215 23.2369 20.9904 23.5451L21.0003 23.5534L21.0016 23.5544L21.0241 23.5734C21.1896 23.7135 21.3463 23.8578 21.4944 24.006C21.8018 24.3138 22.0722 24.6394 22.3064 24.9828C23.079 26.1156 23.4738 27.4664 23.4738 29.0564C23.4738 31.0504 22.9138 32.7345 21.8033 34.1333C21.884 34.2094 22.0186 34.3057 22.2084 34.4075C22.3561 34.4868 22.5373 34.5693 22.7525 34.6482C23.396 34.8669 23.9887 34.9348 24.5914 35.0038L24.7271 35.0194C24.9305 35.043 25.1171 35.0606 25.2752 35.0725C25.6318 34.5093 25.9226 33.9104 26.1473 33.2761C26.6366 31.9548 26.88 30.5578 26.88 29.0885C26.88 27.6924 26.5154 26.2975 25.8028 24.9087C25.4906 24.3003 25.119 23.7282 24.6883 23.1928C24.5844 23.0636 24.477 22.9366 24.3662 22.8117C23.9618 22.3558 23.5124 21.9293 23.0187 21.5321C22.8092 21.3566 22.5932 21.1897 22.3917 21.0597C22.1351 20.8814 21.8697 20.7178 21.5956 20.5688C21.138 20.3201 20.6569 20.1127 20.1528 19.9465C20.1089 19.932 20.0649 19.9178 20.0207 19.904C20.0726 19.8848 20.1242 19.8654 20.1754 19.8456C20.643 19.6654 21.0839 19.4607 21.4973 19.2311L21.4993 19.23L21.5758 19.1871C21.8387 19.0378 22.0902 18.8783 22.3303 18.7086C23.0133 18.2256 23.6013 17.6608 24.0918 17.0141C24.1391 16.9516 24.1856 16.8884 24.2311 16.8244C25.5305 14.9989 26.1764 12.8932 26.1764 10.5254C26.1764 8.70246 25.7168 6.98925 24.8012 5.39374C24.6141 5.06332 24.4075 4.74584 24.1815 4.44139C23.7106 3.7244 22.9865 3.07532 22.5877 2.76199C22.5477 2.73055 22.511 2.70249 22.4781 2.67808L20.3865 1.36254C18.6432 0.52221 16.9235 0.214916 15.8876 0.106222C15.2111 0.0352459 14.5018 0 13.7598 0H0V40H13.6958C14.7611 40 15.7587 39.9436 16.688 39.8297ZM24.0013 23.1354C23.9409 23.0673 23.8794 22.9999 23.8169 22.9331L23.8025 22.9178C23.4686 22.5629 23.1042 22.2267 22.7092 21.9091C23.2155 22.3334 23.7406 22.8583 24.0013 23.1354ZM15.5468 18.9009C15.7464 18.8743 15.9439 18.8431 16.1375 18.8075C17.195 18.6211 17.7776 18.4063 17.9513 18.3103C17.8451 18.3501 17.7378 18.3882 17.6294 18.4247L17.5678 18.4452L17.5163 18.462C17.0751 18.6045 16.6155 18.7197 16.1375 18.8075C16.0454 18.8238 15.9487 18.84 15.8493 18.8557C15.7519 18.8711 15.6511 18.8862 15.5468 18.9009ZM19.9036 16.7071C20.0146 16.6253 20.1238 16.5407 20.2312 16.4532C20.5772 16.1707 20.8865 15.8637 21.16 15.5326C21.2686 15.401 21.3716 15.2656 21.4691 15.1261C21.4905 15.0955 21.5117 15.0647 21.5325 15.0337C22.3475 13.8233 22.7703 12.2982 22.7703 10.4289C22.7703 9.82539 22.7192 9.26137 22.6187 8.73576L22.6147 8.71503L22.6095 8.68861C22.385 7.55262 21.9267 6.59009 21.2398 5.78856L21.2344 5.78221L21.2291 5.77569C21.0213 5.5156 20.422 4.88583 19.7605 4.51299L19.7476 4.50574L19.7352 4.49772C19.1137 4.09606 18.4262 3.77247 17.6704 3.52825C17.608 3.50811 17.5441 3.48656 17.4776 3.46415C17.0134 3.30772 16.4242 3.10915 15.3875 3.05378L15.3747 3.0531L15.362 3.05175C14.8514 2.99756 14.3174 2.97026 13.7598 2.97026H3.34218V18.531H13.6958L13.7578 18.5308C14.0546 18.5296 14.345 18.5197 14.6291 18.5012C14.9196 18.4823 15.2035 18.4544 15.4808 18.4175C15.6846 18.3888 15.8745 18.3586 16.0499 18.3277C16.5078 18.2435 16.9465 18.1335 17.3663 17.9978C17.4023 17.9862 17.4382 17.9743 17.474 17.9623C17.5771 17.9276 17.6792 17.8913 17.78 17.8535C17.8338 17.8334 17.8872 17.8128 17.9403 17.7917C18.0966 17.7298 18.2502 17.664 18.401 17.5943C18.8666 17.3792 19.3064 17.1271 19.721 16.8381C19.7824 16.7952 19.8433 16.7516 19.9036 16.7071Z" fill="#8D4D5D"/>
<path d="M67.4605 6.43198H65.5754V19.4306H68.4232C71.0304 19.4306 73.5172 18.7237 73.5172 12.7153C73.5172 6.98177 70.1881 6.43198 67.4605 6.43198ZM79.0926 26.6171C79.0926 33.4109 74.0788 33.6466 67.1397 33.6466H60V33.2931C61.7247 33.2931 62.3264 31.9579 62.3264 29.2875V10.2412C62.3264 7.80645 61.7649 6.35344 60 6.35344V6H67.1397C72.715 6 77.2074 6.58906 77.2074 12.7546C77.2074 18.9593 71.5518 19.4698 70.7496 19.4698C73.3568 19.4698 79.0926 20.0196 79.0926 26.6171ZM75.3222 26.46C75.3222 20.0196 71.5518 19.8626 68.4232 19.8626H65.5754V33.2146H67.4605C71.4716 33.2146 75.3222 33.2931 75.3222 26.46Z" fill="#222222"/>
<path d="M100.695 25.6746H101.136V33.6466H82.204V33.2146C83.8886 33.2146 84.2496 32.115 84.2496 29.4446V9.57363C84.2496 7.13885 83.9688 6.43198 82.204 6.43198V6H100.615V12.8724H100.173C99.9729 6.51052 94.9992 6.43198 90.1057 6.43198H87.5386V19.4698H90.7475C92.3519 19.4698 95.7212 19.4306 95.8415 15.582H96.2827V23.8289H95.8415C95.7212 19.9411 92.2717 19.9018 90.7475 19.9018H87.5386V33.2146H89.5843C94.9591 33.2146 100.294 33.4895 100.695 25.6746Z" fill="#222222"/>
<path d="M124.285 25.1248H124.686V33.6466H106.075V33.2146C107.799 33.2146 107.96 31.8401 107.96 29.1697V9.65218C107.96 7.25666 107.479 6.39271 105.754 6.39271V6H113.696V6.39271C111.971 6.39271 111.129 7.06031 111.129 9.8878V33.2146H112.573C119.03 33.2539 123.924 33.2146 124.285 25.1248Z" fill="#222222"/>
<path d="M146.017 25.1248H146.418V33.6466H127.806V33.2146C129.531 33.2146 129.692 31.8401 129.692 29.1697V9.65218C129.692 7.25666 129.21 6.39271 127.486 6.39271V6H135.427V6.39271C133.703 6.39271 132.86 7.06031 132.86 9.8878V33.2146H134.304C140.762 33.2539 145.656 33.2146 146.017 25.1248Z" fill="#222222"/>
<path d="M154.632 24.4965H165.181L159.726 10.7125L154.632 24.4965ZM174.086 33.2146V33.6466H166.104V33.2146C167.788 33.2146 168.23 31.9579 166.786 28.6592L165.342 24.9285H154.512C152.827 29.641 151.463 33.2931 156.678 33.2146V33.6466H148.174V33.2146C149.939 33.2146 150.942 32.7826 154.191 23.8682L160.809 6H161.09C163.537 11.7728 170.837 29.8373 170.837 29.8373C172.12 32.979 172.923 33.136 174.086 33.2146Z" fill="#222222"/>
<path d="M193.299 6.43198H191.414V19.4306H194.262C196.869 19.4306 199.356 18.7237 199.356 12.7153C199.356 6.98177 196.027 6.43198 193.299 6.43198ZM204.931 26.6171C204.931 33.4109 199.917 33.6466 192.978 33.6466H185.839V33.2931C187.563 33.2931 188.165 31.9579 188.165 29.2875V10.2412C188.165 7.80645 187.604 6.35344 185.839 6.35344V6H192.978C198.554 6 203.046 6.58906 203.046 12.7546C203.046 18.9593 197.391 19.4698 196.588 19.4698C199.195 19.4698 204.931 20.0196 204.931 26.6171ZM201.161 26.46C201.161 20.0196 197.391 19.8626 194.262 19.8626H191.414V33.2146H193.299C197.31 33.2146 201.161 33.2931 201.161 26.46Z" fill="#222222"/>
<path d="M226.534 25.6746H226.975V33.6466H208.043V33.2146C209.727 33.2146 210.088 32.115 210.088 29.4446V9.57363C210.088 7.13885 209.808 6.43198 208.043 6.43198V6H226.453V12.8724H226.012C225.812 6.51052 220.838 6.43198 215.944 6.43198H213.377V19.4698H216.586C218.191 19.4698 221.56 19.4306 221.68 15.582H222.121V23.8289H221.68C221.56 19.9411 218.11 19.9018 216.586 19.9018H213.377V33.2146H215.423C220.798 33.2146 226.132 33.4895 226.534 25.6746Z" fill="#222222"/>
<path d="M236.005 24.4965H246.554L241.099 10.7125L236.005 24.4965ZM255.458 33.2146V33.6466H247.476V33.2146C249.161 33.2146 249.602 31.9579 248.158 28.6592L246.714 24.9285H235.884C234.2 29.641 232.836 33.2931 238.05 33.2146V33.6466H229.547V33.2146C231.312 33.2146 232.314 32.7826 235.563 23.8682L242.182 6H242.462C244.909 11.7728 252.209 29.8373 252.209 29.8373C253.493 32.979 254.295 33.136 255.458 33.2146Z" fill="#222222"/>
<path d="M266.173 34C261.119 34 257.189 30.7405 257.189 24.3394V9.80926C257.189 7.02104 256.306 6.43198 254.541 6.43198V6H263.165V6.43198C261.44 6.43198 260.237 6.6676 260.237 9.8878V24.6928C260.237 29.7195 263.205 32.547 267.858 32.547C272.471 32.547 275.399 29.5624 275.399 24.4572V14.2861C275.399 8.70968 275.238 6.43198 270.987 6.43198V6H280.533V6.43198C275.68 6.43198 275.84 8.70968 275.84 14.2861V24.4572C275.88 30.8191 271.829 34 266.173 34Z" fill="#222222"/>
<path d="M275.76 6H299.609V12.4404H299.168C299.088 6.43198 293.312 6.39271 292.47 6.39271H289.301V30.3086C289.301 32.8612 290.263 33.2146 291.948 33.2146V33.6466H283.605V33.2146C285.29 33.2146 286.252 32.8612 286.252 30.3086V6.39271H283.084C281.239 6.39271 275.922 6.41403 275.842 12.4224L275.5 12.5L275.76 6Z" fill="#222222"/>
<path d="M316.534 6H326V6.43198C323.914 6.43198 322.751 6.39271 318.339 15.0323L315.01 21.5905V29.4053C315.01 32.8612 316.213 33.2146 317.898 33.2146V33.6466H309.515V33.2146C311.199 33.2146 312.322 32.8612 312.322 29.4053V22.101C306.426 11.8906 304.902 9.45582 304.902 9.45582C303.097 6.43198 302.214 6.51052 300.77 6.39271V6H309.795V6.39271C308.552 6.39271 306.145 6.31417 308.873 10.8303L314.889 20.9621L318.138 14.4825C320.184 10.4376 321.788 6.43198 316.534 6.43198V6Z" fill="#222222"/>
</svg>
